<?xml version="1.0" encoding="UTF-8" standalone="no"?>
<!-- Created with Inkscape (http://www.inkscape.org/) -->

<svg
   width="32"
   height="32"
   viewBox="0 0 8.466666 8.4666667"
   version="1.1"
   id="svg1"
   inkscape:version="1.3.2 (1:1.3.2+202311252150+091e20ef0f)"
   sodipodi:docname="dic_logo.svg"
   xml:space="preserve"
   xmlns:inkscape="http://www.inkscape.org/namespaces/inkscape"
   xmlns:sodipodi="http://sodipodi.sourceforge.net/DTD/sodipodi-0.dtd"
   xmlns="http://www.w3.org/2000/svg"
   xmlns:svg="http://www.w3.org/2000/svg"><sodipodi:namedview
     id="namedview1"
     pagecolor="#ffffff"
     bordercolor="#000000"
     borderopacity="0.25"
     inkscape:showpageshadow="false"
     inkscape:pageopacity="0.0"
     inkscape:pagecheckerboard="0"
     inkscape:deskcolor="#d1d1d1"
     inkscape:document-units="px"
     inkscape:zoom="9.2734374"
     inkscape:cx="55.15754"
     inkscape:cy="41.462511"
     inkscape:window-width="2518"
     inkscape:window-height="1392"
     inkscape:window-x="2594"
     inkscape:window-y="0"
     inkscape:window-maximized="1"
     inkscape:current-layer="layer1" /><defs
     id="defs1" /><g
     inkscape:label="Livello 1"
     inkscape:groupmode="layer"
     id="layer1"><path
       d="m 0.52916621,3.1750001 v 4.4979164 c 0,0.438216 0.3555344,0.7937498 0.79374999,0.7937498 h 5.8208335 c 0.4382155,0 0.7937504,-0.3555338 0.7937504,-0.7937498 V 3.1750001 Z"
       style="fill:#999999;stroke-width:0.0165364"
       id="path55"
       sodipodi:nodetypes="csssscc" /><path
       d="M 2.6458332,0 C 2.3531381,0 2.1166665,0.23647164 2.1166665,0.52916671 V 1.0583334 H 1.3229162 c -0.43821559,0 -0.79374999,0.3555342 -0.79374999,0.7937499 V 2.6458334 H 7.9375001 V 1.8520833 c 0,-0.4382157 -0.3555349,-0.7937499 -0.7937504,-0.7937499 H 6.3499999 V 0.52916671 C 6.3499999,0.23647164 6.1135284,0 5.8208335,0 5.528138,0 5.2916666,0.23647164 5.2916666,0.52916671 V 1.0583334 H 3.1749997 V 0.52916671 C 3.1749997,0.23647164 2.9385281,0 2.6458332,0 Z"
       style="fill:#d40000;stroke-width:0.0165364"
       id="path54" /><path
       d="m 1.4432535,3.8806406 c -0.1402694,0 -0.2550357,0.1147661 -0.2550357,0.255036 v 0.5100719 c 0,0.140269 0.1147663,0.2550359 0.2550357,0.2550359 h 0.5100719 c 0.1402694,0 0.2550363,-0.1147669 0.2550363,-0.2550359 V 4.1356766 c 0,-0.1402699 -0.1147669,-0.255036 -0.2550363,-0.255036 z"
       style="fill:#ffffff;stroke-width:0.0159397"
       id="path59" /><path
       d="m 3.1332835,3.8806406 c -0.1402699,0 -0.2550359,0.1147661 -0.2550359,0.255036 v 0.5100719 c 0,0.140269 0.114766,0.2550359 0.2550359,0.2550359 h 0.5100717 c 0.1402696,0 0.255036,-0.1147669 0.255036,-0.2550359 V 4.1356766 c 0,-0.1402699 -0.1147664,-0.255036 -0.255036,-0.255036 z"
       style="fill:#ffffff;stroke-width:0.0159397"
       id="path62" /><path
       d="m 4.8233135,3.8806406 c -0.1402699,0 -0.2550362,0.1147661 -0.2550362,0.255036 v 0.5100719 c 0,0.140269 0.1147663,0.2550359 0.2550362,0.2550359 H 5.333385 c 0.1402698,0 0.2550357,-0.1147669 0.2550357,-0.2550359 V 4.1356766 c 0,-0.1402699 -0.1147659,-0.255036 -0.2550357,-0.255036 z"
       style="fill:#ffffff;stroke-width:0.0159397"
       id="path63" /><path
       d="m 6.5133423,3.8806406 c -0.1402699,0 -0.2550357,0.1147661 -0.2550357,0.255036 v 0.5100719 c 0,0.140269 0.1147658,0.2550359 0.2550357,0.2550359 h 0.5100714 c 0.1402699,0 0.2550363,-0.1147669 0.2550363,-0.2550359 V 4.1356766 c 0,-0.1402699 -0.1147664,-0.255036 -0.2550363,-0.255036 z"
       style="fill:#ffffff;stroke-width:0.0159397"
       id="path64" /><path
       d="m 1.4432535,5.2190104 c -0.1402694,0 -0.2550357,0.1147658 -0.2550357,0.2550357 v 0.510072 c 0,0.1402693 0.1147663,0.2550363 0.2550357,0.2550363 h 0.5100719 c 0.1402694,0 0.2550363,-0.114767 0.2550363,-0.2550363 v -0.510072 c 0,-0.1402699 -0.1147669,-0.2550357 -0.2550363,-0.2550357 z"
       style="fill:#ffffff;stroke-width:0.0159397"
       id="path65" /><path
       d="m 3.1332835,5.2190104 c -0.1402699,0 -0.2550359,0.1147658 -0.2550359,0.2550357 v 0.510072 c 0,0.1402693 0.114766,0.2550363 0.2550359,0.2550363 h 0.5100717 c 0.1402696,0 0.255036,-0.114767 0.255036,-0.2550363 v -0.510072 c 0,-0.1402699 -0.1147664,-0.2550357 -0.255036,-0.2550357 z"
       style="fill:#ffffff;stroke-width:0.0159397"
       id="path66" /><path
       d="m 4.8233135,5.2190104 c -0.1402698,0 -0.2550361,0.1147658 -0.2550361,0.2550357 v 0.510072 c 0,0.1402693 0.1147663,0.2550363 0.2550361,0.2550363 H 5.333385 c 0.1402698,0 0.2550357,-0.114767 0.2550357,-0.2550363 v -0.510072 c 0,-0.1402699 -0.1147659,-0.2550357 -0.2550357,-0.2550357 z"
       style="fill:#ffffff;stroke-width:0.0159397;fill-opacity:1"
       id="path67" /><path
       d="m 6.5133423,5.2190104 c -0.1402699,0 -0.2550357,0.1147658 -0.2550357,0.2550357 v 0.510072 c 0,0.1402693 0.1147658,0.2550363 0.2550357,0.2550363 h 0.5100714 c 0.1402699,0 0.2550363,-0.114767 0.2550363,-0.2550363 v -0.510072 c 0,-0.1402699 -0.1147664,-0.2550357 -0.2550363,-0.2550357 z"
       style="fill:#ffffff;stroke-width:0.0159397;fill-opacity:1"
       id="path68" /><path
       d="m 1.4432535,6.4521944 c -0.1402694,0 -0.2550357,0.1147653 -0.2550357,0.2550357 v 0.5100714 c 0,0.1402694 0.1147663,0.2550368 0.2550357,0.2550368 h 0.5100719 c 0.1402694,0 0.2550363,-0.1147674 0.2550363,-0.2550368 V 6.7072301 c 0,-0.1402704 -0.1147669,-0.2550357 -0.2550363,-0.2550357 z"
       style="fill:#ffffff;stroke-width:0.0159397;fill-opacity:1"
       id="path69" /><path
       d="m 3.1332835,6.4521944 c -0.1402699,0 -0.2550359,0.1147653 -0.2550359,0.2550357 v 0.5100714 c 0,0.1402694 0.114766,0.2550368 0.2550359,0.2550368 h 0.5100717 c 0.1402696,0 0.255036,-0.1147674 0.255036,-0.2550368 V 6.7072301 c 0,-0.1402704 -0.1147664,-0.2550357 -0.255036,-0.2550357 z"
       style="fill:#ffffff;stroke-width:0.0159397;fill-opacity:1"
       id="path70" /><path
       d="m 4.8233135,6.4521944 c -0.1402698,0 -0.2550361,0.1147653 -0.2550361,0.2550357 v 0.5100714 c 0,0.1402694 0.1147663,0.2550368 0.2550361,0.2550368 H 5.333385 c 0.1402698,0 0.2550357,-0.1147674 0.2550357,-0.2550368 V 6.7072301 c 0,-0.1402704 -0.1147659,-0.2550357 -0.2550357,-0.2550357 z"
       style="fill:#ffffff;stroke-width:0.0159397;fill-opacity:1"
       id="path71" /><path
       d="m 6.5133423,6.4521944 c -0.1402699,0 -0.2550357,0.1147653 -0.2550357,0.2550357 v 0.5100714 c 0,0.1402694 0.1147658,0.2550368 0.2550357,0.2550368 h 0.5100714 c 0.1402699,0 0.2550363,-0.1147674 0.2550363,-0.2550368 V 6.7072301 c 0,-0.1402704 -0.1147664,-0.2550357 -0.2550363,-0.2550357 z"
       style="fill:#d40000;stroke-width:0.0159397;fill-opacity:1"
       id="path72" /><path
       d="M 1.0002398,2.269408 V 1.5496336 h 0.231356 q 0.097387,0 0.1725284,0.043997 0.075636,0.043503 0.1181498,0.1216102 0.043009,0.077613 0.043009,0.1794493 v 0.030155 q 0,0.1517657 -0.092938,0.248164 -0.092444,0.095904 -0.2372883,0.096398 z m 0.173517,-0.5858054 v 0.4523307 h 0.060311 q 0.1453391,0 0.153743,-0.1873588 l 4.944e-4,-0.054873 q 0,-0.2056499 -0.1502826,-0.210099 z M 1.839647,1.5496336 V 2.269408 H 1.6666243 V 1.5496336 Z m 0.5309325,0.4760596 h 0.1730227 q -0.00544,0.1132062 -0.085028,0.183404 -0.07959,0.070198 -0.2125707,0.070198 -0.1428673,0 -0.2229521,-0.091949 -0.080085,-0.091949 -0.082062,-0.2501414 v -0.046963 q 0,-0.1626413 0.082557,-0.2565679 0.083051,-0.094421 0.219986,-0.094421 0.1408899,0 0.2160312,0.073658 0.075141,0.073164 0.085028,0.1853815 H 2.3715682 q -0.00198,-0.060805 -0.03065,-0.091949 -0.028178,-0.031144 -0.097387,-0.031144 -0.063771,0 -0.094915,0.048941 -0.031144,0.048446 -0.031638,0.1611583 v 0.043997 q 0,0.1146893 0.029167,0.1646187 0.029167,0.049435 0.099859,0.049435 0.1211159,0 0.1245763,-0.1176554 z M 2.6256644,2.269408 V 1.5496336 h 0.4968223 v 0.133969 H 2.7991814 V 1.8353682 H 3.0715686 V 1.9643937 H 2.7991814 V 2.1359333 H 3.1210037 V 2.269408 Z M 3.5802553,2.0504107 3.7409192,1.5496336 H 3.9688148 V 2.269408 H 3.7948034 V 2.1013288 L 3.8116113,1.7572608 3.6376,2.269408 H 3.5229106 L 3.3488992,1.7572608 3.3657071,2.1013288 V 2.269408 H 3.1921901 V 1.5496336 h 0.2274013 z m 1.0564273,0.00593 q 0,0.105791 -0.066737,0.1591809 -0.066243,0.052895 -0.1987289,0.053884 H 4.0795495 V 1.5496336 h 0.2585453 q 0.1329803,0 0.2081216,0.048941 0.075636,0.048941 0.075636,0.1497882 0,0.048941 -0.02274,0.09096 -0.02274,0.041525 -0.078602,0.062782 0.063771,0.016314 0.089972,0.060805 0.026201,0.043997 0.026201,0.093432 z M 4.2530665,1.6836026 v 0.1661018 h 0.08404 q 0.060311,0 0.085523,-0.020268 0.025706,-0.020268 0.025706,-0.060311 0,-0.083545 -0.1052967,-0.085523 z m 0.2110877,0.3702685 q 0,-0.087994 -0.085028,-0.090466 H 4.2530665 v 0.1725283 h 0.1132063 q 0.052895,0 0.075141,-0.023729 0.02274,-0.024223 0.02274,-0.058333 z M 5.1270782,2.269408 5.0000301,2.0153118 H 4.9065978 V 2.269408 H 4.7330808 V 1.5496336 h 0.2832629 q 0.1245763,0 0.1982345,0.055862 0.074153,0.055367 0.074153,0.1616526 0,0.083051 -0.034604,0.1305086 -0.03411,0.047458 -0.090961,0.074153 L 5.312954,2.2619927 v 0.00742 z M 4.9065978,1.6836026 v 0.1977402 h 0.1097459 q 0.09887,0 0.09887,-0.098376 0,-0.097881 -0.095904,-0.099364 z M 5.3935332,2.269408 V 1.5496336 h 0.4968223 v 0.133969 H 5.5670502 V 1.8353682 H 5.8394374 V 1.9643937 H 5.5670502 V 2.1359333 H 5.8888724 V 2.269408 Z"
       id="text2"
       style="font-weight:900;font-size:1.01243px;font-family:Roboto;-inkscape-font-specification:'Roboto Heavy';letter-spacing:0px;fill:#ffffff;stroke-width:0.354348;stroke-linecap:round;stroke-linejoin:round;stroke-dasharray:0.354348, 2.12609;paint-order:stroke markers fill"
       aria-label="DICEMBRE" /></g></svg>
