<?xml version="1.0" encoding="UTF-8" standalone="no"?>
<!-- Created with Inkscape (http://www.inkscape.org/) -->

<svg
   width="32"
   height="32"
   viewBox="0 0 8.466666 8.4666667"
   version="1.1"
   id="svg1"
   inkscape:version="1.3.2 (1:1.3.2+202311252150+091e20ef0f)"
   sodipodi:docname="jun_logo.svg"
   xml:space="preserve"
   xmlns:inkscape="http://www.inkscape.org/namespaces/inkscape"
   xmlns:sodipodi="http://sodipodi.sourceforge.net/DTD/sodipodi-0.dtd"
   xmlns="http://www.w3.org/2000/svg"
   xmlns:svg="http://www.w3.org/2000/svg"><sodipodi:namedview
     id="namedview1"
     pagecolor="#ffffff"
     bordercolor="#000000"
     borderopacity="0.25"
     inkscape:showpageshadow="false"
     inkscape:pageopacity="0.0"
     inkscape:pagecheckerboard="0"
     inkscape:deskcolor="#d1d1d1"
     inkscape:document-units="px"
     inkscape:zoom="83.482794"
     inkscape:cx="12.164183"
     inkscape:cy="10.187728"
     inkscape:window-width="2518"
     inkscape:window-height="1392"
     inkscape:window-x="2594"
     inkscape:window-y="0"
     inkscape:window-maximized="1"
     inkscape:current-layer="layer1" /><defs
     id="defs1" /><g
     inkscape:label="Livello 1"
     inkscape:groupmode="layer"
     id="layer1"><path
       d="m 0.52916621,3.1750001 v 4.4979164 c 0,0.438216 0.3555344,0.7937498 0.79374999,0.7937498 h 5.8208335 c 0.4382155,0 0.7937504,-0.3555338 0.7937504,-0.7937498 V 3.1750001 Z"
       style="fill:#999999;stroke-width:0.0165364"
       id="path55"
       sodipodi:nodetypes="csssscc" /><path
       d="M 2.6458332,0 C 2.3531381,0 2.1166665,0.23647164 2.1166665,0.52916671 V 1.0583334 H 1.3229162 c -0.43821559,0 -0.79374999,0.3555342 -0.79374999,0.7937499 V 2.6458334 H 7.9375001 V 1.8520833 c 0,-0.4382157 -0.3555349,-0.7937499 -0.7937504,-0.7937499 H 6.3499999 V 0.52916671 C 6.3499999,0.23647164 6.1135284,0 5.8208335,0 5.528138,0 5.2916666,0.23647164 5.2916666,0.52916671 V 1.0583334 H 3.1749997 V 0.52916671 C 3.1749997,0.23647164 2.9385281,0 2.6458332,0 Z"
       style="fill:#d40000;stroke-width:0.0165364"
       id="path54" /><path
       d="m 1.4432535,3.8806406 c -0.1402694,0 -0.2550357,0.1147661 -0.2550357,0.255036 v 0.5100719 c 0,0.140269 0.1147663,0.2550359 0.2550357,0.2550359 h 0.5100719 c 0.1402694,0 0.2550363,-0.1147669 0.2550363,-0.2550359 V 4.1356766 c 0,-0.1402699 -0.1147669,-0.255036 -0.2550363,-0.255036 z"
       style="fill:#ffffff;stroke-width:0.0159397"
       id="path59" /><path
       d="m 3.1332835,3.8806406 c -0.1402699,0 -0.2550359,0.1147661 -0.2550359,0.255036 v 0.5100719 c 0,0.140269 0.114766,0.2550359 0.2550359,0.2550359 h 0.5100717 c 0.1402696,0 0.255036,-0.1147669 0.255036,-0.2550359 V 4.1356766 c 0,-0.1402699 -0.1147664,-0.255036 -0.255036,-0.255036 z"
       style="fill:#ffffff;stroke-width:0.0159397"
       id="path62" /><path
       d="m 4.8233135,3.8806406 c -0.1402699,0 -0.2550362,0.1147661 -0.2550362,0.255036 v 0.5100719 c 0,0.140269 0.1147663,0.2550359 0.2550362,0.2550359 H 5.333385 c 0.1402698,0 0.2550357,-0.1147669 0.2550357,-0.2550359 V 4.1356766 c 0,-0.1402699 -0.1147659,-0.255036 -0.2550357,-0.255036 z"
       style="fill:#ffffff;stroke-width:0.0159397"
       id="path63" /><path
       d="m 6.5133423,3.8806406 c -0.1402699,0 -0.2550357,0.1147661 -0.2550357,0.255036 v 0.5100719 c 0,0.140269 0.1147658,0.2550359 0.2550357,0.2550359 h 0.5100714 c 0.1402699,0 0.2550363,-0.1147669 0.2550363,-0.2550359 V 4.1356766 c 0,-0.1402699 -0.1147664,-0.255036 -0.2550363,-0.255036 z"
       style="fill:#ffffff;stroke-width:0.0159397"
       id="path64" /><path
       d="m 1.4432535,5.2190104 c -0.1402694,0 -0.2550357,0.1147658 -0.2550357,0.2550357 v 0.510072 c 0,0.1402693 0.1147663,0.2550363 0.2550357,0.2550363 h 0.5100719 c 0.1402694,0 0.2550363,-0.114767 0.2550363,-0.2550363 v -0.510072 c 0,-0.1402699 -0.1147669,-0.2550357 -0.2550363,-0.2550357 z"
       style="fill:#ffffff;stroke-width:0.0159397"
       id="path65" /><path
       d="m 3.1332835,5.2190104 c -0.1402699,0 -0.2550359,0.1147658 -0.2550359,0.2550357 v 0.510072 c 0,0.1402693 0.114766,0.2550363 0.2550359,0.2550363 h 0.5100717 c 0.1402696,0 0.255036,-0.114767 0.255036,-0.2550363 v -0.510072 c 0,-0.1402699 -0.1147664,-0.2550357 -0.255036,-0.2550357 z"
       style="fill:#d40000;stroke-width:0.0159397;fill-opacity:1"
       id="path66" /><path
       d="m 4.8233135,5.2190104 c -0.1402698,0 -0.2550361,0.1147658 -0.2550361,0.2550357 v 0.510072 c 0,0.1402693 0.1147663,0.2550363 0.2550361,0.2550363 H 5.333385 c 0.1402698,0 0.2550357,-0.114767 0.2550357,-0.2550363 v -0.510072 c 0,-0.1402699 -0.1147659,-0.2550357 -0.2550357,-0.2550357 z"
       style="fill:#ffffff;stroke-width:0.0159397"
       id="path67" /><path
       d="m 6.5133423,5.2190104 c -0.1402699,0 -0.2550357,0.1147658 -0.2550357,0.2550357 v 0.510072 c 0,0.1402693 0.1147658,0.2550363 0.2550357,0.2550363 h 0.5100714 c 0.1402699,0 0.2550363,-0.114767 0.2550363,-0.2550363 v -0.510072 c 0,-0.1402699 -0.1147664,-0.2550357 -0.2550363,-0.2550357 z"
       style="fill:#ffffff;stroke-width:0.0159397"
       id="path68" /><path
       d="m 1.4432535,6.4521944 c -0.1402694,0 -0.2550357,0.1147653 -0.2550357,0.2550357 v 0.5100714 c 0,0.1402694 0.1147663,0.2550368 0.2550357,0.2550368 h 0.5100719 c 0.1402694,0 0.2550363,-0.1147674 0.2550363,-0.2550368 V 6.7072301 c 0,-0.1402704 -0.1147669,-0.2550357 -0.2550363,-0.2550357 z"
       style="fill:#ffffff;stroke-width:0.0159397"
       id="path69" /><path
       d="m 3.1332835,6.4521944 c -0.1402699,0 -0.2550359,0.1147653 -0.2550359,0.2550357 v 0.5100714 c 0,0.1402694 0.114766,0.2550368 0.2550359,0.2550368 h 0.5100717 c 0.1402696,0 0.255036,-0.1147674 0.255036,-0.2550368 V 6.7072301 c 0,-0.1402704 -0.1147664,-0.2550357 -0.255036,-0.2550357 z"
       style="fill:#ffffff;stroke-width:0.0159397"
       id="path70" /><path
       d="m 4.8233135,6.4521944 c -0.1402698,0 -0.2550361,0.1147653 -0.2550361,0.2550357 v 0.5100714 c 0,0.1402694 0.1147663,0.2550368 0.2550361,0.2550368 H 5.333385 c 0.1402698,0 0.2550357,-0.1147674 0.2550357,-0.2550368 V 6.7072301 c 0,-0.1402704 -0.1147659,-0.2550357 -0.2550357,-0.2550357 z"
       style="fill:#ffffff;stroke-width:0.0159397"
       id="path71" /><path
       d="m 6.5133423,6.4521944 c -0.1402699,0 -0.2550357,0.1147653 -0.2550357,0.2550357 v 0.5100714 c 0,0.1402694 0.1147658,0.2550368 0.2550357,0.2550368 h 0.5100714 c 0.1402699,0 0.2550363,-0.1147674 0.2550363,-0.2550368 V 6.7072301 c 0,-0.1402704 -0.1147664,-0.2550357 -0.2550363,-0.2550357 z"
       style="fill:#ffffff;stroke-width:0.0159397"
       id="path72" /><path
       d="m 1.6087994,1.8847837 v 0.2956216 q -0.027684,0.03065 -0.09887,0.06476 -0.071187,0.03411 -0.1873589,0.03411 -0.1433617,0 -0.2303674,-0.090466 -0.086511,-0.09096 -0.086511,-0.2590397 v -0.040042 q 0,-0.1680792 0.086511,-0.2590397 0.086511,-0.091455 0.2209747,-0.091455 0.1487996,0 0.2165256,0.068715 0.067726,0.068715 0.078602,0.1764831 H 1.4417089 q -0.00791,-0.05339 -0.035099,-0.082556 -0.027189,-0.029167 -0.0875,-0.029167 -0.062288,0 -0.099364,0.052896 -0.037076,0.052895 -0.037571,0.1601696 v 0.043997 q 0,0.1082628 0.038065,0.162147 0.038559,0.053884 0.1146894,0.053884 0.067232,0 0.1003531,-0.030155 V 2.0039222 H 1.3146608 V 1.8847837 Z M 1.894534,1.549614 V 2.2693884 H 1.7215113 V 1.549614 Z m 0.5121472,0 h 0.1735171 v 0.4701274 q 0,0.1265537 -0.077119,0.1932911 -0.077119,0.066243 -0.2051555,0.066243 -0.1270481,0 -0.2056499,-0.066243 -0.078602,-0.066737 -0.078602,-0.1932911 V 1.549614 h 0.1740114 v 0.478037 q 0.00297,0.1181498 0.1102402,0.1181498 0.05339,0 0.081074,-0.029661 0.027684,-0.029661 0.027684,-0.096398 z m 0.8710456,0.3351697 v 0.2956216 q -0.027684,0.03065 -0.09887,0.06476 -0.071187,0.03411 -0.1873589,0.03411 -0.1433616,0 -0.2303673,-0.090466 -0.086511,-0.09096 -0.086511,-0.2590397 v -0.040042 q 0,-0.1680792 0.086511,-0.2590397 0.086511,-0.091455 0.2209747,-0.091455 0.1487995,0 0.2165255,0.068715 0.067726,0.068715 0.078602,0.1764831 H 3.1106363 q -0.00791,-0.05339 -0.035099,-0.082556 -0.027189,-0.029167 -0.0875,-0.029167 -0.062288,0 -0.099365,0.052896 -0.037076,0.052895 -0.037571,0.1601696 v 0.043997 q 0,0.1082628 0.038065,0.162147 0.038559,0.053884 0.1146893,0.053884 0.067232,0 0.1003532,-0.030155 V 2.0039222 H 2.9835882 V 1.8847837 Z M 3.9801989,1.549614 V 2.2693884 H 3.8071762 L 3.5525856,1.8215068 V 2.2693884 H 3.3790686 V 1.549614 h 0.173517 L 3.8071762,1.9974956 V 1.549614 Z m 0.7187858,0.3747177 q 0,0.1651131 -0.087994,0.2600284 -0.087994,0.094915 -0.2259182,0.094915 -0.1389125,0 -0.2274013,-0.094915 -0.087994,-0.094915 -0.087994,-0.2600284 v -0.029167 q 0,-0.1651131 0.0875,-0.2600284 0.087994,-0.09541 0.2269069,-0.09541 0.1379238,0 0.2264126,0.09541 0.088489,0.094915 0.088489,0.2600284 z M 4.5229959,1.8941764 q 0,-0.1087572 -0.034604,-0.1636301 -0.034605,-0.054873 -0.104308,-0.054873 -0.1295198,0 -0.1374294,0.1927967 l -4.944e-4,0.055862 q 0,0.1057911 0.034604,0.1626414 0.035099,0.05685 0.104308,0.05685 0.065749,0 0.1013419,-0.055862 0.036088,-0.056356 0.036582,-0.160664 z"
       id="text1"
       style="font-weight:900;font-size:1.01243px;font-family:Roboto;-inkscape-font-specification:'Roboto Heavy';letter-spacing:0px;fill:#ffffff;stroke-width:0.354348;stroke-linecap:round;stroke-linejoin:round;stroke-dasharray:0.354348, 2.12609;paint-order:stroke markers fill"
       aria-label="GIUGNO" /></g></svg>
