<?xml version="1.0" encoding="UTF-8" standalone="no"?>
<!-- Created with Inkscape (http://www.inkscape.org/) -->

<svg
   width="32"
   height="32"
   viewBox="0 0 8.466666 8.4666667"
   version="1.1"
   id="svg1"
   inkscape:version="1.3.2 (1:1.3.2+202311252150+091e20ef0f)"
   sodipodi:docname="nov_logo.svg"
   xml:space="preserve"
   xmlns:inkscape="http://www.inkscape.org/namespaces/inkscape"
   xmlns:sodipodi="http://sodipodi.sourceforge.net/DTD/sodipodi-0.dtd"
   xmlns="http://www.w3.org/2000/svg"
   xmlns:svg="http://www.w3.org/2000/svg"><sodipodi:namedview
     id="namedview1"
     pagecolor="#ffffff"
     bordercolor="#000000"
     borderopacity="0.25"
     inkscape:showpageshadow="false"
     inkscape:pageopacity="0.0"
     inkscape:pagecheckerboard="0"
     inkscape:deskcolor="#d1d1d1"
     inkscape:document-units="px"
     inkscape:zoom="13.114621"
     inkscape:cx="-0.41937926"
     inkscape:cy="30.919689"
     inkscape:window-width="2518"
     inkscape:window-height="1392"
     inkscape:window-x="2594"
     inkscape:window-y="0"
     inkscape:window-maximized="1"
     inkscape:current-layer="layer1" /><defs
     id="defs1" /><g
     inkscape:label="Livello 1"
     inkscape:groupmode="layer"
     id="layer1"><path
       d="m 0.52916621,3.1750001 v 4.4979164 c 0,0.438216 0.3555344,0.7937498 0.79374999,0.7937498 h 5.8208335 c 0.4382155,0 0.7937504,-0.3555338 0.7937504,-0.7937498 V 3.1750001 Z"
       style="fill:#999999;stroke-width:0.0165364"
       id="path55"
       sodipodi:nodetypes="csssscc" /><path
       d="M 2.6458332,0 C 2.3531381,0 2.1166665,0.23647164 2.1166665,0.52916671 V 1.0583334 H 1.3229162 c -0.43821559,0 -0.79374999,0.3555342 -0.79374999,0.7937499 V 2.6458334 H 7.9375001 V 1.8520833 c 0,-0.4382157 -0.3555349,-0.7937499 -0.7937504,-0.7937499 H 6.3499999 V 0.52916671 C 6.3499999,0.23647164 6.1135284,0 5.8208335,0 5.528138,0 5.2916666,0.23647164 5.2916666,0.52916671 V 1.0583334 H 3.1749997 V 0.52916671 C 3.1749997,0.23647164 2.9385281,0 2.6458332,0 Z"
       style="fill:#d40000;stroke-width:0.0165364"
       id="path54" /><path
       d="m 1.4432535,3.8806406 c -0.1402694,0 -0.2550357,0.1147661 -0.2550357,0.255036 v 0.5100719 c 0,0.140269 0.1147663,0.2550359 0.2550357,0.2550359 h 0.5100719 c 0.1402694,0 0.2550363,-0.1147669 0.2550363,-0.2550359 V 4.1356766 c 0,-0.1402699 -0.1147669,-0.255036 -0.2550363,-0.255036 z"
       style="fill:#ffffff;stroke-width:0.0159397"
       id="path59" /><path
       d="m 3.1332835,3.8806406 c -0.1402699,0 -0.2550359,0.1147661 -0.2550359,0.255036 v 0.5100719 c 0,0.140269 0.114766,0.2550359 0.2550359,0.2550359 h 0.5100717 c 0.1402696,0 0.255036,-0.1147669 0.255036,-0.2550359 V 4.1356766 c 0,-0.1402699 -0.1147664,-0.255036 -0.255036,-0.255036 z"
       style="fill:#ffffff;stroke-width:0.0159397"
       id="path62" /><path
       d="m 4.8233135,3.8806406 c -0.1402699,0 -0.2550362,0.1147661 -0.2550362,0.255036 v 0.5100719 c 0,0.140269 0.1147663,0.2550359 0.2550362,0.2550359 H 5.333385 c 0.1402698,0 0.2550357,-0.1147669 0.2550357,-0.2550359 V 4.1356766 c 0,-0.1402699 -0.1147659,-0.255036 -0.2550357,-0.255036 z"
       style="fill:#ffffff;stroke-width:0.0159397"
       id="path63" /><path
       d="m 6.5133423,3.8806406 c -0.1402699,0 -0.2550357,0.1147661 -0.2550357,0.255036 v 0.5100719 c 0,0.140269 0.1147658,0.2550359 0.2550357,0.2550359 h 0.5100714 c 0.1402699,0 0.2550363,-0.1147669 0.2550363,-0.2550359 V 4.1356766 c 0,-0.1402699 -0.1147664,-0.255036 -0.2550363,-0.255036 z"
       style="fill:#ffffff;stroke-width:0.0159397"
       id="path64" /><path
       d="m 1.4432535,5.2190104 c -0.1402694,0 -0.2550357,0.1147658 -0.2550357,0.2550357 v 0.510072 c 0,0.1402693 0.1147663,0.2550363 0.2550357,0.2550363 h 0.5100719 c 0.1402694,0 0.2550363,-0.114767 0.2550363,-0.2550363 v -0.510072 c 0,-0.1402699 -0.1147669,-0.2550357 -0.2550363,-0.2550357 z"
       style="fill:#ffffff;stroke-width:0.0159397"
       id="path65" /><path
       d="m 3.1332835,5.2190104 c -0.1402699,0 -0.2550359,0.1147658 -0.2550359,0.2550357 v 0.510072 c 0,0.1402693 0.114766,0.2550363 0.2550359,0.2550363 h 0.5100717 c 0.1402696,0 0.255036,-0.114767 0.255036,-0.2550363 v -0.510072 c 0,-0.1402699 -0.1147664,-0.2550357 -0.255036,-0.2550357 z"
       style="fill:#ffffff;stroke-width:0.0159397"
       id="path66" /><path
       d="m 4.8233135,5.2190104 c -0.1402698,0 -0.2550361,0.1147658 -0.2550361,0.2550357 v 0.510072 c 0,0.1402693 0.1147663,0.2550363 0.2550361,0.2550363 H 5.333385 c 0.1402698,0 0.2550357,-0.114767 0.2550357,-0.2550363 v -0.510072 c 0,-0.1402699 -0.1147659,-0.2550357 -0.2550357,-0.2550357 z"
       style="fill:#ffffff;stroke-width:0.0159397;fill-opacity:1"
       id="path67" /><path
       d="m 6.5133423,5.2190104 c -0.1402699,0 -0.2550357,0.1147658 -0.2550357,0.2550357 v 0.510072 c 0,0.1402693 0.1147658,0.2550363 0.2550357,0.2550363 h 0.5100714 c 0.1402699,0 0.2550363,-0.114767 0.2550363,-0.2550363 v -0.510072 c 0,-0.1402699 -0.1147664,-0.2550357 -0.2550363,-0.2550357 z"
       style="fill:#ffffff;stroke-width:0.0159397;fill-opacity:1"
       id="path68" /><path
       d="m 1.4432535,6.4521944 c -0.1402694,0 -0.2550357,0.1147653 -0.2550357,0.2550357 v 0.5100714 c 0,0.1402694 0.1147663,0.2550368 0.2550357,0.2550368 h 0.5100719 c 0.1402694,0 0.2550363,-0.1147674 0.2550363,-0.2550368 V 6.7072301 c 0,-0.1402704 -0.1147669,-0.2550357 -0.2550363,-0.2550357 z"
       style="fill:#ffffff;stroke-width:0.0159397;fill-opacity:1"
       id="path69" /><path
       d="m 3.1332835,6.4521944 c -0.1402699,0 -0.2550359,0.1147653 -0.2550359,0.2550357 v 0.5100714 c 0,0.1402694 0.114766,0.2550368 0.2550359,0.2550368 h 0.5100717 c 0.1402696,0 0.255036,-0.1147674 0.255036,-0.2550368 V 6.7072301 c 0,-0.1402704 -0.1147664,-0.2550357 -0.255036,-0.2550357 z"
       style="fill:#ffffff;stroke-width:0.0159397;fill-opacity:1"
       id="path70" /><path
       d="m 4.8233135,6.4521944 c -0.1402698,0 -0.2550361,0.1147653 -0.2550361,0.2550357 v 0.5100714 c 0,0.1402694 0.1147663,0.2550368 0.2550361,0.2550368 H 5.333385 c 0.1402698,0 0.2550357,-0.1147674 0.2550357,-0.2550368 V 6.7072301 c 0,-0.1402704 -0.1147659,-0.2550357 -0.2550357,-0.2550357 z"
       style="fill:#d40000;stroke-width:0.0159397;fill-opacity:1"
       id="path71" /><path
       d="m 6.5133423,6.4521944 c -0.1402699,0 -0.2550357,0.1147653 -0.2550357,0.2550357 v 0.5100714 c 0,0.1402694 0.1147658,0.2550368 0.2550357,0.2550368 h 0.5100714 c 0.1402699,0 0.2550363,-0.1147674 0.2550363,-0.2550368 V 6.7072301 c 0,-0.1402704 -0.1147664,-0.2550357 -0.2550363,-0.2550357 z"
       style="fill:#ffffff;stroke-width:0.0159397"
       id="path72" /><path
       d="M 1.601768,1.549146 V 2.2693968 H 1.4286308 L 1.1738717,1.8212187 V 2.2693968 H 1.0002398 V 1.549146 H 1.1738717 L 1.4286308,1.997324 V 1.549146 Z m 0.7192615,0.3749657 q 0,0.1652224 -0.088053,0.2602005 -0.088053,0.094978 -0.2260677,0.094978 -0.1390045,0 -0.2275518,-0.094978 -0.088053,-0.094978 -0.088053,-0.2602005 v -0.029186 q 0,-0.1652223 0.087558,-0.2602005 0.088053,-0.095473 0.2270571,-0.095473 0.1380151,0 0.2265624,0.095473 0.088547,0.094978 0.088547,0.2602005 z M 2.1449242,1.8939364 q 0,-0.1088291 -0.034628,-0.1637384 -0.034627,-0.054909 -0.104377,-0.054909 -0.1296055,0 -0.1375204,0.1929243 l -4.947e-4,0.055899 q 0,0.1058611 0.034628,0.162749 0.035122,0.056888 0.104377,0.056888 0.065792,0 0.1014089,-0.055899 0.036112,-0.056393 0.036606,-0.1607702 z M 3.0170411,1.549146 2.7741543,2.2693968 H 2.5846928 L 2.34329,1.549146 H 2.536709 L 2.6796709,2.0744937 2.8226328,1.549146 Z m 0.05293,0.7202508 V 1.549146 H 3.5671227 V 1.6832037 H 3.2436035 v 0.151866 H 3.5161709 V 1.9641806 H 3.2436035 v 0.1716532 h 0.3220352 v 0.133563 z M 4.0251943,2.0502545 4.1859646,1.549146 H 4.414011 V 2.2693968 H 4.2398845 V 2.1012063 L 4.2567035,1.7569106 4.0825769,2.2693968 H 3.9678117 L 3.7936851,1.7569106 3.8105042,2.1012063 V 2.2693968 H 3.6368723 V 1.549146 h 0.2275518 z m 1.0571264,0.00594 q 0,0.105861 -0.066782,0.1592862 -0.066287,0.05293 -0.1988604,0.05392 H 4.5248189 V 1.549146 h 0.2587165 q 0.1330683,0 0.2082593,0.048973 0.075686,0.048973 0.075686,0.1498873 0,0.048973 -0.022755,0.091021 -0.022755,0.041553 -0.078654,0.062824 0.063814,0.016324 0.090031,0.060845 0.026218,0.044026 0.026218,0.093494 z M 4.6984508,1.6832037 v 0.1662117 h 0.084095 q 0.060351,0 0.085579,-0.020282 0.025723,-0.020282 0.025723,-0.060351 0,-0.0836 -0.1053664,-0.085579 z m 0.2112274,0.3705136 q 0,-0.088053 -0.085085,-0.090526 H 4.6984508 V 2.1358338 H 4.811732 q 0.05293,0 0.075191,-0.023744 0.022755,-0.024239 0.022755,-0.058372 z M 5.5730411,2.2693968 5.4459089,2.0151324 H 5.3524148 V 2.2693968 H 5.1787829 V 1.549146 h 0.2834504 q 0.1246588,0 0.1983658,0.055899 0.074202,0.055404 0.074202,0.1617596 0,0.083106 -0.034627,0.1305949 -0.034133,0.047489 -0.091021,0.074202 l 0.1498873,0.2903758 v 0.00742 z M 5.3524148,1.6832037 v 0.197871 h 0.1098185 q 0.098935,0 0.098935,-0.098441 0,-0.097946 -0.095967,-0.09943 z M 5.8396721,2.2693968 V 1.549146 H 6.3368232 V 1.6832037 H 6.013304 v 0.151866 H 6.2858714 V 1.9641806 H 6.013304 v 0.1716532 h 0.3220352 v 0.133563 z"
       id="text1"
       style="font-weight:900;font-size:1.0131px;font-family:Roboto;-inkscape-font-specification:'Roboto Heavy';letter-spacing:0px;fill:#ffffff;stroke-width:0.354585;stroke-linecap:round;stroke-linejoin:round;stroke-dasharray:0.354585, 2.12751;paint-order:stroke markers fill"
       aria-label="NOVEMBRE" /></g></svg>
