<?xml version="1.0" encoding="UTF-8" standalone="no"?>
<!-- Created with Inkscape (http://www.inkscape.org/) -->

<svg
   width="512"
   height="316"
   viewBox="0 0 135.46666 83.608333"
   version="1.1"
   id="svg1"
   inkscape:version="1.3.2 (1:1.3.2+202311252150+091e20ef0f)"
   sodipodi:docname="main_logo.svg"
   xml:space="preserve"
   xmlns:inkscape="http://www.inkscape.org/namespaces/inkscape"
   xmlns:sodipodi="http://sodipodi.sourceforge.net/DTD/sodipodi-0.dtd"
   xmlns:xlink="http://www.w3.org/1999/xlink"
   xmlns="http://www.w3.org/2000/svg"
   xmlns:svg="http://www.w3.org/2000/svg"><sodipodi:namedview
     id="namedview1"
     pagecolor="#ffffff"
     bordercolor="#000000"
     borderopacity="0.25"
     inkscape:showpageshadow="false"
     inkscape:pageopacity="0.0"
     inkscape:pagecheckerboard="0"
     inkscape:deskcolor="#d1d1d1"
     inkscape:document-units="px"
     inkscape:zoom="1.3044187"
     inkscape:cx="192.03957"
     inkscape:cy="192.8062"
     inkscape:window-width="2518"
     inkscape:window-height="1392"
     inkscape:window-x="2594"
     inkscape:window-y="0"
     inkscape:window-maximized="1"
     inkscape:current-layer="layer1" /><defs
     id="defs1"><linearGradient
       id="linearGradient2"
       inkscape:collect="always"><stop
         style="stop-color:#d40000;stop-opacity:1;"
         offset="0"
         id="stop2" /><stop
         style="stop-color:#d40000;stop-opacity:0;"
         offset="1"
         id="stop3" /></linearGradient><radialGradient
       inkscape:collect="always"
       xlink:href="#linearGradient2"
       id="radialGradient3"
       cx="67.733333"
       cy="42.30616"
       fx="67.733333"
       fy="42.30616"
       r="60.348656"
       gradientTransform="matrix(1,0,0,0.0089996,0,42.983756)"
       gradientUnits="userSpaceOnUse" /></defs><g
     inkscape:label="Livello 1"
     inkscape:groupmode="layer"
     id="layer1"><g
       id="g53"
       transform="translate(0,8.8652415)"><g
         id="g1"
         transform="matrix(3.2505259,0,0,3.2505259,5.3807977,13.190801)"><g
           id="g12"
           transform="translate(0.08731201,-0.24623825)"><rect
             style="fill:#d40000;stroke:none;stroke-width:0.740833;stroke-linecap:round;stroke-linejoin:round;stroke-dasharray:0.740833, 4.445;paint-order:stroke markers fill"
             id="rect1"
             width="6.8791666"
             height="6.8791666"
             x="0.52916664"
             y="0.5291667"
             rx="0.79374999"
             ry="0.79374999" /><path
             d="m 32.694218,1.6695172 v 4.0718827 h 0.838879 V 1.6695172 Z"
             style="font-weight:bold;font-size:8.69663px;font-family:Roboto;-inkscape-font-specification:'Roboto Bold';letter-spacing:0px;fill:#d40000;stroke-width:2.00451;stroke-linecap:round;stroke-linejoin:round;stroke-dasharray:2.00451, 12.0271;paint-order:stroke markers fill"
             id="path8" /><path
             d="m 28.848986,1.6695172 v 0.6796114 h 1.230583 v 3.3922713 h 0.83888 V 2.3491286 h 1.244536 V 1.6695172 Z"
             style="font-weight:bold;font-size:8.69663px;font-family:Roboto;-inkscape-font-specification:'Roboto Bold';letter-spacing:0px;fill:#d40000;stroke-width:2.00451;stroke-linecap:round;stroke-linejoin:round;stroke-dasharray:2.00451, 12.0271;paint-order:stroke markers fill"
             id="path7" /><path
             d="m 22.355754,1.6695172 v 4.0718827 h 2.732058 V 5.0645111 H 23.197356 V 3.9768607 H 24.80535 V 3.3197102 H 23.197356 V 2.3491286 h 1.881948 V 1.6695172 Z"
             style="font-weight:bold;font-size:8.69663px;font-family:Roboto;-inkscape-font-specification:'Roboto Bold';letter-spacing:0px;fill:#d40000;stroke-width:2.00451;stroke-linecap:round;stroke-linejoin:round;stroke-dasharray:2.00451, 12.0271;paint-order:stroke markers fill"
             id="path6" /><path
             d="m 19.673723,1.6695172 -1.515428,4.0718827 h 0.889246 l 0.2794,-0.8388793 h 1.473909 l 0.27974,0.8388793 h 0.894691 L 20.451345,1.6695172 Z m 0.391703,1.023671 0.508773,1.529721 h -1.020608 z"
             style="font-weight:bold;font-size:8.69663px;font-family:Roboto;-inkscape-font-specification:'Roboto Bold';letter-spacing:0px;fill:#d40000;stroke-width:2.00451;stroke-linecap:round;stroke-linejoin:round;stroke-dasharray:2.00451, 12.0271;paint-order:stroke markers fill"
             id="path5" /><path
             d="m 14.752071,1.6695172 v 2.6847541 c 0,0.4735361 0.14631,0.832535 0.439008,1.0767602 0.292697,0.2442254 0.667306,0.3661802 1.124063,0.3661802 0.451165,0 0.824058,-0.1219548 1.11862,-0.3661802 0.294562,-0.2442252 0.442071,-0.6032241 0.442071,-1.0767602 V 1.6695172 h -0.841942 v 2.7211679 c -0.01119,0.4865863 -0.250805,0.7296378 -0.718749,0.7296378 -0.225582,0 -0.402595,-0.060549 -0.531233,-0.1817288 C 15.657136,4.8174136 15.593672,4.6227327 15.593672,4.3542713 V 1.6695172 Z"
             style="font-weight:bold;font-size:8.69663px;font-family:Roboto;-inkscape-font-specification:'Roboto Bold';letter-spacing:0px;fill:#d40000;stroke-width:2.00451;stroke-linecap:round;stroke-linejoin:round;stroke-dasharray:2.00451, 12.0271;paint-order:stroke markers fill"
             id="path4" /><path
             d="m 35.924159,1.6137054 c -0.510823,0 -0.927454,0.1790703 -1.249981,0.5370189 -0.322527,0.3560841 -0.48393,0.8445843 -0.48393,1.4654012 v 0.1817289 c 0,0.620817 0.162261,1.1093171 0.486652,1.4654013 0.324391,0.3560842 0.741882,0.533956 1.252704,0.533956 0.510822,0 0.926597,-0.1778718 1.247259,-0.533956 0.322527,-0.3560842 0.483929,-0.8445843 0.483929,-1.4654013 V 3.6161255 c 0,-0.6208169 -0.162261,-1.1093171 -0.486652,-1.4654012 C 36.851614,1.7927757 36.434982,1.6137054 35.924159,1.6137054 Z m 0,0.6935642 c 0.281511,0 0.49969,0.1109758 0.654428,0.3328293 0.154738,0.2218534 0.232096,0.5451774 0.232096,0.9702413 v 0.2014671 c -0.0018,0.419471 -0.07922,0.7402203 -0.232096,0.9620738 -0.15101,0.2218535 -0.367472,0.3324889 -0.648983,0.3324889 -0.283376,0 -0.502412,-0.1118339 -0.65715,-0.3355517 C 35.117716,4.545236 35.040358,4.2210539 35.040358,3.7978544 V 3.5963872 c 0.0018,-0.4213352 0.07922,-0.740886 0.232096,-0.9590109 0.152873,-0.2199891 0.370193,-0.3301067 0.651705,-0.3301067 z"
             style="font-weight:bold;font-size:8.69663px;font-family:Roboto;-inkscape-font-specification:'Roboto Bold';letter-spacing:0px;fill:#d40000;stroke-width:2.00451;stroke-linecap:round;stroke-linejoin:round;stroke-dasharray:2.00451, 12.0271;paint-order:stroke markers fill"
             id="path3" /><path
             d="m 27.036803,1.6137054 c -0.439978,0 -0.800694,0.1042875 -1.082205,0.3130908 -0.281512,0.2088034 -0.421993,0.4837566 -0.421993,0.8249263 0,0.35422 0.137048,0.6274568 0.411102,0.8194813 0.261005,0.1845672 0.570435,0.335509 0.928383,0.4529608 0.359813,0.1155875 0.586055,0.2190168 0.679271,0.3103683 0.09322,0.089487 0.13987,0.2025196 0.13987,0.3386146 0,0.1305021 -0.05214,0.239421 -0.156545,0.3270438 -0.102538,0.087623 -0.261884,0.131362 -0.478145,0.131362 -0.240496,0 -0.435177,-0.050087 -0.584323,-0.15076 -0.14728,-0.1006731 -0.221205,-0.275112 -0.221205,-0.5230659 h -0.841602 c 0,0.307612 0.08113,0.5602666 0.243326,0.757884 0.162196,0.1976174 0.369054,0.3439278 0.620737,0.4390079 0.251682,0.09508 0.512742,0.1425924 0.783067,0.1425924 0.447436,0 0.805237,-0.098798 1.073698,-0.2964153 0.268461,-0.1994818 0.402934,-0.47735 0.402934,-0.8334343 0,-0.3355767 -0.114749,-0.6058986 -0.34406,-0.8109734 C 27.961667,3.6513141 27.625307,3.4809886 27.179735,3.3448936 26.916867,3.264728 26.716356,3.1798243 26.578397,3.0903371 26.440438,3.00085 26.371485,2.889016 26.371485,2.7547854 c 0,-0.1305021 0.053,-0.2414777 0.159268,-0.3328292 0.10813,-0.093216 0.272108,-0.1398699 0.492097,-0.1398699 0.225582,0 0.393673,0.055059 0.503668,0.1650533 0.109994,0.1099946 0.164713,0.2508153 0.164713,0.4223323 h 0.839219 c 0,-0.3654057 -0.136189,-0.6655727 -0.408379,-0.9004765 -0.27219,-0.236768 -0.634104,-0.35529 -1.085268,-0.35529 z"
             style="font-weight:bold;font-size:8.69663px;font-family:Roboto;-inkscape-font-specification:'Roboto Bold';letter-spacing:0px;fill:#d40000;stroke-width:2.00451;stroke-linecap:round;stroke-linejoin:round;stroke-dasharray:2.00451, 12.0271;paint-order:stroke markers fill"
             id="path2" /><path
             d="m 11.077877,0.52916666 c -0.775675,0 -1.4083245,0.27191531 -1.8980756,0.81545414 -0.4897511,0.5407078 -0.7343221,1.282487 -0.7343221,2.2251871 v 0.2759522 c 0,0.9427001 0.2463909,1.684479 0.738973,2.2251871 0.492582,0.5407079 1.1265347,0.8108032 1.9022097,0.8108032 0.164194,0 0.322552,-0.012762 0.475423,-0.03824 L 12.874149,7.9008097 13.681335,7.183024 12.662276,6.3763549 C 12.990664,6.1215711 13.247997,5.779329 13.434839,5.3490275 13.62168,4.9187259 13.714925,4.4176082 13.714925,3.8457601 V 3.5698079 c 0,-0.9427001 -0.244571,-1.6844793 -0.734322,-2.2251871 -0.489751,-0.54353883 -1.12422,-0.81545414 -1.902726,-0.81545414 z m 0,1.05316564 c 0.427471,0 0.75877,0.1685148 0.993738,0.5053956 0.234967,0.3368807 0.352433,0.8278427 0.352433,1.473295 v 0.3059245 c -0.0028,0.6369595 -0.120297,1.1240119 -0.352433,1.4608927 -0.229306,0.3368808 -0.557482,0.5048788 -0.984953,0.5048788 -0.427471,0 -0.760074,-0.1698179 -0.997872,-0.5095296 C 9.8538224,4.9806465 9.7363565,4.4883814 9.7363565,3.8457601 V 3.5398356 C 9.7391875,2.9000451 9.8566533,2.4148127 10.08879,2.0835937 10.323757,1.7495439 10.653237,1.5823323 11.077877,1.5823323 Z"
             style="font-weight:bold;font-size:8.69663px;font-family:Roboto;-inkscape-font-specification:'Roboto Bold';letter-spacing:0px;fill:#d40000;stroke-width:3.04381;stroke-linecap:round;stroke-linejoin:round;stroke-dasharray:3.04381, 18.2629;paint-order:stroke markers fill"
             id="path1" /><g
             id="g11"
             transform="matrix(0.67537816,0,0,0.67537816,-0.34820333,7.4945932)"><path
               style="fill:#ffffff;stroke-width:0.0163834"
               d="m 6.8828306,-8.4718611 c -1.0333981,-1.033398 -2.7088609,-1.033398 -3.7422589,0 -1.0333817,1.0333817 -1.0333981,2.7088445 0,3.7422589 0.940193,0.9401767 2.4103556,1.0219953 3.4464078,0.251403 L 6.9939754,-4.0712033 7.5412458,-4.6184737 7.1342499,-5.0254696 C 7.9048422,-6.0615382 7.8230236,-7.5316844 6.8828306,-8.4718611 Z M 6.4401025,-5.2589 c -0.7888762,0.7888761 -2.0679103,0.7888761 -2.8568028,0 -0.7888761,-0.7888762 -0.7888597,-2.0679102 1.64e-5,-2.8567864 0.7888761,-0.7888761 2.0679102,-0.7888761 2.8567864,0 0.7888761,0.7888762 0.7888925,2.0679102 0,2.8567864 z"
               id="path2-4" /><path
               style="fill:#ffffff;stroke-width:0.0163834"
               d="m 7.7017046,-4.7789325 -0.868188,0.868188 c -0.042531,0.042531 -0.042531,0.111489 1.64e-5,0.1540366 l 2.5306096,2.530626 c 0.042548,0.042531 0.1115053,0.042531 0.1540529,0 L 10.386384,-2.09427 c 0.04253,-0.042548 0.04253,-0.1115052 0,-0.1540529 L 7.8557576,-4.7789325 c -0.042531,-0.042548 -0.1115053,-0.042548 -0.154053,0 z"
               id="path3-8" /><rect
               x="-8.9339771"
               y="-2.7532403"
               transform="rotate(135)"
               style="fill:#666666;stroke-width:0.0163832"
               width="1.445623"
               height="0.27748269"
               id="rect3" /></g></g></g><path
         id="rect2"
         style="fill:url(#radialGradient3);stroke-width:0.477888;stroke-linecap:round;stroke-linejoin:round;stroke-dasharray:0.477888, 2.86733;paint-order:stroke markers fill"
         d="M 7.3846774,42.821381 H 128.08199 v 1.086227 H 7.3846774 Z" /><path
         d="m 114.24625,48.413064 v 0.552421 h 0.99994 v 2.756421 h 0.68213 v -2.756421 h 1.01079 v -0.552421 z"
         style="font-weight:bold;font-size:4.65407px;font-family:Roboto;-inkscape-font-specification:'Roboto Bold';letter-spacing:0px;fill:#4d4d4d;stroke-width:1.62892;stroke-linecap:round;stroke-linejoin:round;stroke-dasharray:1.62892, 9.77353;paint-order:stroke markers fill"
         id="path43" /><path
         d="m 111.22628,48.413064 v 3.308842 h 0.6842 v -2.179195 l 1.32705,2.179195 h 0.68161 v -3.308842 h -0.68161 v 2.181779 l -1.32705,-2.181779 z"
         style="font-weight:bold;font-size:4.65407px;font-family:Roboto;-inkscape-font-specification:'Roboto Bold';letter-spacing:0px;fill:#4d4d4d;stroke-width:1.62892;stroke-linecap:round;stroke-linejoin:round;stroke-dasharray:1.62892, 9.77353;paint-order:stroke markers fill"
         id="path42" /><path
         d="m 108.60835,48.413064 v 3.308842 h 2.22002 v -0.549837 h -1.53582 v -0.884184 h 1.30638 v -0.533817 h -1.30638 v -0.788583 h 1.52911 v -0.552421 z"
         style="font-weight:bold;font-size:4.65407px;font-family:Roboto;-inkscape-font-specification:'Roboto Bold';letter-spacing:0px;fill:#4d4d4d;stroke-width:1.62892;stroke-linecap:round;stroke-linejoin:round;stroke-dasharray:1.62892, 9.77353;paint-order:stroke markers fill"
         id="path41" /><path
         d="m 104.5316,48.413064 v 3.308842 h 0.6842 v -0.904337 l -0.0682,-1.554427 0.89039,2.458764 h 0.46819 l 0.8909,-2.458764 -0.0682,1.554427 v 0.904337 h 0.68419 v -3.308842 h -0.89297 l -0.84801,2.399854 -0.84749,-2.399854 z"
         style="font-weight:bold;font-size:4.65407px;font-family:Roboto;-inkscape-font-specification:'Roboto Bold';letter-spacing:0px;fill:#4d4d4d;stroke-width:1.62892;stroke-linecap:round;stroke-linejoin:round;stroke-dasharray:1.62892, 9.77353;paint-order:stroke markers fill"
         id="path40" /><path
         d="m 102.35241,48.413064 -1.23197,3.308842 h 0.72295 l 0.22686,-0.681612 h 1.19786 l 0.22738,0.681612 h 0.72709 l -1.23869,-3.308842 z m 0.31781,0.831991 0.41392,1.242818 h -0.8294 z"
         style="font-weight:bold;font-size:4.65407px;font-family:Roboto;-inkscape-font-specification:'Roboto Bold';letter-spacing:0px;fill:#4d4d4d;stroke-width:1.62892;stroke-linecap:round;stroke-linejoin:round;stroke-dasharray:1.62892, 9.77353;paint-order:stroke markers fill"
         id="path39" /><path
         d="m 98.427581,48.413064 v 3.308842 h 0.684196 v -1.213362 h 0.543119 l 0.618054,1.213362 h 0.7338 v -0.03152 l -0.71572,-1.35444 c 0.1818,-0.08181 0.32597,-0.196177 0.43202,-0.343131 0.10605,-0.146955 0.15864,-0.340441 0.15864,-0.57981 0,-0.325724 -0.10895,-0.573428 -0.32711,-0.743107 -0.21664,-0.171194 -0.51477,-0.256832 -0.895033,-0.256832 z m 0.684196,0.552421 h 0.54777 c 0.183315,0 0.318825,0.04553 0.406693,0.136426 0.0879,0.08939 0.13178,0.210271 0.13178,0.363285 0,0.14847 -0.0455,0.268252 -0.13643,0.359152 -0.08939,0.08938 -0.223273,0.134358 -0.402043,0.134358 h -0.54777 z"
         style="font-weight:bold;font-size:4.65407px;font-family:Roboto;-inkscape-font-specification:'Roboto Bold';letter-spacing:0px;fill:#4d4d4d;stroke-width:1.62892;stroke-linecap:round;stroke-linejoin:round;stroke-dasharray:1.62892, 9.77353;paint-order:stroke markers fill"
         id="path38" /><path
         d="m 95.809653,48.413064 v 3.308842 h 2.22002 v -0.549837 h -1.535824 v -0.884184 h 1.30638 v -0.533817 h -1.30638 v -0.788583 h 1.529106 v -0.552421 z"
         style="font-weight:bold;font-size:4.65407px;font-family:Roboto;-inkscape-font-specification:'Roboto Bold';letter-spacing:0px;fill:#4d4d4d;stroke-width:1.62892;stroke-linecap:round;stroke-linejoin:round;stroke-dasharray:1.62892, 9.77353;paint-order:stroke markers fill"
         id="path37" /><path
         d="m 87.469594,48.413064 v 3.308842 h 2.220019 V 51.172069 H 88.15379 v -0.884184 h 1.30638 v -0.533817 h -1.30638 v -0.788583 h 1.529106 v -0.552421 z"
         style="font-weight:bold;font-size:4.65407px;font-family:Roboto;-inkscape-font-specification:'Roboto Bold';letter-spacing:0px;fill:#4d4d4d;stroke-width:1.62892;stroke-linecap:round;stroke-linejoin:round;stroke-dasharray:1.62892, 9.77353;paint-order:stroke markers fill"
         id="path36" /><path
         d="m 84.388128,48.413064 v 0.552421 h 0.999939 v 2.756421 h 0.681613 v -2.756421 h 1.011307 v -0.552421 z"
         style="font-weight:bold;font-size:4.65407px;font-family:Roboto;-inkscape-font-specification:'Roboto Bold';letter-spacing:0px;fill:#4d4d4d;stroke-width:1.62892;stroke-linecap:round;stroke-linejoin:round;stroke-dasharray:1.62892, 9.77353;paint-order:stroke markers fill"
         id="path35" /><path
         d="m 81.047764,48.413064 v 3.308842 h 2.129069 v -0.549837 h -1.44539 v -2.759005 z"
         style="font-weight:bold;font-size:4.65407px;font-family:Roboto;-inkscape-font-specification:'Roboto Bold';letter-spacing:0px;fill:#4d4d4d;stroke-width:1.62892;stroke-linecap:round;stroke-linejoin:round;stroke-dasharray:1.62892, 9.77353;paint-order:stroke markers fill"
         id="path34" /><path
         d="m 78.429836,48.413064 v 3.308842 h 2.220019 v -0.549837 h -1.53634 v -0.884184 h 1.306897 v -0.533817 h -1.306897 v -0.788583 h 1.529623 v -0.552421 z"
         style="font-weight:bold;font-size:4.65407px;font-family:Roboto;-inkscape-font-specification:'Roboto Bold';letter-spacing:0px;fill:#4d4d4d;stroke-width:1.62892;stroke-linecap:round;stroke-linejoin:round;stroke-dasharray:1.62892, 9.77353;paint-order:stroke markers fill"
         id="path33" /><path
         d="m 75.402631,48.413064 v 3.308842 h 1.011307 c 0.451469,0 0.817334,-0.144718 1.097608,-0.434082 0.281789,-0.290879 0.422713,-0.672471 0.422713,-1.14515 V 49.99488 c 0,-0.472678 -0.140924,-0.854271 -0.422713,-1.14515 -0.280274,-0.290879 -0.642897,-0.436666 -1.088306,-0.436666 z m 0.684196,0.552421 h 0.356567 c 0.26664,0.0045 0.466092,0.09236 0.597896,0.26355 0.133319,0.171195 0.199988,0.424865 0.199988,0.761194 v 0.172599 c -0.003,0.324209 -0.07511,0.573534 -0.216007,0.747758 -0.13938,0.174225 -0.343178,0.261483 -0.611333,0.261483 h -0.327111 z"
         style="font-weight:bold;font-size:4.65407px;font-family:Roboto;-inkscape-font-specification:'Roboto Bold';letter-spacing:0px;fill:#4d4d4d;stroke-width:1.62892;stroke-linecap:round;stroke-linejoin:round;stroke-dasharray:1.62892, 9.77353;paint-order:stroke markers fill"
         id="path32" /><path
         d="m 68.655756,48.413064 v 3.308842 h 2.129069 v -0.549837 h -1.44539 v -2.759005 z"
         style="font-weight:bold;font-size:4.65407px;font-family:Roboto;-inkscape-font-specification:'Roboto Bold';letter-spacing:0px;fill:#4d4d4d;stroke-width:1.62892;stroke-linecap:round;stroke-linejoin:round;stroke-dasharray:1.62892, 9.77353;paint-order:stroke markers fill"
         id="path31" /><path
         d="m 66.135496,48.413064 v 3.308842 h 2.129069 v -0.549837 h -1.444873 v -2.759005 z"
         style="font-weight:bold;font-size:4.65407px;font-family:Roboto;-inkscape-font-specification:'Roboto Bold';letter-spacing:0px;fill:#4d4d4d;stroke-width:1.62892;stroke-linecap:round;stroke-linejoin:round;stroke-dasharray:1.62892, 9.77353;paint-order:stroke markers fill"
         id="path30" /><path
         d="m 59.951895,48.413064 v 3.308842 h 0.684196 v -1.213362 h 0.543119 l 0.61805,1.213362 h 0.733805 v -0.03152 l -0.715718,-1.35444 c 0.181799,-0.08181 0.325965,-0.196177 0.432015,-0.343131 0.106049,-0.146955 0.159163,-0.340441 0.159163,-0.57981 0,-0.325724 -0.109469,-0.573428 -0.327629,-0.743107 -0.216644,-0.171194 -0.514772,-0.256832 -0.895035,-0.256832 z m 0.684196,0.552421 h 0.54777 c 0.183314,0 0.318823,0.04553 0.406693,0.136426 0.08787,0.08939 0.131775,0.210271 0.131775,0.363285 0,0.14847 -0.04553,0.268252 -0.136426,0.359152 -0.08939,0.08938 -0.223273,0.134358 -0.402042,0.134358 h -0.54777 z"
         style="font-weight:bold;font-size:4.65407px;font-family:Roboto;-inkscape-font-specification:'Roboto Bold';letter-spacing:0px;fill:#4d4d4d;stroke-width:1.62892;stroke-linecap:round;stroke-linejoin:round;stroke-dasharray:1.62892, 9.77353;paint-order:stroke markers fill"
         id="path29" /><path
         d="m 56.870429,48.413064 v 0.552421 h 0.999939 v 2.756421 h 0.681612 v -2.756421 h 1.011308 v -0.552421 z"
         style="font-weight:bold;font-size:4.65407px;font-family:Roboto;-inkscape-font-specification:'Roboto Bold';letter-spacing:0px;fill:#4d4d4d;stroke-width:1.62892;stroke-linecap:round;stroke-linejoin:round;stroke-dasharray:1.62892, 9.77353;paint-order:stroke markers fill"
         id="path28" /><path
         d="m 53.850458,48.413064 v 3.308842 h 0.68368 v -2.179195 l 1.327567,2.179195 h 0.681612 v -3.308842 h -0.681612 v 2.181779 l -1.327567,-2.181779 z"
         style="font-weight:bold;font-size:4.65407px;font-family:Roboto;-inkscape-font-specification:'Roboto Bold';letter-spacing:0px;fill:#4d4d4d;stroke-width:1.62892;stroke-linecap:round;stroke-linejoin:round;stroke-dasharray:1.62892, 9.77353;paint-order:stroke markers fill"
         id="path27" /><path
         d="m 43.812828,48.413064 v 3.308842 h 2.22002 v -0.549837 h -1.53634 v -0.884184 h 1.306897 v -0.533817 h -1.306897 v -0.788583 h 1.529622 v -0.552421 z"
         style="font-weight:bold;font-size:4.65407px;font-family:Roboto;-inkscape-font-specification:'Roboto Bold';letter-spacing:0px;fill:#4d4d4d;stroke-width:1.62892;stroke-linecap:round;stroke-linejoin:round;stroke-dasharray:1.62892, 9.77353;paint-order:stroke markers fill"
         id="path26" /><path
         d="m 40.474531,48.413064 -1.231966,3.308842 h 0.722953 l 0.227376,-0.681612 h 1.197343 l 0.227377,0.681612 h 0.727087 l -1.238684,-3.308842 z m 0.31781,0.831991 0.413928,1.242818 h -0.829406 z"
         style="font-weight:bold;font-size:4.65407px;font-family:Roboto;-inkscape-font-specification:'Roboto Bold';letter-spacing:0px;fill:#4d4d4d;stroke-width:1.62892;stroke-linecap:round;stroke-linejoin:round;stroke-dasharray:1.62892, 9.77353;paint-order:stroke markers fill"
         id="path25" /><path
         d="m 35.157026,48.413064 v 3.308842 h 0.681612 v -3.308842 z"
         style="font-weight:bold;font-size:4.65407px;font-family:Roboto;-inkscape-font-specification:'Roboto Bold';letter-spacing:0px;fill:#4d4d4d;stroke-width:1.62892;stroke-linecap:round;stroke-linejoin:round;stroke-dasharray:1.62892, 9.77353;paint-order:stroke markers fill"
         id="path24" /><path
         d="m 32.032152,48.413064 v 0.552421 h 0.999939 v 2.756421 h 0.681613 v -2.756421 h 1.011307 v -0.552421 z"
         style="font-weight:bold;font-size:4.65407px;font-family:Roboto;-inkscape-font-specification:'Roboto Bold';letter-spacing:0px;fill:#4d4d4d;stroke-width:1.62892;stroke-linecap:round;stroke-linejoin:round;stroke-dasharray:1.62892, 9.77353;paint-order:stroke markers fill"
         id="path23" /><path
         d="m 28.057718,48.413064 v 3.308842 h 0.681612 v -3.308842 z"
         style="font-weight:bold;font-size:4.65407px;font-family:Roboto;-inkscape-font-specification:'Roboto Bold';letter-spacing:0px;fill:#4d4d4d;stroke-width:1.62892;stroke-linecap:round;stroke-linejoin:round;stroke-dasharray:1.62892, 9.77353;paint-order:stroke markers fill"
         id="path22" /><path
         d="m 24.932844,48.413064 v 0.552421 h 0.999939 v 2.756421 h 0.681612 v -2.756421 h 1.011308 v -0.552421 z"
         style="font-weight:bold;font-size:4.65407px;font-family:Roboto;-inkscape-font-specification:'Roboto Bold';letter-spacing:0px;fill:#4d4d4d;stroke-width:1.62892;stroke-linecap:round;stroke-linejoin:round;stroke-dasharray:1.62892, 9.77353;paint-order:stroke markers fill"
         id="path21" /><path
         d="m 23.228556,48.413064 -1.231966,3.308842 h 0.722953 l 0.227376,-0.681612 h 1.197343 l 0.227376,0.681612 h 0.727088 l -1.238684,-3.308842 z m 0.318327,0.831991 0.413411,1.242818 h -0.829407 z"
         style="font-weight:bold;font-size:4.65407px;font-family:Roboto;-inkscape-font-specification:'Roboto Bold';letter-spacing:0px;fill:#4d4d4d;stroke-width:1.62892;stroke-linecap:round;stroke-linejoin:round;stroke-dasharray:1.62892, 9.77353;paint-order:stroke markers fill"
         id="path20" /><path
         d="m 19.465478,48.413064 v 0.552421 H 20.4649 v 2.756421 h 0.682129 v -2.756421 h 1.011308 v -0.552421 z"
         style="font-weight:bold;font-size:4.65407px;font-family:Roboto;-inkscape-font-specification:'Roboto Bold';letter-spacing:0px;fill:#4d4d4d;stroke-width:1.62892;stroke-linecap:round;stroke-linejoin:round;stroke-dasharray:1.62892, 9.77353;paint-order:stroke markers fill"
         id="path19" /><path
         d="m 118.57312,48.367589 c -0.41511,0 -0.75335,0.145787 -1.01544,0.436666 -0.26209,0.289364 -0.39326,0.686131 -0.39326,1.190625 v 0.147794 c 0,0.504494 0.13171,0.901261 0.39533,1.190625 0.2636,0.289364 0.60292,0.434082 1.01802,0.434082 0.41511,0 0.7528,-0.144718 1.01338,-0.434082 0.26209,-0.289364 0.39325,-0.686131 0.39325,-1.190625 V 49.99488 c 0,-0.504494 -0.13171,-0.901261 -0.39532,-1.190625 -0.26209,-0.290879 -0.60085,-0.436666 -1.01596,-0.436666 z m 0,0.56379 c 0.22877,0 0.40601,0.08998 0.53175,0.270268 0.12575,0.180284 0.18862,0.443163 0.18862,0.788582 v 0.163814 c -0.002,0.340874 -0.0644,0.60158 -0.18862,0.781865 -0.12271,0.180284 -0.29833,0.270267 -0.5271,0.270267 -0.23028,0 -0.40808,-0.09105 -0.53382,-0.272851 -0.12574,-0.183315 -0.18861,-0.446745 -0.18861,-0.79065 V 49.97886 c 0.002,-0.342389 0.0644,-0.602026 0.18861,-0.77928 0.12423,-0.17877 0.3004,-0.268201 0.52917,-0.268201 z"
         style="font-weight:bold;font-size:4.65407px;font-family:Roboto;-inkscape-font-specification:'Roboto Bold';letter-spacing:0px;fill:#4d4d4d;stroke-width:1.62892;stroke-linecap:round;stroke-linejoin:round;stroke-dasharray:1.62892, 9.77353;paint-order:stroke markers fill"
         id="path18" /><path
         d="m 94.13482,48.367589 c -0.357539,0 -0.650768,0.08509 -0.879533,0.254765 -0.228764,0.16968 -0.343131,0.392999 -0.343131,0.670243 0,0.287849 0.111642,0.510065 0.334346,0.666109 0.2121,0.149985 0.463597,0.272491 0.754476,0.367937 0.292394,0.09393 0.476154,0.177946 0.551904,0.252181 0.07575,0.07272 0.113689,0.164324 0.113689,0.274918 0,0.10605 -0.04229,0.194929 -0.127124,0.266134 -0.08333,0.0712 -0.212867,0.10697 -0.388607,0.10697 -0.195434,0 -0.353707,-0.04118 -0.474907,-0.12299 -0.119684,-0.08181 -0.179834,-0.223286 -0.179834,-0.42478 H 92.81242 c 0,0.249974 0.0656,0.454877 0.197404,0.615466 0.131805,0.16059 0.300354,0.27982 0.504879,0.357084 0.204524,0.07726 0.416463,0.115755 0.636137,0.115755 0.363599,0 0.654655,-0.08022 0.872815,-0.240812 0.218159,-0.162104 0.327112,-0.387597 0.327112,-0.676961 0,-0.272699 -0.09323,-0.492742 -0.27957,-0.659391 -0.184829,-0.16665 -0.458537,-0.305401 -0.820622,-0.415996 -0.213614,-0.06514 -0.376233,-0.133985 -0.488342,-0.206705 -0.11211,-0.07272 -0.168465,-0.163256 -0.168465,-0.272335 0,-0.10605 0.04335,-0.19655 0.129708,-0.270785 0.08787,-0.07575 0.221206,-0.113688 0.399975,-0.113688 0.183315,0 0.319892,0.04497 0.409278,0.134359 0.08938,0.08939 0.133842,0.203752 0.133842,0.343132 h 0.681612 c 0,-0.296939 -0.110574,-0.54085 -0.331763,-0.731739 -0.221189,-0.192404 -0.514971,-0.288871 -0.8816,-0.288871 z"
         style="font-weight:bold;font-size:4.65407px;font-family:Roboto;-inkscape-font-specification:'Roboto Bold';letter-spacing:0px;fill:#4d4d4d;stroke-width:1.62892;stroke-linecap:round;stroke-linejoin:round;stroke-dasharray:1.62892, 9.77353;paint-order:stroke markers fill"
         id="path17" /><path
         d="m 91.274013,48.367589 c -0.357539,0 -0.650769,0.08509 -0.879533,0.254765 -0.228764,0.16968 -0.343131,0.392999 -0.343131,0.670243 0,0.287849 0.111125,0.510065 0.333829,0.666109 0.212099,0.149985 0.463597,0.272491 0.754476,0.367937 0.292395,0.09393 0.476672,0.177946 0.552421,0.252181 0.07575,0.07272 0.113688,0.164324 0.113688,0.274918 0,0.10605 -0.0428,0.194929 -0.12764,0.266134 -0.08333,0.0712 -0.212868,0.10697 -0.388607,0.10697 -0.195435,0 -0.353707,-0.04118 -0.474907,-0.12299 -0.119684,-0.08181 -0.179317,-0.223286 -0.179317,-0.42478 h -0.684196 c 0,0.249974 0.06612,0.454877 0.197921,0.615466 0.131805,0.16059 0.299837,0.27982 0.504362,0.357084 0.204524,0.07726 0.416462,0.115755 0.636137,0.115755 0.363598,0 0.654655,-0.08022 0.872815,-0.240812 0.218159,-0.162104 0.327112,-0.387597 0.327112,-0.676961 0,-0.272699 -0.09322,-0.492742 -0.27957,-0.659391 -0.184829,-0.16665 -0.458021,-0.305401 -0.820105,-0.415996 -0.213614,-0.06514 -0.376749,-0.133985 -0.488859,-0.206705 -0.11211,-0.07272 -0.167948,-0.163256 -0.167948,-0.272335 0,-0.10605 0.04335,-0.19655 0.129707,-0.270785 0.08787,-0.07575 0.221206,-0.113688 0.399976,-0.113688 0.183315,0 0.319376,0.04497 0.408761,0.134359 0.08938,0.08939 0.134358,0.203752 0.134358,0.343132 h 0.681612 c 0,-0.296939 -0.110572,-0.54085 -0.331762,-0.731739 -0.221189,-0.192404 -0.514971,-0.288871 -0.8816,-0.288871 z"
         style="font-weight:bold;font-size:4.65407px;font-family:Roboto;-inkscape-font-specification:'Roboto Bold';letter-spacing:0px;fill:#4d4d4d;stroke-width:1.62892;stroke-linecap:round;stroke-linejoin:round;stroke-dasharray:1.62892, 9.77353;paint-order:stroke markers fill"
         id="path16" /><path
         d="m 72.339252,48.367589 c -0.415109,0 -0.753348,0.145787 -1.015442,0.436666 -0.262094,0.289364 -0.393258,0.686131 -0.393258,1.190625 v 0.147794 c 0,0.504494 0.131716,0.901261 0.395325,1.190625 0.263609,0.289364 0.602917,0.434082 1.018026,0.434082 0.415108,0 0.752795,-0.144718 1.013375,-0.434082 0.262093,-0.289364 0.393257,-0.686131 0.393257,-1.190625 V 49.99488 c 0,-0.504494 -0.131715,-0.901261 -0.395325,-1.190625 -0.262094,-0.290879 -0.60085,-0.436666 -1.015958,-0.436666 z m 0,0.56379 c 0.228764,0 0.406006,0.08998 0.53175,0.270268 0.125745,0.180284 0.188619,0.443163 0.188619,0.788582 v 0.163814 c -0.0015,0.340874 -0.06439,0.60158 -0.188619,0.781865 -0.122714,0.180284 -0.298335,0.270267 -0.527099,0.270267 -0.230279,0 -0.408073,-0.09105 -0.533818,-0.272851 -0.125744,-0.183315 -0.188619,-0.446745 -0.188619,-0.79065 V 49.97886 c 0.0015,-0.342389 0.06439,-0.602026 0.188619,-0.77928 0.12423,-0.17877 0.300402,-0.268201 0.529167,-0.268201 z"
         style="font-weight:bold;font-size:4.65407px;font-family:Roboto;-inkscape-font-specification:'Roboto Bold';letter-spacing:0px;fill:#4d4d4d;stroke-width:1.62892;stroke-linecap:round;stroke-linejoin:round;stroke-dasharray:1.62892, 9.77353;paint-order:stroke markers fill"
         id="path15" /><path
         d="m 64.23122,48.367589 c -0.415109,0 -0.753865,0.145787 -1.015959,0.436666 -0.262094,0.289364 -0.393257,0.686131 -0.393257,1.190625 v 0.147794 c 0,0.504494 0.131715,0.901261 0.395324,1.190625 0.263609,0.289364 0.603434,0.434082 1.018543,0.434082 0.415108,0 0.752795,-0.144718 1.013374,-0.434082 0.262094,-0.289364 0.393258,-0.686131 0.393258,-1.190625 V 49.99488 c 0,-0.504494 -0.132232,-0.901261 -0.395841,-1.190625 -0.262094,-0.290879 -0.600333,-0.436666 -1.015442,-0.436666 z m 0,0.56379 c 0.228764,0 0.406006,0.08998 0.53175,0.270268 0.125745,0.180284 0.188619,0.443163 0.188619,0.788582 v 0.163814 c -0.0015,0.340874 -0.06439,0.60158 -0.188619,0.781865 -0.122714,0.180284 -0.298335,0.270267 -0.527099,0.270267 -0.230279,0 -0.40859,-0.09105 -0.534335,-0.272851 -0.125745,-0.183315 -0.188619,-0.446745 -0.188619,-0.79065 V 49.97886 c 0.0015,-0.342389 0.06439,-0.602026 0.188619,-0.77928 0.12423,-0.17877 0.300919,-0.268201 0.529684,-0.268201 z"
         style="font-weight:bold;font-size:4.65407px;font-family:Roboto;-inkscape-font-specification:'Roboto Bold';letter-spacing:0px;fill:#4d4d4d;stroke-width:1.62892;stroke-linecap:round;stroke-linejoin:round;stroke-dasharray:1.62892, 9.77353;paint-order:stroke markers fill"
         id="path14" /><path
         d="m 51.946182,48.367589 c -0.415108,0 -0.753864,0.145787 -1.015959,0.436666 -0.262094,0.289364 -0.393257,0.686131 -0.393257,1.190625 v 0.147794 c 0,0.504494 0.131715,0.901261 0.395324,1.190625 0.26361,0.289364 0.602918,0.434082 1.018026,0.434082 0.415109,0 0.753313,-0.144718 1.013892,-0.434082 0.262094,-0.289364 0.393257,-0.686131 0.393257,-1.190625 V 49.99488 c 0,-0.504494 -0.132232,-0.901261 -0.395841,-1.190625 -0.262094,-0.290879 -0.600333,-0.436666 -1.015442,-0.436666 z m 0,0.56379 c 0.228764,0 0.406006,0.08998 0.53175,0.270268 0.125745,0.180284 0.188619,0.443163 0.188619,0.788582 v 0.163814 c -0.0015,0.340874 -0.06439,0.60158 -0.188619,0.781865 -0.122714,0.180284 -0.298852,0.270267 -0.527616,0.270267 -0.230279,0 -0.408073,-0.09105 -0.533818,-0.272851 -0.125744,-0.183315 -0.188619,-0.446745 -0.188619,-0.79065 V 49.97886 c 0.0015,-0.342389 0.06439,-0.602026 0.188619,-0.77928 0.12423,-0.17877 0.300919,-0.268201 0.529684,-0.268201 z"
         style="font-weight:bold;font-size:4.65407px;font-family:Roboto;-inkscape-font-specification:'Roboto Bold';letter-spacing:0px;fill:#4d4d4d;stroke-width:1.62892;stroke-linecap:round;stroke-linejoin:round;stroke-dasharray:1.62892, 9.77353;paint-order:stroke markers fill"
         id="path13" /><path
         d="m 30.559374,48.367589 c -0.357539,0 -0.650768,0.08509 -0.879533,0.254765 -0.228764,0.16968 -0.343131,0.392999 -0.343131,0.670243 0,0.287849 0.111642,0.510065 0.334346,0.666109 0.212099,0.149985 0.463597,0.272491 0.754476,0.367937 0.292394,0.09393 0.476155,0.177946 0.551905,0.252181 0.07575,0.07272 0.113688,0.164324 0.113688,0.274918 0,0.10605 -0.04228,0.194929 -0.127124,0.266134 -0.08332,0.0712 -0.212867,0.10697 -0.388607,0.10697 -0.195435,0 -0.353707,-0.04118 -0.474907,-0.12299 -0.119684,-0.08181 -0.179317,-0.223286 -0.179317,-0.42478 h -0.684196 c 0,0.249974 0.06612,0.454877 0.197921,0.615466 0.131805,0.16059 0.299838,0.27982 0.504362,0.357084 0.204524,0.07726 0.416462,0.115755 0.636137,0.115755 0.363599,0 0.654656,-0.08022 0.872815,-0.240812 0.21816,-0.162104 0.327112,-0.387597 0.327112,-0.676961 0,-0.272699 -0.09323,-0.492742 -0.27957,-0.659391 -0.18483,-0.16665 -0.458021,-0.305401 -0.820105,-0.415996 -0.213614,-0.06514 -0.37675,-0.133985 -0.488859,-0.206705 -0.11211,-0.07272 -0.167948,-0.163256 -0.167948,-0.272335 0,-0.10605 0.04284,-0.19655 0.129191,-0.270785 0.08787,-0.07575 0.221206,-0.113688 0.399975,-0.113688 0.183315,0 0.319893,0.04497 0.409278,0.134359 0.08939,0.08939 0.133842,0.203752 0.133842,0.343132 h 0.682129 c 0,-0.296939 -0.110574,-0.54085 -0.331763,-0.731739 -0.221189,-0.192404 -0.515488,-0.288871 -0.882117,-0.288871 z"
         style="font-weight:bold;font-size:4.65407px;font-family:Roboto;-inkscape-font-specification:'Roboto Bold';letter-spacing:0px;fill:#4d4d4d;stroke-width:1.62892;stroke-linecap:round;stroke-linejoin:round;stroke-dasharray:1.62892, 9.77353;paint-order:stroke markers fill"
         id="path12" /><path
         d="m 17.9927,48.367589 c -0.357539,0 -0.650769,0.08509 -0.879533,0.254765 -0.228765,0.16968 -0.343132,0.392999 -0.343132,0.670243 0,0.287849 0.111126,0.510065 0.33383,0.666109 0.212099,0.149985 0.463597,0.272491 0.754476,0.367937 0.292394,0.09393 0.476672,0.177946 0.552421,0.252181 0.07575,0.07272 0.113688,0.164324 0.113688,0.274918 0,0.10605 -0.04229,0.194929 -0.127124,0.266134 -0.08332,0.0712 -0.212867,0.10697 -0.388607,0.10697 -0.195434,0 -0.353706,-0.04118 -0.474906,-0.12299 -0.119685,-0.08181 -0.179834,-0.223286 -0.179834,-0.42478 H 16.6703 c 0,0.249974 0.0656,0.454877 0.197404,0.615466 0.131804,0.16059 0.299837,0.27982 0.504362,0.357084 0.204524,0.07726 0.416979,0.115755 0.636653,0.115755 0.363599,0 0.654139,-0.08022 0.872299,-0.240812 0.218159,-0.162104 0.327628,-0.387597 0.327628,-0.676961 0,-0.272699 -0.09323,-0.492742 -0.279569,-0.659391 -0.18483,-0.16665 -0.458538,-0.305401 -0.820622,-0.415996 -0.213615,-0.06514 -0.376232,-0.133985 -0.488342,-0.206705 -0.11211,-0.07272 -0.168466,-0.163256 -0.168466,-0.272335 0,-0.10605 0.04335,-0.19655 0.129708,-0.270785 0.08787,-0.07575 0.221206,-0.113688 0.399976,-0.113688 0.183314,0 0.319376,0.04497 0.40876,0.134359 0.08938,0.08939 0.134359,0.203752 0.134359,0.343132 h 0.681612 c 0,-0.296939 -0.110573,-0.54085 -0.331762,-0.731739 -0.221189,-0.192404 -0.514971,-0.288871 -0.8816,-0.288871 z"
         style="font-weight:bold;font-size:4.65407px;font-family:Roboto;-inkscape-font-specification:'Roboto Bold';letter-spacing:0px;fill:#4d4d4d;stroke-width:1.62892;stroke-linecap:round;stroke-linejoin:round;stroke-dasharray:1.62892, 9.77353;paint-order:stroke markers fill"
         id="path11" /><path
         d="m 48.864716,48.365522 c -0.416623,0 -0.749964,0.144166 -0.999939,0.432015 -0.249973,0.286334 -0.375171,0.673893 -0.375171,1.163236 v 0.216008 c 0,0.489343 0.121956,0.876903 0.36587,1.163236 0.243914,0.284819 0.577807,0.427364 1.002006,0.427364 0.406018,0 0.723632,-0.10678 0.952396,-0.320393 0.230278,-0.21513 0.356579,-0.491011 0.379305,-0.82734 h -0.681612 c -0.01666,0.19695 -0.07574,0.344909 -0.17725,0.443384 -0.09999,0.09696 -0.25771,0.14521 -0.472839,0.14521 -0.2424,0 -0.415847,-0.08619 -0.520382,-0.258898 -0.103019,-0.17271 -0.154513,-0.430174 -0.154513,-0.772563 v -0.272852 c 0.01212,-0.652962 0.239751,-0.979268 0.682129,-0.979268 0.225735,0 0.385111,0.05311 0.479041,0.159163 0.09545,0.104535 0.150735,0.25522 0.165881,0.452169 h 0.682129 c -0.03182,-0.339359 -0.157563,-0.619035 -0.377238,-0.838708 -0.219674,-0.22119 -0.536219,-0.331763 -0.949813,-0.331763 z"
         style="font-weight:bold;font-size:4.65407px;font-family:Roboto;-inkscape-font-specification:'Roboto Bold';letter-spacing:0px;fill:#4d4d4d;stroke-width:1.62892;stroke-linecap:round;stroke-linejoin:round;stroke-dasharray:1.62892, 9.77353;paint-order:stroke markers fill"
         id="path10" /><path
         d="m 37.747566,48.365522 c -0.416624,0 -0.749965,0.144166 -0.999939,0.432015 -0.249975,0.286334 -0.375171,0.673893 -0.375171,1.163236 v 0.216008 c 0,0.489343 0.121955,0.876903 0.365869,1.163236 0.243914,0.284819 0.578325,0.427364 1.002523,0.427364 0.406019,0 0.723115,-0.10678 0.95188,-0.320393 0.230277,-0.21513 0.357095,-0.491011 0.379821,-0.82734 h -0.682128 c -0.01667,0.19695 -0.07575,0.344909 -0.177251,0.443384 -0.09999,0.09696 -0.257192,0.14521 -0.472322,0.14521 -0.242399,0 -0.415847,-0.08619 -0.520382,-0.258898 -0.10302,-0.17271 -0.154512,-0.430174 -0.154512,-0.772563 v -0.272852 c 0.01212,-0.652962 0.239233,-0.979268 0.681612,-0.979268 0.225734,0 0.385627,0.05311 0.479557,0.159163 0.09544,0.104535 0.150728,0.25522 0.165881,0.452169 h 0.681612 c -0.03182,-0.339359 -0.157564,-0.619035 -0.377237,-0.838708 -0.219675,-0.22119 -0.53622,-0.331763 -0.949813,-0.331763 z"
         style="font-weight:bold;font-size:4.65407px;font-family:Roboto;-inkscape-font-specification:'Roboto Bold';letter-spacing:0px;fill:#4d4d4d;stroke-width:1.62892;stroke-linecap:round;stroke-linejoin:round;stroke-dasharray:1.62892, 9.77353;paint-order:stroke markers fill"
         id="path9" /></g></g></svg>
