<?xml version="1.0" encoding="UTF-8" standalone="no"?>
<!-- Created with Inkscape (http://www.inkscape.org/) -->

<svg
   width="32"
   height="32"
   viewBox="0 0 8.466666 8.4666667"
   version="1.1"
   id="svg1"
   inkscape:version="1.3.2 (1:1.3.2+202311252150+091e20ef0f)"
   sodipodi:docname="jan_logo.svg"
   xml:space="preserve"
   xmlns:inkscape="http://www.inkscape.org/namespaces/inkscape"
   xmlns:sodipodi="http://sodipodi.sourceforge.net/DTD/sodipodi-0.dtd"
   xmlns="http://www.w3.org/2000/svg"
   xmlns:svg="http://www.w3.org/2000/svg"><sodipodi:namedview
     id="namedview1"
     pagecolor="#ffffff"
     bordercolor="#000000"
     borderopacity="0.25"
     inkscape:showpageshadow="false"
     inkscape:pageopacity="0.0"
     inkscape:pagecheckerboard="0"
     inkscape:deskcolor="#d1d1d1"
     inkscape:document-units="px"
     inkscape:zoom="3.6894531"
     inkscape:cx="172.51879"
     inkscape:cy="110.99206"
     inkscape:window-width="2518"
     inkscape:window-height="1392"
     inkscape:window-x="2594"
     inkscape:window-y="0"
     inkscape:window-maximized="1"
     inkscape:current-layer="layer1" /><defs
     id="defs1" /><g
     inkscape:label="Livello 1"
     inkscape:groupmode="layer"
     id="layer1"><g
       id="g81"
       transform="matrix(0.53333333,0,0,0.53333333,-0.31750034,-0.28222214)"><path
         d="m 1.5874998,6.4822917 v 8.4335933 c 0,0.821655 0.666627,1.488281 1.4882812,1.488281 h 10.914063 c 0.821654,0 1.488282,-0.666626 1.488282,-1.488281 V 6.4822917 Z"
         style="fill:#999999;stroke-width:0.0310058"
         id="path55"
         sodipodi:nodetypes="csssscc" /><path
         d="m 5.5562504,0.52916653 c -0.5488033,0 -0.9921876,0.44338431 -0.9921876,0.99218757 V 2.5135416 H 3.075781 c -0.8216542,0 -1.4882812,0.6666266 -1.4882812,1.4882812 V 5.4901042 H 15.478126 V 4.0018228 c 0,-0.8216546 -0.666628,-1.4882812 -1.488282,-1.4882812 H 12.501563 V 1.5213541 c 0,-0.54880326 -0.443384,-0.99218757 -0.992187,-0.99218757 -0.548804,0 -0.992188,0.44338431 -0.992188,0.99218757 V 2.5135416 H 6.5484377 V 1.5213541 c 0,-0.54880326 -0.4433843,-0.99218757 -0.9921873,-0.99218757 z"
         style="fill:#d40000;stroke-width:0.0310058"
         id="path54" /><path
         d="m 3.3014134,7.8053677 c -0.263005,0 -0.4781918,0.2151864 -0.4781918,0.4781924 V 9.239945 c 0,0.2630043 0.2151868,0.4781923 0.4781918,0.4781923 h 0.9563849 c 0.2630051,0 0.478193,-0.215188 0.478193,-0.4781923 V 8.2835601 c 0,-0.263006 -0.2151879,-0.4781924 -0.478193,-0.4781924 z"
         style="fill:#d40000;stroke-width:0.029887"
         id="path59" /><path
         d="m 6.4702198,7.8053677 c -0.2630061,0 -0.4781924,0.2151864 -0.4781924,0.4781924 V 9.239945 c 0,0.2630043 0.2151863,0.4781923 0.4781924,0.4781923 h 0.9563844 c 0.2630055,0 0.4781925,-0.215188 0.4781925,-0.4781923 V 8.2835601 c 0,-0.263006 -0.215187,-0.4781924 -0.4781925,-0.4781924 z"
         style="fill:#ffffff;stroke-width:0.029887"
         id="path62" /><path
         d="m 9.639026,7.8053677 c -0.2630061,0 -0.4781929,0.2151864 -0.4781929,0.4781924 V 9.239945 c 0,0.2630043 0.2151868,0.4781923 0.4781929,0.4781923 h 0.956384 c 0.263006,0 0.478192,-0.215188 0.478192,-0.4781923 V 8.2835601 c 0,-0.263006 -0.215186,-0.4781924 -0.478192,-0.4781924 z"
         style="fill:#ffffff;stroke-width:0.029887"
         id="path63" /><path
         d="m 12.80783,7.8053677 c -0.263006,0 -0.478192,0.2151864 -0.478192,0.4781924 V 9.239945 c 0,0.2630043 0.215186,0.4781923 0.478192,0.4781923 h 0.956384 c 0.263006,0 0.478193,-0.215188 0.478193,-0.4781923 V 8.2835601 c 0,-0.263006 -0.215187,-0.4781924 -0.478193,-0.4781924 z"
         style="fill:#ffffff;stroke-width:0.029887"
         id="path64" /><path
         d="m 3.3014134,10.314811 c -0.263005,0 -0.4781918,0.215186 -0.4781918,0.478192 v 0.956385 c 0,0.263005 0.2151868,0.478193 0.4781918,0.478193 h 0.9563849 c 0.2630051,0 0.478193,-0.215188 0.478193,-0.478193 v -0.956385 c 0,-0.263006 -0.2151879,-0.478192 -0.478193,-0.478192 z"
         style="fill:#ffffff;stroke-width:0.029887"
         id="path65" /><path
         d="m 6.4702198,10.314811 c -0.2630061,0 -0.4781924,0.215186 -0.4781924,0.478192 v 0.956385 c 0,0.263005 0.2151863,0.478193 0.4781924,0.478193 h 0.9563844 c 0.2630055,0 0.4781925,-0.215188 0.4781925,-0.478193 v -0.956385 c 0,-0.263006 -0.215187,-0.478192 -0.4781925,-0.478192 z"
         style="fill:#ffffff;stroke-width:0.029887"
         id="path66" /><path
         d="m 9.639026,10.314811 c -0.2630059,0 -0.4781927,0.215186 -0.4781927,0.478192 v 0.956385 c 0,0.263005 0.2151868,0.478193 0.4781927,0.478193 h 0.956384 c 0.263006,0 0.478192,-0.215188 0.478192,-0.478193 v -0.956385 c 0,-0.263006 -0.215186,-0.478192 -0.478192,-0.478192 z"
         style="fill:#ffffff;stroke-width:0.029887"
         id="path67" /><path
         d="m 12.80783,10.314811 c -0.263006,0 -0.478192,0.215186 -0.478192,0.478192 v 0.956385 c 0,0.263005 0.215186,0.478193 0.478192,0.478193 h 0.956384 c 0.263006,0 0.478193,-0.215188 0.478193,-0.478193 v -0.956385 c 0,-0.263006 -0.215187,-0.478192 -0.478193,-0.478192 z"
         style="fill:#ffffff;stroke-width:0.029887"
         id="path68" /><path
         d="m 3.3014134,12.627031 c -0.263005,0 -0.4781918,0.215185 -0.4781918,0.478192 v 0.956384 c 0,0.263005 0.2151868,0.478194 0.4781918,0.478194 h 0.9563849 c 0.2630051,0 0.478193,-0.215189 0.478193,-0.478194 v -0.956384 c 0,-0.263007 -0.2151879,-0.478192 -0.478193,-0.478192 z"
         style="fill:#ffffff;stroke-width:0.029887"
         id="path69" /><path
         d="m 6.4702198,12.627031 c -0.2630061,0 -0.4781924,0.215185 -0.4781924,0.478192 v 0.956384 c 0,0.263005 0.2151863,0.478194 0.4781924,0.478194 h 0.9563844 c 0.2630055,0 0.4781925,-0.215189 0.4781925,-0.478194 v -0.956384 c 0,-0.263007 -0.215187,-0.478192 -0.4781925,-0.478192 z"
         style="fill:#ffffff;stroke-width:0.029887"
         id="path70" /><path
         d="m 9.639026,12.627031 c -0.2630059,0 -0.4781927,0.215185 -0.4781927,0.478192 v 0.956384 c 0,0.263005 0.2151868,0.478194 0.4781927,0.478194 h 0.956384 c 0.263006,0 0.478192,-0.215189 0.478192,-0.478194 v -0.956384 c 0,-0.263007 -0.215186,-0.478192 -0.478192,-0.478192 z"
         style="fill:#ffffff;stroke-width:0.029887"
         id="path71" /><path
         d="m 12.80783,12.627031 c -0.263006,0 -0.478192,0.215185 -0.478192,0.478192 v 0.956384 c 0,0.263005 0.215186,0.478194 0.478192,0.478194 h 0.956384 c 0.263006,0 0.478193,-0.215189 0.478193,-0.478194 v -0.956384 c 0,-0.263007 -0.215187,-0.478192 -0.478193,-0.478192 z"
         style="fill:#ffffff;stroke-width:0.029887"
         id="path72" /><path
         d="m 8.8625078,3.4338988 v 1.3503051 h 0.324528 V 3.4338988 Z"
         style="font-weight:900;font-size:1.89888px;font-family:Roboto;-inkscape-font-specification:'Roboto Heavy';letter-spacing:0px;fill:#ffffff;stroke-width:0.664606;stroke-linecap:round;stroke-linejoin:round;stroke-dasharray:0.664606, 3.98764;paint-order:stroke markers fill"
         id="path79" /><path
         d="M 7.9374997,3.4338988 7.441406,4.7842039 h 0.3493326 l 0.078031,-0.252181 h 0.4459675 l 0.078031,0.252181 H 8.7431353 L 8.2439409,3.4338988 Z M 8.0909787,3.81062 8.2367062,4.2803587 H 7.9462847 Z"
         style="font-weight:900;font-size:1.89888px;font-family:Roboto;-inkscape-font-specification:'Roboto Heavy';letter-spacing:0px;fill:#ffffff;stroke-width:0.664606;stroke-linecap:round;stroke-linejoin:round;stroke-dasharray:0.664606, 3.98764;paint-order:stroke markers fill"
         id="path78" /><path
         d="M 6.1980711,3.4338988 V 4.7842039 H 6.5231158 V 3.9439452 L 7.000606,4.7842039 H 7.325134 V 3.4338988 H 7.000606 V 4.2741576 L 6.5231158,3.4338988 Z"
         style="font-weight:900;font-size:1.89888px;font-family:Roboto;-inkscape-font-specification:'Roboto Heavy';letter-spacing:0px;fill:#ffffff;stroke-width:0.664606;stroke-linecap:round;stroke-linejoin:round;stroke-dasharray:0.664606, 3.98764;paint-order:stroke markers fill"
         id="path77" /><path
         d="M 4.8648192,3.4338988 V 4.7842039 H 5.1898639 V 3.9439452 l 0.4774902,0.8402587 h 0.324528 V 3.4338988 H 5.6673541 V 4.2741576 L 5.1898639,3.4338988 Z"
         style="font-weight:900;font-size:1.89888px;font-family:Roboto;-inkscape-font-specification:'Roboto Heavy';letter-spacing:0px;fill:#ffffff;stroke-width:0.664606;stroke-linecap:round;stroke-linejoin:round;stroke-dasharray:0.664606, 3.98764;paint-order:stroke markers fill"
         id="path76" /><path
         d="M 3.801835,3.4338988 V 4.7842039 H 4.7309772 V 4.5335732 H 4.1273965 V 4.2121458 H 4.6384764 V 3.9697834 H 4.1273965 V 3.685563 H 4.7340778 V 3.4338988 Z"
         style="font-weight:900;font-size:1.89888px;font-family:Roboto;-inkscape-font-specification:'Roboto Heavy';letter-spacing:0px;fill:#ffffff;stroke-width:0.664606;stroke-linecap:round;stroke-linejoin:round;stroke-dasharray:0.664606, 3.98764;paint-order:stroke markers fill"
         id="path75" /><path
         d="m 9.9668331,3.4152953 c -0.1736929,0 -0.3152708,0.060019 -0.425297,0.1793172 -0.109408,0.1186799 -0.164331,0.2808552 -0.164331,0.4873087 v 0.054777 c 0,0.2064535 0.054822,0.3691456 0.1648478,0.4878255 0.1106443,0.1186798 0.2531543,0.1782836 0.4268473,0.1782836 0.1724568,0 0.3137208,-0.059604 0.4237468,-0.1782836 0.110026,-0.1186799 0.164848,-0.281372 0.164848,-0.4878255 v -0.054777 c 0,-0.2064535 -0.05524,-0.3686288 -0.165882,-0.4873087 C 10.280969,3.4753145 10.13929,3.4152953 9.9668331,3.4152953 Z m 0,0.2552815 c 0.087158,0 0.1525869,0.034224 0.1958539,0.1028361 0.04327,0.068612 0.0646,0.1709707 0.0646,0.306958 v 0.062012 c -6.2e-4,0.1304242 -0.02361,0.2308074 -0.06873,0.3012735 -0.0445,0.069848 -0.107442,0.1049032 -0.1896528,0.1049032 -0.086538,0 -0.1519671,-0.035369 -0.1958537,-0.1064534 C 9.7297779,4.3710216 9.708451,4.2689769 9.708451,4.1366983 l 5.167e-4,-0.1043864 c 0.00989,-0.2410685 0.095917,-0.3617351 0.2578654,-0.3617351 z"
         style="font-weight:900;font-size:1.89888px;font-family:Roboto;-inkscape-font-specification:'Roboto Heavy';letter-spacing:0px;fill:#ffffff;stroke-width:0.664606;stroke-linecap:round;stroke-linejoin:round;stroke-dasharray:0.664606, 3.98764;paint-order:stroke markers fill"
         id="path74" /><path
         d="m 3.0576944,3.4147785 c -0.1681298,0 -0.3062732,0.057213 -0.414445,0.1715658 -0.1081717,0.1137349 -0.162264,0.2755962 -0.162264,0.4857584 v 0.074931 c 0,0.2101624 0.054092,0.3720235 0.162264,0.4857585 0.1087899,0.1131167 0.2527589,0.1700154 0.432015,0.1700154 0.1452592,0 0.2623898,-0.021428 0.3513997,-0.064079 0.08901,-0.04265 0.1509031,-0.083116 0.1855184,-0.1214396 V 4.062801 H 3.0602782 V 4.2860431 H 3.286621 v 0.2098063 c -0.041414,0.037705 -0.1040373,0.056327 -0.1881022,0.056327 -0.095191,0 -0.1672768,-0.033393 -0.2154907,-0.1007691 -0.047596,-0.067375 -0.071314,-0.1690049 -0.071314,-0.3043742 v -0.082682 c 6.18e-4,-0.1341329 0.023921,-0.2341007 0.07028,-0.30024 0.046359,-0.066139 0.1086682,-0.099219 0.1865519,-0.099219 0.075411,0 0.1303343,0.018308 0.1643311,0.054777 0.033997,0.036469 0.055739,0.088272 0.065629,0.1550292 H 3.611149 C 3.5975502,3.7399476 3.5480374,3.6293721 3.4633544,3.5434528 3.3786713,3.4575335 3.2437498,3.4147785 3.0576944,3.4147785 Z"
         style="font-weight:900;font-size:1.89888px;font-family:Roboto;-inkscape-font-specification:'Roboto Heavy';letter-spacing:0px;fill:#ffffff;stroke-width:0.664606;stroke-linecap:round;stroke-linejoin:round;stroke-dasharray:0.664606, 3.98764;paint-order:stroke markers fill"
         id="path73" /></g></g></svg>
