<?xml version="1.0" encoding="UTF-8" standalone="no"?>
<!-- Created with Inkscape (http://www.inkscape.org/) -->

<svg
   width="32"
   height="32"
   viewBox="0 0 8.466666 8.4666667"
   version="1.1"
   id="svg1"
   inkscape:version="1.3.2 (1:1.3.2+202311252150+091e20ef0f)"
   sodipodi:docname="sep_logo.svg"
   xml:space="preserve"
   xmlns:inkscape="http://www.inkscape.org/namespaces/inkscape"
   xmlns:sodipodi="http://sodipodi.sourceforge.net/DTD/sodipodi-0.dtd"
   xmlns="http://www.w3.org/2000/svg"
   xmlns:svg="http://www.w3.org/2000/svg"><sodipodi:namedview
     id="namedview1"
     pagecolor="#ffffff"
     bordercolor="#000000"
     borderopacity="0.25"
     inkscape:showpageshadow="false"
     inkscape:pageopacity="0.0"
     inkscape:pagecheckerboard="0"
     inkscape:deskcolor="#d1d1d1"
     inkscape:document-units="px"
     inkscape:zoom="37.09375"
     inkscape:cx="12.117944"
     inkscape:cy="12.84583"
     inkscape:window-width="2518"
     inkscape:window-height="1392"
     inkscape:window-x="2594"
     inkscape:window-y="0"
     inkscape:window-maximized="1"
     inkscape:current-layer="layer1" /><defs
     id="defs1" /><g
     inkscape:label="Livello 1"
     inkscape:groupmode="layer"
     id="layer1"><path
       d="m 0.52916621,3.1750001 v 4.4979164 c 0,0.438216 0.3555344,0.7937498 0.79374999,0.7937498 h 5.8208335 c 0.4382155,0 0.7937504,-0.3555338 0.7937504,-0.7937498 V 3.1750001 Z"
       style="fill:#999999;stroke-width:0.0165364"
       id="path55"
       sodipodi:nodetypes="csssscc" /><path
       d="M 2.6458332,0 C 2.3531381,0 2.1166665,0.23647164 2.1166665,0.52916671 V 1.0583334 H 1.3229162 c -0.43821559,0 -0.79374999,0.3555342 -0.79374999,0.7937499 V 2.6458334 H 7.9375001 V 1.8520833 c 0,-0.4382157 -0.3555349,-0.7937499 -0.7937504,-0.7937499 H 6.3499999 V 0.52916671 C 6.3499999,0.23647164 6.1135284,0 5.8208335,0 5.528138,0 5.2916666,0.23647164 5.2916666,0.52916671 V 1.0583334 H 3.1749997 V 0.52916671 C 3.1749997,0.23647164 2.9385281,0 2.6458332,0 Z"
       style="fill:#d40000;stroke-width:0.0165364"
       id="path54" /><path
       d="m 1.4432535,3.8806406 c -0.1402694,0 -0.2550357,0.1147661 -0.2550357,0.255036 v 0.5100719 c 0,0.140269 0.1147663,0.2550359 0.2550357,0.2550359 h 0.5100719 c 0.1402694,0 0.2550363,-0.1147669 0.2550363,-0.2550359 V 4.1356766 c 0,-0.1402699 -0.1147669,-0.255036 -0.2550363,-0.255036 z"
       style="fill:#ffffff;stroke-width:0.0159397"
       id="path59" /><path
       d="m 3.1332835,3.8806406 c -0.1402699,0 -0.2550359,0.1147661 -0.2550359,0.255036 v 0.5100719 c 0,0.140269 0.114766,0.2550359 0.2550359,0.2550359 h 0.5100717 c 0.1402696,0 0.255036,-0.1147669 0.255036,-0.2550359 V 4.1356766 c 0,-0.1402699 -0.1147664,-0.255036 -0.255036,-0.255036 z"
       style="fill:#ffffff;stroke-width:0.0159397"
       id="path62" /><path
       d="m 4.8233135,3.8806406 c -0.1402699,0 -0.2550362,0.1147661 -0.2550362,0.255036 v 0.5100719 c 0,0.140269 0.1147663,0.2550359 0.2550362,0.2550359 H 5.333385 c 0.1402698,0 0.2550357,-0.1147669 0.2550357,-0.2550359 V 4.1356766 c 0,-0.1402699 -0.1147659,-0.255036 -0.2550357,-0.255036 z"
       style="fill:#ffffff;stroke-width:0.0159397"
       id="path63" /><path
       d="m 6.5133423,3.8806406 c -0.1402699,0 -0.2550357,0.1147661 -0.2550357,0.255036 v 0.5100719 c 0,0.140269 0.1147658,0.2550359 0.2550357,0.2550359 h 0.5100714 c 0.1402699,0 0.2550363,-0.1147669 0.2550363,-0.2550359 V 4.1356766 c 0,-0.1402699 -0.1147664,-0.255036 -0.2550363,-0.255036 z"
       style="fill:#ffffff;stroke-width:0.0159397"
       id="path64" /><path
       d="m 1.4432535,5.2190104 c -0.1402694,0 -0.2550357,0.1147658 -0.2550357,0.2550357 v 0.510072 c 0,0.1402693 0.1147663,0.2550363 0.2550357,0.2550363 h 0.5100719 c 0.1402694,0 0.2550363,-0.114767 0.2550363,-0.2550363 v -0.510072 c 0,-0.1402699 -0.1147669,-0.2550357 -0.2550363,-0.2550357 z"
       style="fill:#ffffff;stroke-width:0.0159397"
       id="path65" /><path
       d="m 3.1332835,5.2190104 c -0.1402699,0 -0.2550359,0.1147658 -0.2550359,0.2550357 v 0.510072 c 0,0.1402693 0.114766,0.2550363 0.2550359,0.2550363 h 0.5100717 c 0.1402696,0 0.255036,-0.114767 0.255036,-0.2550363 v -0.510072 c 0,-0.1402699 -0.1147664,-0.2550357 -0.255036,-0.2550357 z"
       style="fill:#ffffff;stroke-width:0.0159397"
       id="path66" /><path
       d="m 4.8233135,5.2190104 c -0.1402698,0 -0.2550361,0.1147658 -0.2550361,0.2550357 v 0.510072 c 0,0.1402693 0.1147663,0.2550363 0.2550361,0.2550363 H 5.333385 c 0.1402698,0 0.2550357,-0.114767 0.2550357,-0.2550363 v -0.510072 c 0,-0.1402699 -0.1147659,-0.2550357 -0.2550357,-0.2550357 z"
       style="fill:#ffffff;stroke-width:0.0159397;fill-opacity:1"
       id="path67" /><path
       d="m 6.5133423,5.2190104 c -0.1402699,0 -0.2550357,0.1147658 -0.2550357,0.2550357 v 0.510072 c 0,0.1402693 0.1147658,0.2550363 0.2550357,0.2550363 h 0.5100714 c 0.1402699,0 0.2550363,-0.114767 0.2550363,-0.2550363 v -0.510072 c 0,-0.1402699 -0.1147664,-0.2550357 -0.2550363,-0.2550357 z"
       style="fill:#ffffff;stroke-width:0.0159397;fill-opacity:1"
       id="path68" /><path
       d="m 1.4432535,6.4521944 c -0.1402694,0 -0.2550357,0.1147653 -0.2550357,0.2550357 v 0.5100714 c 0,0.1402694 0.1147663,0.2550368 0.2550357,0.2550368 h 0.5100719 c 0.1402694,0 0.2550363,-0.1147674 0.2550363,-0.2550368 V 6.7072301 c 0,-0.1402704 -0.1147669,-0.2550357 -0.2550363,-0.2550357 z"
       style="fill:#d40000;stroke-width:0.0159397;fill-opacity:1"
       id="path69" /><path
       d="m 3.1332835,6.4521944 c -0.1402699,0 -0.2550359,0.1147653 -0.2550359,0.2550357 v 0.5100714 c 0,0.1402694 0.114766,0.2550368 0.2550359,0.2550368 h 0.5100717 c 0.1402696,0 0.255036,-0.1147674 0.255036,-0.2550368 V 6.7072301 c 0,-0.1402704 -0.1147664,-0.2550357 -0.255036,-0.2550357 z"
       style="fill:#ffffff;stroke-width:0.0159397"
       id="path70" /><path
       d="m 4.8233135,6.4521944 c -0.1402698,0 -0.2550361,0.1147653 -0.2550361,0.2550357 v 0.5100714 c 0,0.1402694 0.1147663,0.2550368 0.2550361,0.2550368 H 5.333385 c 0.1402698,0 0.2550357,-0.1147674 0.2550357,-0.2550368 V 6.7072301 c 0,-0.1402704 -0.1147659,-0.2550357 -0.2550357,-0.2550357 z"
       style="fill:#ffffff;stroke-width:0.0159397"
       id="path71" /><path
       d="m 6.5133423,6.4521944 c -0.1402699,0 -0.2550357,0.1147653 -0.2550357,0.2550357 v 0.5100714 c 0,0.1402694 0.1147658,0.2550368 0.2550357,0.2550368 h 0.5100714 c 0.1402699,0 0.2550363,-0.1147674 0.2550363,-0.2550368 V 6.7072301 c 0,-0.1402704 -0.1147664,-0.2550357 -0.2550363,-0.2550357 z"
       style="fill:#ffffff;stroke-width:0.0159397"
       id="path72" /><path
       d="m 1.4013639,2.0779551 q 0,-0.034133 -0.023745,-0.056393 -0.02325,-0.022261 -0.102893,-0.048478 -0.079643,-0.026713 -0.1340577,-0.057877 -0.05392,-0.031659 -0.083106,-0.073212 -0.028691,-0.041553 -0.028691,-0.1004196 0,-0.092505 0.078654,-0.147414 0.078654,-0.054909 0.1983658,-0.054909 0.118228,0 0.193419,0.060845 0.075686,0.060845 0.075686,0.1627489 H 1.4023532 q 0,-0.040563 -0.025229,-0.066287 -0.024734,-0.026218 -0.075191,-0.026218 -0.049468,0 -0.074696,0.021766 -0.025229,0.021271 -0.025229,0.050952 0,0.032154 0.035122,0.054415 0.035122,0.021766 0.096957,0.041553 0.1147652,0.036606 0.1775893,0.09201 0.063319,0.054909 0.063319,0.1459299 0,0.097452 -0.072718,0.1498874 -0.072718,0.052436 -0.193419,0.052436 -0.074202,0 -0.1434565,-0.025229 -0.069255,-0.025228 -0.1137759,-0.079148 -0.044521,-0.05392 -0.044521,-0.1390044 h 0.1741266 q 0,0.063319 0.033143,0.088053 0.033143,0.024734 0.094483,0.024734 0.049468,0 0.070739,-0.020776 0.021766,-0.020776 0.021766,-0.049962 z M 1.6645324,2.2693954 V 1.5491446 H 2.1616836 V 1.6832022 H 1.8381643 V 1.8350683 H 2.1107318 V 1.9641792 H 1.8381643 v 0.1716532 h 0.3220352 v 0.133563 z M 2.2047205,1.6832022 V 1.5491446 H 2.8067434 V 1.6832022 H 2.5900745 V 2.2693954 H 2.4164426 V 1.6832022 Z m 0.6470385,0 V 1.5491446 H 3.4537818 V 1.6832022 H 3.237113 V 2.2693954 H 3.0634811 V 1.6832022 Z M 3.5274888,2.2693954 V 1.5491446 H 4.02464 V 1.6832022 H 3.7011207 V 1.8350683 H 3.9736882 V 1.9641792 H 3.7011207 v 0.1716532 h 0.3220352 v 0.133563 z M 4.4827116,2.0502531 4.6434819,1.5491446 H 4.8715283 V 2.2693954 H 4.6974017 V 2.1012049 L 4.7142208,1.7569092 4.5400942,2.2693954 H 4.425329 L 4.2512024,1.7569092 4.2680214,2.1012049 V 2.2693954 H 4.0943896 V 1.5491446 h 0.2275517 z m 1.0571264,0.00594 q 0,0.1058611 -0.066781,0.1592863 -0.066287,0.05293 -0.1988605,0.05392 H 4.9823362 V 1.5491446 h 0.2587164 q 0.1330683,0 0.2082594,0.048973 0.075686,0.048973 0.075686,0.1498874 0,0.048973 -0.022755,0.091021 -0.022755,0.041553 -0.078654,0.062824 0.063813,0.016324 0.090031,0.060845 0.026218,0.044026 0.026218,0.093494 z M 5.1559681,1.6832022 v 0.1662117 h 0.084095 q 0.060351,0 0.085579,-0.020282 0.025723,-0.020282 0.025723,-0.060351 0,-0.083601 -0.1053664,-0.085579 z m 0.2112274,0.3705137 q 0,-0.088053 -0.085085,-0.090526 H 5.1559681 v 0.1726426 h 0.1132812 q 0.05293,0 0.075191,-0.023745 0.022755,-0.024239 0.022755,-0.058372 z M 6.0305584,2.2693954 5.9034262,2.015131 H 5.8099321 V 2.2693954 H 5.6363002 V 1.5491446 h 0.2834504 q 0.1246587,0 0.1983657,0.055899 0.074202,0.055404 0.074202,0.1617597 0,0.083106 -0.034627,0.1305949 -0.034133,0.047489 -0.091021,0.074202 l 0.1498874,0.2903759 v 0.00742 z M 5.8099321,1.6832022 v 0.1978711 h 0.1098185 q 0.098935,0 0.098935,-0.098441 0,-0.097946 -0.095968,-0.09943 z M 6.2971894,2.2693954 V 1.5491446 H 6.7943405 V 1.6832022 H 6.4708212 V 1.8350683 H 6.7433887 V 1.9641792 H 6.4708212 v 0.1716532 h 0.3220353 v 0.133563 z"
       id="text1"
       style="font-weight:900;font-size:1.0131px;font-family:Roboto;-inkscape-font-specification:'Roboto Heavy';letter-spacing:0px;fill:#ffffff;stroke-width:0.354585;stroke-linecap:round;stroke-linejoin:round;stroke-dasharray:0.354585, 2.12751;paint-order:stroke markers fill"
       aria-label="SETTEMBRE" /></g></svg>
