<?xml version="1.0" encoding="UTF-8" standalone="no"?>
<!-- Created with Inkscape (http://www.inkscape.org/) -->

<svg
   width="32"
   height="32"
   viewBox="0 0 8.466666 8.4666667"
   version="1.1"
   id="svg1"
   inkscape:version="1.3.2 (1:1.3.2+202311252150+091e20ef0f)"
   sodipodi:docname="feb_logo.svg"
   xml:space="preserve"
   xmlns:inkscape="http://www.inkscape.org/namespaces/inkscape"
   xmlns:sodipodi="http://sodipodi.sourceforge.net/DTD/sodipodi-0.dtd"
   xmlns="http://www.w3.org/2000/svg"
   xmlns:svg="http://www.w3.org/2000/svg"><sodipodi:namedview
     id="namedview1"
     pagecolor="#ffffff"
     bordercolor="#000000"
     borderopacity="0.25"
     inkscape:showpageshadow="false"
     inkscape:pageopacity="0.0"
     inkscape:pagecheckerboard="0"
     inkscape:deskcolor="#d1d1d1"
     inkscape:document-units="px"
     inkscape:zoom="20.870698"
     inkscape:cx="22.303997"
     inkscape:cy="24.555958"
     inkscape:window-width="2518"
     inkscape:window-height="1392"
     inkscape:window-x="2594"
     inkscape:window-y="0"
     inkscape:window-maximized="1"
     inkscape:current-layer="layer1" /><defs
     id="defs1" /><g
     inkscape:label="Livello 1"
     inkscape:groupmode="layer"
     id="layer1"><path
       d="m 0.52916621,3.1750001 v 4.4979164 c 0,0.438216 0.3555344,0.7937498 0.79374999,0.7937498 h 5.8208335 c 0.4382155,0 0.7937504,-0.3555338 0.7937504,-0.7937498 V 3.1750001 Z"
       style="fill:#999999;stroke-width:0.0165364"
       id="path55"
       sodipodi:nodetypes="csssscc" /><path
       d="M 2.6458332,0 C 2.3531381,0 2.1166665,0.23647164 2.1166665,0.52916671 V 1.0583334 H 1.3229162 c -0.43821559,0 -0.79374999,0.3555342 -0.79374999,0.7937499 V 2.6458334 H 7.9375001 V 1.8520833 c 0,-0.4382157 -0.3555349,-0.7937499 -0.7937504,-0.7937499 H 6.3499999 V 0.52916671 C 6.3499999,0.23647164 6.1135284,0 5.8208335,0 5.528138,0 5.2916666,0.23647164 5.2916666,0.52916671 V 1.0583334 H 3.1749997 V 0.52916671 C 3.1749997,0.23647164 2.9385281,0 2.6458332,0 Z"
       style="fill:#d40000;stroke-width:0.0165364"
       id="path54" /><path
       d="m 1.4432535,3.8806406 c -0.1402694,0 -0.2550357,0.1147661 -0.2550357,0.255036 v 0.5100719 c 0,0.140269 0.1147663,0.2550359 0.2550357,0.2550359 h 0.5100719 c 0.1402694,0 0.2550363,-0.1147669 0.2550363,-0.2550359 V 4.1356766 c 0,-0.1402699 -0.1147669,-0.255036 -0.2550363,-0.255036 z"
       style="fill:#ffffff;stroke-width:0.0159397"
       id="path59" /><path
       d="m 3.1332835,3.8806406 c -0.1402699,0 -0.2550359,0.1147661 -0.2550359,0.255036 v 0.5100719 c 0,0.140269 0.114766,0.2550359 0.2550359,0.2550359 h 0.5100717 c 0.1402696,0 0.255036,-0.1147669 0.255036,-0.2550359 V 4.1356766 c 0,-0.1402699 -0.1147664,-0.255036 -0.255036,-0.255036 z"
       style="fill:#d40000;stroke-width:0.0159397;fill-opacity:1"
       id="path62" /><path
       d="m 4.8233135,3.8806406 c -0.1402699,0 -0.2550362,0.1147661 -0.2550362,0.255036 v 0.5100719 c 0,0.140269 0.1147663,0.2550359 0.2550362,0.2550359 H 5.333385 c 0.1402698,0 0.2550357,-0.1147669 0.2550357,-0.2550359 V 4.1356766 c 0,-0.1402699 -0.1147659,-0.255036 -0.2550357,-0.255036 z"
       style="fill:#ffffff;stroke-width:0.0159397"
       id="path63" /><path
       d="m 6.5133423,3.8806406 c -0.1402699,0 -0.2550357,0.1147661 -0.2550357,0.255036 v 0.5100719 c 0,0.140269 0.1147658,0.2550359 0.2550357,0.2550359 h 0.5100714 c 0.1402699,0 0.2550363,-0.1147669 0.2550363,-0.2550359 V 4.1356766 c 0,-0.1402699 -0.1147664,-0.255036 -0.2550363,-0.255036 z"
       style="fill:#ffffff;stroke-width:0.0159397"
       id="path64" /><path
       d="m 1.4432535,5.2190104 c -0.1402694,0 -0.2550357,0.1147658 -0.2550357,0.2550357 v 0.510072 c 0,0.1402693 0.1147663,0.2550363 0.2550357,0.2550363 h 0.5100719 c 0.1402694,0 0.2550363,-0.114767 0.2550363,-0.2550363 v -0.510072 c 0,-0.1402699 -0.1147669,-0.2550357 -0.2550363,-0.2550357 z"
       style="fill:#ffffff;stroke-width:0.0159397"
       id="path65" /><path
       d="m 3.1332835,5.2190104 c -0.1402699,0 -0.2550359,0.1147658 -0.2550359,0.2550357 v 0.510072 c 0,0.1402693 0.114766,0.2550363 0.2550359,0.2550363 h 0.5100717 c 0.1402696,0 0.255036,-0.114767 0.255036,-0.2550363 v -0.510072 c 0,-0.1402699 -0.1147664,-0.2550357 -0.255036,-0.2550357 z"
       style="fill:#ffffff;stroke-width:0.0159397"
       id="path66" /><path
       d="m 4.8233135,5.2190104 c -0.1402698,0 -0.2550361,0.1147658 -0.2550361,0.2550357 v 0.510072 c 0,0.1402693 0.1147663,0.2550363 0.2550361,0.2550363 H 5.333385 c 0.1402698,0 0.2550357,-0.114767 0.2550357,-0.2550363 v -0.510072 c 0,-0.1402699 -0.1147659,-0.2550357 -0.2550357,-0.2550357 z"
       style="fill:#ffffff;stroke-width:0.0159397"
       id="path67" /><path
       d="m 6.5133423,5.2190104 c -0.1402699,0 -0.2550357,0.1147658 -0.2550357,0.2550357 v 0.510072 c 0,0.1402693 0.1147658,0.2550363 0.2550357,0.2550363 h 0.5100714 c 0.1402699,0 0.2550363,-0.114767 0.2550363,-0.2550363 v -0.510072 c 0,-0.1402699 -0.1147664,-0.2550357 -0.2550363,-0.2550357 z"
       style="fill:#ffffff;stroke-width:0.0159397"
       id="path68" /><path
       d="m 1.4432535,6.4521944 c -0.1402694,0 -0.2550357,0.1147653 -0.2550357,0.2550357 v 0.5100714 c 0,0.1402694 0.1147663,0.2550368 0.2550357,0.2550368 h 0.5100719 c 0.1402694,0 0.2550363,-0.1147674 0.2550363,-0.2550368 V 6.7072301 c 0,-0.1402704 -0.1147669,-0.2550357 -0.2550363,-0.2550357 z"
       style="fill:#ffffff;stroke-width:0.0159397"
       id="path69" /><path
       d="m 3.1332835,6.4521944 c -0.1402699,0 -0.2550359,0.1147653 -0.2550359,0.2550357 v 0.5100714 c 0,0.1402694 0.114766,0.2550368 0.2550359,0.2550368 h 0.5100717 c 0.1402696,0 0.255036,-0.1147674 0.255036,-0.2550368 V 6.7072301 c 0,-0.1402704 -0.1147664,-0.2550357 -0.255036,-0.2550357 z"
       style="fill:#ffffff;stroke-width:0.0159397"
       id="path70" /><path
       d="m 4.8233135,6.4521944 c -0.1402698,0 -0.2550361,0.1147653 -0.2550361,0.2550357 v 0.5100714 c 0,0.1402694 0.1147663,0.2550368 0.2550361,0.2550368 H 5.333385 c 0.1402698,0 0.2550357,-0.1147674 0.2550357,-0.2550368 V 6.7072301 c 0,-0.1402704 -0.1147659,-0.2550357 -0.2550357,-0.2550357 z"
       style="fill:#ffffff;stroke-width:0.0159397"
       id="path71" /><path
       d="m 6.5133423,6.4521944 c -0.1402699,0 -0.2550357,0.1147653 -0.2550357,0.2550357 v 0.5100714 c 0,0.1402694 0.1147658,0.2550368 0.2550357,0.2550368 h 0.5100714 c 0.1402699,0 0.2550363,-0.1147674 0.2550363,-0.2550368 V 6.7072301 c 0,-0.1402704 -0.1147664,-0.2550357 -0.2550363,-0.2550357 z"
       style="fill:#ffffff;stroke-width:0.0159397"
       id="path72" /><path
       d="M 4.8317462,1.6045532 V 2.3249226 H 5.0048623 V 1.6045532 Z"
       style="font-weight:900;font-size:1.0131px;font-family:Roboto;-inkscape-font-specification:'Roboto Heavy';letter-spacing:0px;fill:#ffffff;stroke-width:0.354585;stroke-linecap:round;stroke-linejoin:round;stroke-dasharray:0.354585, 2.12751;paint-order:stroke markers fill"
       id="path8" /><path
       d="M 4.3382363,1.6045532 4.073653,2.3249226 h 0.1860352 l 0.041858,-0.1343587 h 0.2377115 l 0.041858,0.1343587 H 4.7681842 L 4.5020506,1.6045532 Z m 0.082166,0.2010213 0.077515,0.2506307 H 4.3428872 Z"
       style="font-weight:900;font-size:1.0131px;font-family:Roboto;-inkscape-font-specification:'Roboto Heavy';letter-spacing:0px;fill:#ffffff;stroke-width:0.354585;stroke-linecap:round;stroke-linejoin:round;stroke-dasharray:0.354585, 2.12751;paint-order:stroke markers fill"
       id="path7" /><path
       d="m 3.4695555,1.6045532 v 0.7203694 h 0.1736328 v -0.254248 h 0.093534 l 0.127124,0.254248 h 0.1860351 v -0.00723 L 3.9000202,2.0272664 c 0.037925,-0.017809 0.068195,-0.042755 0.09095,-0.074414 0.023085,-0.031659 0.034623,-0.074821 0.034623,-0.1302246 0,-0.070904 -0.024946,-0.1248113 -0.074414,-0.1617472 C 3.9020419,1.6236145 3.8358482,1.6045532 3.7527424,1.6045532 Z M 3.6431883,1.7389119 H 3.755843 c 0.063978,9.893e-4 0.096118,0.033921 0.096118,0.099219 0,0.065627 -0.033262,0.098702 -0.099219,0.098702 H 3.6431883 Z"
       style="font-weight:900;font-size:1.0131px;font-family:Roboto;-inkscape-font-specification:'Roboto Heavy';letter-spacing:0px;fill:#ffffff;stroke-width:0.354585;stroke-linecap:round;stroke-linejoin:round;stroke-dasharray:0.354585, 2.12751;paint-order:stroke markers fill"
       id="path6" /><path
       d="m 2.8153319,1.6045532 v 0.7203694 h 0.2919719 c 0.088382,-6.6e-4 0.1547629,-0.018457 0.1989542,-0.053743 0.044521,-0.035617 0.066663,-0.088589 0.066663,-0.1591634 0,-0.032979 -0.00888,-0.064184 -0.026355,-0.093534 -0.017479,-0.029681 -0.047375,-0.050096 -0.089917,-0.060978 0.037266,-0.014181 0.063378,-0.035343 0.078548,-0.063045 0.01517,-0.028032 0.022738,-0.058302 0.022738,-0.09095 0,-0.067276 -0.02499,-0.117213 -0.075448,-0.1498616 C 3.2323596,1.6209971 3.162943,1.6045532 3.0742308,1.6045532 Z m 0.1736328,0.1343587 h 0.090434 c 0.070244,0.00132 0.1049031,0.029533 0.1049031,0.085266 0,0.026713 -0.00817,0.04694 -0.025321,0.060461 -0.016819,0.013521 -0.045549,0.020154 -0.085783,0.020154 h -0.084233 z m 0,0.2800862 h 0.1260905 c 0.056723,0.00165 0.085266,0.031732 0.085266,0.090434 -1e-7,0.022756 -0.00757,0.042235 -0.022738,0.058394 -0.014841,0.015829 -0.039644,0.023771 -0.074931,0.023771 H 2.9889647 Z"
       style="font-weight:900;font-size:1.0131px;font-family:Roboto;-inkscape-font-specification:'Roboto Heavy';letter-spacing:0px;fill:#ffffff;stroke-width:0.354585;stroke-linecap:round;stroke-linejoin:round;stroke-dasharray:0.354585, 2.12751;paint-order:stroke markers fill"
       id="path5" /><path
       d="m 2.1616251,1.6045532 v 0.7203694 h 0.2919718 c 0.088382,-6.6e-4 0.1542462,-0.018457 0.1984375,-0.053743 0.044521,-0.035617 0.067179,-0.088589 0.067179,-0.1591634 0,-0.032979 -0.00888,-0.064184 -0.026355,-0.093534 -0.017478,-0.029681 -0.047374,-0.050096 -0.089917,-0.060978 0.037266,-0.014181 0.063378,-0.035343 0.078548,-0.063045 0.01517,-0.028032 0.022738,-0.058302 0.022738,-0.09095 0,-0.067276 -0.025507,-0.117213 -0.075964,-0.1498616 -0.050127,-0.032649 -0.1195438,-0.049093 -0.208256,-0.049093 z m 0.1736328,0.1343587 h 0.089917 c 0.070244,0.00132 0.1054199,0.029533 0.1054199,0.085266 0,0.026713 -0.00869,0.04694 -0.025838,0.060461 -0.016819,0.013521 -0.045032,0.020154 -0.085266,0.020154 h -0.084233 z m 0,0.2800862 h 0.1260905 c 0.056723,0.00165 0.085266,0.031732 0.085266,0.090434 -10e-8,0.022756 -0.00757,0.042235 -0.022738,0.058394 -0.014841,0.015829 -0.040161,0.023771 -0.075448,0.023771 H 2.3352579 Z"
       style="font-weight:900;font-size:1.0131px;font-family:Roboto;-inkscape-font-specification:'Roboto Heavy';letter-spacing:0px;fill:#ffffff;stroke-width:0.354585;stroke-linecap:round;stroke-linejoin:round;stroke-dasharray:0.354585, 2.12751;paint-order:stroke markers fill"
       id="path4" /><path
       d="m 1.5947346,1.6045532 v 0.7203694 h 0.495577 V 2.1915974 H 1.7683674 V 2.0200317 H 2.0407022 V 1.8908406 H 1.7683674 V 1.7389119 H 2.0918619 V 1.6045532 Z"
       style="font-weight:900;font-size:1.0131px;font-family:Roboto;-inkscape-font-specification:'Roboto Heavy';letter-spacing:0px;fill:#ffffff;stroke-width:0.354585;stroke-linecap:round;stroke-linejoin:round;stroke-dasharray:0.354585, 2.12751;paint-order:stroke markers fill"
       id="path3" /><path
       d="M 1.0407633,1.6045532 V 2.3249226 H 1.2143961 V 2.0381184 H 1.4939656 V 1.9042765 H 1.2143961 V 1.7389119 H 1.5223876 V 1.6045532 Z"
       style="font-weight:900;font-size:1.0131px;font-family:Roboto;-inkscape-font-specification:'Roboto Heavy';letter-spacing:0px;fill:#ffffff;stroke-width:0.354585;stroke-linecap:round;stroke-linejoin:round;stroke-dasharray:0.354585, 2.12751;paint-order:stroke markers fill"
       id="path2" /><path
       d="m 5.4208575,1.5947346 c -0.092669,0 -0.1681575,0.031953 -0.2268595,0.095601 -0.058372,0.063319 -0.08785,0.1503012 -0.08785,0.2604492 v 0.028939 c 0,0.1101483 0.029665,0.1971307 0.088367,0.2604493 0.059031,0.063319 0.1347067,0.094568 0.2273763,0.094568 0.09201,0 0.1676408,-0.031249 0.2263427,-0.094568 0.058702,-0.063319 0.08785,-0.1503011 0.08785,-0.2604493 v -0.028939 c 0,-0.1101482 -0.029336,-0.1971306 -0.088367,-0.2604492 -0.059032,-0.063649 -0.1348496,-0.095601 -0.2268596,-0.095601 z m 0,0.1359091 c 0.0465,0 0.081302,0.018688 0.1043864,0.055294 0.023085,0.036606 0.034623,0.091262 0.034623,0.1638143 v 0.033073 c -3.3e-4,0.069585 -0.012616,0.1231184 -0.03669,0.1607137 -0.023745,0.037266 -0.057424,0.055811 -0.1012858,0.055811 -0.04617,0 -0.080972,-0.018919 -0.1043864,-0.056844 C 5.29442,2.1045796 5.2828815,2.050298 5.2828815,1.979724 l 5.167e-4,-0.05581 c 0.00528,-0.1286161 0.051056,-0.1932698 0.1374593,-0.1932698 z"
       style="font-weight:900;font-size:1.0131px;font-family:Roboto;-inkscape-font-specification:'Roboto Heavy';letter-spacing:0px;fill:#ffffff;stroke-width:0.354585;stroke-linecap:round;stroke-linejoin:round;stroke-dasharray:0.354585, 2.12751;paint-order:stroke markers fill"
       id="path1" /></g></svg>
