<?xml version="1.0" encoding="UTF-8" standalone="no"?>
<!-- Created with Inkscape (http://www.inkscape.org/) -->

<svg
   width="32"
   height="32"
   viewBox="0 0 8.466666 8.4666667"
   version="1.1"
   id="svg1"
   inkscape:version="1.3.2 (1:1.3.2+202311252150+091e20ef0f)"
   sodipodi:docname="apr_logo.svg"
   xml:space="preserve"
   xmlns:inkscape="http://www.inkscape.org/namespaces/inkscape"
   xmlns:sodipodi="http://sodipodi.sourceforge.net/DTD/sodipodi-0.dtd"
   xmlns="http://www.w3.org/2000/svg"
   xmlns:svg="http://www.w3.org/2000/svg"><sodipodi:namedview
     id="namedview1"
     pagecolor="#ffffff"
     bordercolor="#000000"
     borderopacity="0.25"
     inkscape:showpageshadow="false"
     inkscape:pageopacity="0.0"
     inkscape:pagecheckerboard="0"
     inkscape:deskcolor="#d1d1d1"
     inkscape:document-units="px"
     inkscape:zoom="64"
     inkscape:cx="14.617187"
     inkscape:cy="11.195312"
     inkscape:window-width="2518"
     inkscape:window-height="1392"
     inkscape:window-x="2594"
     inkscape:window-y="0"
     inkscape:window-maximized="1"
     inkscape:current-layer="layer1" /><defs
     id="defs1" /><g
     inkscape:label="Livello 1"
     inkscape:groupmode="layer"
     id="layer1"><path
       d="m 0.52916621,3.1750001 v 4.4979164 c 0,0.438216 0.3555344,0.7937498 0.79374999,0.7937498 h 5.8208335 c 0.4382155,0 0.7937504,-0.3555338 0.7937504,-0.7937498 V 3.1750001 Z"
       style="fill:#999999;stroke-width:0.0165364"
       id="path55"
       sodipodi:nodetypes="csssscc" /><path
       d="M 2.6458332,0 C 2.3531381,0 2.1166665,0.23647164 2.1166665,0.52916671 V 1.0583334 H 1.3229162 c -0.43821559,0 -0.79374999,0.3555342 -0.79374999,0.7937499 V 2.6458334 H 7.9375001 V 1.8520833 c 0,-0.4382157 -0.3555349,-0.7937499 -0.7937504,-0.7937499 H 6.3499999 V 0.52916671 C 6.3499999,0.23647164 6.1135284,0 5.8208335,0 5.528138,0 5.2916666,0.23647164 5.2916666,0.52916671 V 1.0583334 H 3.1749997 V 0.52916671 C 3.1749997,0.23647164 2.9385281,0 2.6458332,0 Z"
       style="fill:#d40000;stroke-width:0.0165364"
       id="path54" /><path
       d="m 1.4432535,3.8806406 c -0.1402694,0 -0.2550357,0.1147661 -0.2550357,0.255036 v 0.5100719 c 0,0.140269 0.1147663,0.2550359 0.2550357,0.2550359 h 0.5100719 c 0.1402694,0 0.2550363,-0.1147669 0.2550363,-0.2550359 V 4.1356766 c 0,-0.1402699 -0.1147669,-0.255036 -0.2550363,-0.255036 z"
       style="fill:#ffffff;stroke-width:0.0159397"
       id="path59" /><path
       d="m 3.1332835,3.8806406 c -0.1402699,0 -0.2550359,0.1147661 -0.2550359,0.255036 v 0.5100719 c 0,0.140269 0.114766,0.2550359 0.2550359,0.2550359 h 0.5100717 c 0.1402696,0 0.255036,-0.1147669 0.255036,-0.2550359 V 4.1356766 c 0,-0.1402699 -0.1147664,-0.255036 -0.255036,-0.255036 z"
       style="fill:#ffffff;stroke-width:0.0159397"
       id="path62" /><path
       d="m 4.8233135,3.8806406 c -0.1402699,0 -0.2550362,0.1147661 -0.2550362,0.255036 v 0.5100719 c 0,0.140269 0.1147663,0.2550359 0.2550362,0.2550359 H 5.333385 c 0.1402698,0 0.2550357,-0.1147669 0.2550357,-0.2550359 V 4.1356766 c 0,-0.1402699 -0.1147659,-0.255036 -0.2550357,-0.255036 z"
       style="fill:#ffffff;stroke-width:0.0159397;fill-opacity:1"
       id="path63" /><path
       d="m 6.5133423,3.8806406 c -0.1402699,0 -0.2550357,0.1147661 -0.2550357,0.255036 v 0.5100719 c 0,0.140269 0.1147658,0.2550359 0.2550357,0.2550359 h 0.5100714 c 0.1402699,0 0.2550363,-0.1147669 0.2550363,-0.2550359 V 4.1356766 c 0,-0.1402699 -0.1147664,-0.255036 -0.2550363,-0.255036 z"
       style="fill:#d40000;stroke-width:0.0159397;fill-opacity:1"
       id="path64" /><path
       d="m 1.4432535,5.2190104 c -0.1402694,0 -0.2550357,0.1147658 -0.2550357,0.2550357 v 0.510072 c 0,0.1402693 0.1147663,0.2550363 0.2550357,0.2550363 h 0.5100719 c 0.1402694,0 0.2550363,-0.114767 0.2550363,-0.2550363 v -0.510072 c 0,-0.1402699 -0.1147669,-0.2550357 -0.2550363,-0.2550357 z"
       style="fill:#ffffff;stroke-width:0.0159397"
       id="path65" /><path
       d="m 3.1332835,5.2190104 c -0.1402699,0 -0.2550359,0.1147658 -0.2550359,0.2550357 v 0.510072 c 0,0.1402693 0.114766,0.2550363 0.2550359,0.2550363 h 0.5100717 c 0.1402696,0 0.255036,-0.114767 0.255036,-0.2550363 v -0.510072 c 0,-0.1402699 -0.1147664,-0.2550357 -0.255036,-0.2550357 z"
       style="fill:#ffffff;stroke-width:0.0159397"
       id="path66" /><path
       d="m 4.8233135,5.2190104 c -0.1402698,0 -0.2550361,0.1147658 -0.2550361,0.2550357 v 0.510072 c 0,0.1402693 0.1147663,0.2550363 0.2550361,0.2550363 H 5.333385 c 0.1402698,0 0.2550357,-0.114767 0.2550357,-0.2550363 v -0.510072 c 0,-0.1402699 -0.1147659,-0.2550357 -0.2550357,-0.2550357 z"
       style="fill:#ffffff;stroke-width:0.0159397"
       id="path67" /><path
       d="m 6.5133423,5.2190104 c -0.1402699,0 -0.2550357,0.1147658 -0.2550357,0.2550357 v 0.510072 c 0,0.1402693 0.1147658,0.2550363 0.2550357,0.2550363 h 0.5100714 c 0.1402699,0 0.2550363,-0.114767 0.2550363,-0.2550363 v -0.510072 c 0,-0.1402699 -0.1147664,-0.2550357 -0.2550363,-0.2550357 z"
       style="fill:#ffffff;stroke-width:0.0159397"
       id="path68" /><path
       d="m 1.4432535,6.4521944 c -0.1402694,0 -0.2550357,0.1147653 -0.2550357,0.2550357 v 0.5100714 c 0,0.1402694 0.1147663,0.2550368 0.2550357,0.2550368 h 0.5100719 c 0.1402694,0 0.2550363,-0.1147674 0.2550363,-0.2550368 V 6.7072301 c 0,-0.1402704 -0.1147669,-0.2550357 -0.2550363,-0.2550357 z"
       style="fill:#ffffff;stroke-width:0.0159397"
       id="path69" /><path
       d="m 3.1332835,6.4521944 c -0.1402699,0 -0.2550359,0.1147653 -0.2550359,0.2550357 v 0.5100714 c 0,0.1402694 0.114766,0.2550368 0.2550359,0.2550368 h 0.5100717 c 0.1402696,0 0.255036,-0.1147674 0.255036,-0.2550368 V 6.7072301 c 0,-0.1402704 -0.1147664,-0.2550357 -0.255036,-0.2550357 z"
       style="fill:#ffffff;stroke-width:0.0159397"
       id="path70" /><path
       d="m 4.8233135,6.4521944 c -0.1402698,0 -0.2550361,0.1147653 -0.2550361,0.2550357 v 0.5100714 c 0,0.1402694 0.1147663,0.2550368 0.2550361,0.2550368 H 5.333385 c 0.1402698,0 0.2550357,-0.1147674 0.2550357,-0.2550368 V 6.7072301 c 0,-0.1402704 -0.1147659,-0.2550357 -0.2550357,-0.2550357 z"
       style="fill:#ffffff;stroke-width:0.0159397"
       id="path71" /><path
       d="m 6.5133423,6.4521944 c -0.1402699,0 -0.2550357,0.1147653 -0.2550357,0.2550357 v 0.5100714 c 0,0.1402694 0.1147658,0.2550368 0.2550357,0.2550368 h 0.5100714 c 0.1402699,0 0.2550363,-0.1147674 0.2550363,-0.2550368 V 6.7072301 c 0,-0.1402704 -0.1147664,-0.2550357 -0.2550363,-0.2550357 z"
       style="fill:#ffffff;stroke-width:0.0159397"
       id="path72" /><path
       d="M 0.95430599,2.3290565 1.2262286,1.5890203 H 1.3944649 L 1.6679123,2.3290565 H 1.4757875 L 1.4330931,2.190808 H 1.1886169 L 1.1459225,2.3290565 Z M 1.2313113,2.0530677 H 1.3903988 L 1.3106009,1.7953766 Z m 0.6688789,0.024905 V 2.3290565 H 1.7217886 V 1.5890203 h 0.2953029 q 0.1331659,0 0.2099141,0.071157 0.076748,0.071157 0.076748,0.1799264 0,0.1077525 -0.076748,0.1728107 -0.076748,0.065058 -0.2099141,0.065058 z m 0,-0.3512122 v 0.2134719 h 0.1169013 q 0.055909,0 0.080814,-0.027955 0.025413,-0.027955 0.025413,-0.071157 0,-0.045236 -0.025413,-0.079798 -0.024905,-0.034562 -0.080814,-0.034562 z M 2.8049048,2.3290565 2.6742803,2.0678075 h -0.096062 v 0.261249 H 2.3998163 V 1.5890203 h 0.2912368 q 0.1280832,0 0.2038149,0.057434 0.07624,0.056926 0.07624,0.1662032 0,0.085389 -0.035579,0.1341824 -0.03507,0.048794 -0.093521,0.07624 l 0.1540048,0.2983525 v 0.00762 z M 2.5782179,1.7267606 v 0.2033066 h 0.1128352 q 0.1016533,0 0.1016533,-0.1011451 0,-0.1006367 -0.098604,-0.1021615 z M 3.268444,1.5890203 V 2.3290565 H 3.0905507 V 1.5890203 Z M 3.88243,2.1918245 v 0.137232 H 3.3934775 V 1.5890203 h 0.1784016 v 0.6028042 z m 0.075223,0.137232 V 1.5890203 H 4.4684613 V 1.7267606 H 4.1360549 V 1.8827984 H 4.4161098 V 2.015456 H 4.1360549 v 0.1763685 h 0.3308816 v 0.137232 z"
       id="text1"
       style="font-weight:900;font-size:1.04093px;font-family:Roboto;-inkscape-font-specification:'Roboto Heavy';letter-spacing:0px;fill:#ffffff;stroke-width:0.364326;stroke-linecap:round;stroke-linejoin:round;stroke-dasharray:0.364326, 2.18596;paint-order:stroke markers fill"
       aria-label="APRILE" /></g></svg>
