<?xml version="1.0" encoding="UTF-8" standalone="no"?>
<!-- Created with Inkscape (http://www.inkscape.org/) -->

<svg
   width="145"
   height="20"
   viewBox="0 0 38.364582 5.2916667"
   version="1.1"
   id="svg1"
   inkscape:version="1.3.2 (1:1.3.2+202311252150+091e20ef0f)"
   sodipodi:docname="cgil_logo.svg"
   xml:space="preserve"
   xmlns:inkscape="http://www.inkscape.org/namespaces/inkscape"
   xmlns:sodipodi="http://sodipodi.sourceforge.net/DTD/sodipodi-0.dtd"
   xmlns="http://www.w3.org/2000/svg"
   xmlns:svg="http://www.w3.org/2000/svg"><sodipodi:namedview
     id="namedview1"
     pagecolor="#ffffff"
     bordercolor="#000000"
     borderopacity="0.25"
     inkscape:showpageshadow="false"
     inkscape:pageopacity="0.0"
     inkscape:pagecheckerboard="0"
     inkscape:deskcolor="#d1d1d1"
     inkscape:document-units="px"
     inkscape:zoom="8.4595398"
     inkscape:cx="71.694207"
     inkscape:cy="22.046116"
     inkscape:window-width="2518"
     inkscape:window-height="1392"
     inkscape:window-x="2594"
     inkscape:window-y="0"
     inkscape:window-maximized="1"
     inkscape:current-layer="layer1" /><defs
     id="defs1" /><g
     inkscape:label="Livello 1"
     inkscape:groupmode="layer"
     id="layer1"><g
       id="g38"
       transform="translate(0.03412477,-1.3229167)"><path
         d="m 12.019938,2.5528157 v 2.824117 H 14.02395 V 4.4607096 H 13.036413 V 2.5528157 Z"
         style="font-size:3.95042px;font-family:'Futura XBlk BT';-inkscape-font-specification:'Futura XBlk BT';letter-spacing:0px;fill:#4d4d4d;stroke-width:1.38264;stroke-linecap:round;stroke-linejoin:round;stroke-dasharray:1.38264, 8.29587;paint-order:stroke markers fill"
         id="path16" /><path
         d="m 10.440189,2.5528157 v 2.824117 h 1.031979 v -2.824117 z"
         style="font-size:3.95042px;font-family:'Futura XBlk BT';-inkscape-font-specification:'Futura XBlk BT';letter-spacing:0px;fill:#4d4d4d;stroke-width:1.38264;stroke-linecap:round;stroke-linejoin:round;stroke-dasharray:1.38264, 8.29587;paint-order:stroke markers fill"
         id="path15" /><path
         d="m 8.5364297,2.4892537 c -0.2134665,0 -0.4124562,0.035991 -0.596346,0.1080037 C 7.7561939,2.6692702 7.594493,2.7738543 7.4543252,2.9114501 7.3154434,3.0477601 7.2092972,3.2063246 7.1359984,3.3863565 7.0639856,3.5651026 7.0279947,3.7599224 7.0279947,3.970817 c 0,0.2096086 0.035991,0.4036473 0.1080037,0.5823934 0.072013,0.178746 0.178159,0.3375749 0.3183268,0.4764567 0.1414537,0.1388818 0.3031546,0.2442469 0.4857585,0.3162597 0.1838898,0.070727 0.3828795,0.1059367 0.596346,0.1059367 0.2893371,0 0.5475346,-0.063378 0.7751465,-0.190686 C 9.539188,5.1325832 9.7251393,4.9474131 9.8691649,4.7056558 9.9283182,4.6027804 9.9731856,4.4843766 10.00404,4.3506388 c 0.03086,-0.133738 0.04651,-0.281355 0.04651,-0.4433838 0,-0.021861 -8e-4,-0.047157 -0.0021,-0.075448 -0.0013,-0.028291 -0.0031,-0.071324 -0.0057,-0.1291911 H 8.4821694 V 4.3661413 H 8.9240029 C 8.9124299,4.4394403 8.8756579,4.4965571 8.8139321,4.537707 8.7534931,4.578857 8.674469,4.599719 8.5767373,4.599719 8.4121366,4.599719 8.2848645,4.544693 8.1948485,4.4353879 8.1048325,4.324797 8.059973,4.1701381 8.059973,3.970817 c 0,-0.1928914 0.044078,-0.3465049 0.1328084,-0.4609538 0.090016,-0.1144489 0.2102462,-0.1720825 0.3607015,-0.1720825 0.086158,0 0.1625743,0.019299 0.2294434,0.057878 0.066869,0.038578 0.1245026,0.097257 0.1720825,0.1756999 L 9.8593463,3.2359781 C 9.7166067,2.991649 9.5329988,2.8064789 9.3079588,2.6804565 9.0829188,2.5531482 8.8257668,2.4892537 8.5364297,2.4892537 Z"
         style="font-size:3.95042px;font-family:'Futura XBlk BT';-inkscape-font-specification:'Futura XBlk BT';letter-spacing:0px;fill:#4d4d4d;stroke-width:1.38264;stroke-linecap:round;stroke-linejoin:round;stroke-dasharray:1.38264, 8.29587;paint-order:stroke markers fill"
         id="path14" /><path
         d="m 6.0151366,2.4856364 c -0.2147524,0 -0.4147876,0.035991 -0.5999634,0.1080037 C 5.2312834,2.6643669 5.0695825,2.7689509 4.9294148,2.9078328 4.790533,3.0454287 4.6843867,3.2042575 4.611088,3.3842895 4.5390752,3.5643215 4.5030842,3.7599224 4.5030842,3.970817 c 0,0.2854792 0.063378,0.5381971 0.1906861,0.7580932 0.1285942,0.2198963 0.3179343,0.4016776 0.5674072,0.5457032 0.1028754,0.056581 0.2178905,0.1003957 0.3451985,0.1312581 0.1273084,0.030863 0.2597959,0.045992 0.3973918,0.045992 0.1105911,0 0.2211717,-0.011477 0.3317627,-0.034623 C 6.4461216,5.3953793 6.5567021,5.361996 6.6672932,5.316988 L 6.6998492,4.2540038 C 6.5802565,4.3453058 6.469676,4.4125892 6.3680865,4.4550252 c -0.1003035,0.04115 -0.1994077,0.061495 -0.2971394,0.061495 -0.1620288,0 -0.2911276,-0.049294 -0.3875733,-0.1483114 -0.096446,-0.099018 -0.144694,-0.2315051 -0.144694,-0.3973917 0,-0.1697444 0.050075,-0.3056208 0.1503784,-0.4072103 C 5.7906477,3.4607314 5.9246975,3.409611 6.0905841,3.409611 c 0.1067332,0 0.2079285,0.02139 0.3043742,0.065112 0.096446,0.043722 0.1911157,0.1102243 0.2837036,0.1989543 V 2.6282633 C 6.5732147,2.5806837 6.4644607,2.5449572 6.3525837,2.5218099 6.2419926,2.4973772 6.1295855,2.4856364 6.0151366,2.4856364 Z"
         style="font-size:3.95042px;font-family:'Futura XBlk BT';-inkscape-font-specification:'Futura XBlk BT';letter-spacing:0px;fill:#4d4d4d;stroke-width:1.38264;stroke-linecap:round;stroke-linejoin:round;stroke-dasharray:1.38264, 8.29587;paint-order:stroke markers fill"
         id="path13" /><rect
         style="fill:#d40000;stroke:none;stroke-width:0.740833;stroke-linecap:round;stroke-linejoin:round;stroke-dasharray:0.740833, 4.445;paint-order:stroke markers fill"
         id="rect12"
         width="2.8048236"
         height="2.9666705"
         x="1.0030032"
         y="2.4854147" /><path
         d="m 35.435046,3.2127237 v 1.513086 h 0.24598 v -1.513086 z"
         style="font-size:2.11667px;font-family:'Futura Md BT';-inkscape-font-specification:'Futura Md BT';letter-spacing:0px;fill:#4d4d4d;stroke-width:0.740833;stroke-linecap:round;stroke-linejoin:round;stroke-dasharray:0.740833, 4.445;paint-order:stroke markers fill"
         id="path35" /><path
         d="m 34.435624,3.2127237 v 1.513086 h 0.795817 V 4.5056681 H 34.681603 V 3.2127237 Z"
         style="font-size:2.11667px;font-family:'Futura Md BT';-inkscape-font-specification:'Futura Md BT';letter-spacing:0px;fill:#4d4d4d;stroke-width:0.740833;stroke-linecap:round;stroke-linejoin:round;stroke-dasharray:0.740833, 4.445;paint-order:stroke markers fill"
         id="path34" /><path
         d="m 32.854325,3.2127237 v 0.9415446 c 0,0.2053278 0.05134,0.3586344 0.153996,0.4599203 0.102663,0.1012859 0.258037,0.1519287 0.466121,0.1519287 0.208084,0 0.363802,-0.050643 0.467155,-0.1519287 0.103352,-0.1019749 0.155029,-0.2552815 0.155029,-0.4599203 V 3.2127237 h -0.24598 v 0.918807 c 0,0.1364259 -0.0317,0.2390896 -0.09508,0.3079915 -0.0627,0.068213 -0.156407,0.1023194 -0.28112,0.1023194 -0.125405,0 -0.2198,-0.034106 -0.283187,-0.1023194 -0.0627,-0.068902 -0.09405,-0.1715656 -0.09405,-0.3079915 v -0.918807 z"
         style="font-size:2.11667px;font-family:'Futura Md BT';-inkscape-font-specification:'Futura Md BT';letter-spacing:0px;fill:#4d4d4d;stroke-width:0.740833;stroke-linecap:round;stroke-linejoin:round;stroke-dasharray:0.740833, 4.445;paint-order:stroke markers fill"
         id="path33" /><path
         d="m 32.261079,3.2127237 v 1.513086 h 0.24598 v -1.513086 z"
         style="font-size:2.11667px;font-family:'Futura Md BT';-inkscape-font-specification:'Futura Md BT';letter-spacing:0px;fill:#4d4d4d;stroke-width:0.740833;stroke-linecap:round;stroke-linejoin:round;stroke-dasharray:0.740833, 4.445;paint-order:stroke markers fill"
         id="path32" /><path
         d="m 27.917159,3.2127237 v 1.513086 h 0.245979 v -1.513086 z"
         style="font-size:2.11667px;font-family:'Futura Md BT';-inkscape-font-specification:'Futura Md BT';letter-spacing:0px;fill:#4d4d4d;stroke-width:0.740833;stroke-linecap:round;stroke-linejoin:round;stroke-dasharray:0.740833, 4.445;paint-order:stroke markers fill"
         id="path31" /><path
         d="m 26.667622,3.2127237 v 0.2087728 h 0.641822 l -0.771013,1.3043132 h 1.158586 V 4.5056681 h -0.773079 l 0.763777,-1.2929444 z"
         style="font-size:2.11667px;font-family:'Futura Md BT';-inkscape-font-specification:'Futura Md BT';letter-spacing:0px;fill:#4d4d4d;stroke-width:0.740833;stroke-linecap:round;stroke-linejoin:round;stroke-dasharray:0.740833, 4.445;paint-order:stroke markers fill"
         id="path30" /><path
         d="m 25.566914,3.2127237 v 1.513086 h 0.844393 V 4.5056681 H 25.812894 V 4.016809 h 0.598413 V 3.8008015 h -0.598413 v -0.379305 h 0.598413 V 3.2127237 Z"
         style="font-size:2.11667px;font-family:'Futura Md BT';-inkscape-font-specification:'Futura Md BT';letter-spacing:0px;fill:#4d4d4d;stroke-width:0.740833;stroke-linecap:round;stroke-linejoin:round;stroke-dasharray:0.740833, 4.445;paint-order:stroke markers fill"
         id="path29" /><path
         d="m 22.740214,3.2127237 v 1.513086 h 0.844393 V 4.5056681 H 22.986193 V 4.016809 h 0.598414 V 3.8008015 h -0.598414 v -0.379305 h 0.598414 V 3.2127237 Z"
         style="font-size:2.11667px;font-family:'Futura Md BT';-inkscape-font-specification:'Futura Md BT';letter-spacing:0px;fill:#4d4d4d;stroke-width:0.740833;stroke-linecap:round;stroke-linejoin:round;stroke-dasharray:0.740833, 4.445;paint-order:stroke markers fill"
         id="path28" /><path
         d="m 21.237463,3.2127237 0.674894,1.5719971 0.674894,-1.5719971 h -0.254248 l -0.337964,0.8061524 c -0.01861,0.042719 -0.03479,0.084405 -0.04857,0.1250569 -0.01378,0.040652 -0.02515,0.079926 -0.03411,0.1178223 -0.0076,-0.035829 -0.01791,-0.073381 -0.03101,-0.1126546 -0.01309,-0.039963 -0.02963,-0.083371 -0.04961,-0.1302246 L 21.492745,3.2127237 Z"
         style="font-size:2.11667px;font-family:'Futura Md BT';-inkscape-font-specification:'Futura Md BT';letter-spacing:0px;fill:#4d4d4d;stroke-width:0.740833;stroke-linecap:round;stroke-linejoin:round;stroke-dasharray:0.740833, 4.445;paint-order:stroke markers fill"
         id="path27" /><path
         d="m 20.193599,3.2127237 v 1.513086 h 0.24598 v -1.513086 z"
         style="font-size:2.11667px;font-family:'Futura Md BT';-inkscape-font-specification:'Futura Md BT';letter-spacing:0px;fill:#4d4d4d;stroke-width:0.740833;stroke-linecap:round;stroke-linejoin:round;stroke-dasharray:0.740833, 4.445;paint-order:stroke markers fill"
         id="path26" /><path
         d="m 19.194177,3.2127237 v 1.513086 h 0.795817 V 4.5056681 H 19.440157 V 3.2127237 Z"
         style="font-size:2.11667px;font-family:'Futura Md BT';-inkscape-font-specification:'Futura Md BT';letter-spacing:0px;fill:#4d4d4d;stroke-width:0.740833;stroke-linecap:round;stroke-linejoin:round;stroke-dasharray:0.740833, 4.445;paint-order:stroke markers fill"
         id="path25" /><path
         d="m 17.612878,3.2127237 v 0.9415446 c 0,0.2053278 0.05133,0.3586344 0.153996,0.4599203 0.102664,0.1012859 0.258037,0.1519287 0.466121,0.1519287 0.208084,0 0.363802,-0.050643 0.467155,-0.1519287 0.103353,-0.1019749 0.15503,-0.2552815 0.15503,-0.4599203 V 3.2127237 H 18.6092 v 0.918807 c 0,0.1364259 -0.03169,0.2390896 -0.09509,0.3079915 -0.0627,0.068213 -0.156407,0.1023194 -0.28112,0.1023194 -0.125398,0 -0.219793,-0.034106 -0.283187,-0.1023194 -0.0627,-0.068902 -0.09405,-0.1715656 -0.09405,-0.3079915 v -0.918807 z"
         style="font-size:2.11667px;font-family:'Futura Md BT';-inkscape-font-specification:'Futura Md BT';letter-spacing:0px;fill:#4d4d4d;stroke-width:0.740833;stroke-linecap:round;stroke-linejoin:round;stroke-dasharray:0.740833, 4.445;paint-order:stroke markers fill"
         id="path24" /><path
         d="m 17.019633,3.2127237 v 1.513086 h 0.245979 v -1.513086 z"
         style="font-size:2.11667px;font-family:'Futura Md BT';-inkscape-font-specification:'Futura Md BT';letter-spacing:0px;fill:#4d4d4d;stroke-width:0.740833;stroke-linecap:round;stroke-linejoin:round;stroke-dasharray:0.740833, 4.445;paint-order:stroke markers fill"
         id="path23" /><path
         d="m 15.830041,3.2127237 v 1.513086 h 0.230477 V 4.0488484 h 0.02791 l 0.503329,0.6769613 h 0.278019 L 16.348873,4.0374796 c 0.114377,-0.01378 0.200849,-0.054777 0.259415,-0.1229899 0.05857,-0.068902 0.08785,-0.1639864 0.08785,-0.2852539 0,-0.068902 -0.01275,-0.132292 -0.03824,-0.1901693 -0.02549,-0.057878 -0.06167,-0.1050754 -0.108521,-0.1415934 -0.03927,-0.030317 -0.08681,-0.052021 -0.142627,-0.065112 -0.05512,-0.013091 -0.13298,-0.019637 -0.233577,-0.019637 z m 0.24598,0.2108399 h 0.04444 c 0.124026,0 0.208775,0.017225 0.254248,0.051676 0.04617,0.033762 0.06925,0.092329 0.06925,0.1756999 0,0.07717 -0.02136,0.1309138 -0.06408,0.1612304 -0.04272,0.030317 -0.129191,0.045475 -0.259415,0.045475 h -0.04444 z"
         style="font-size:2.11667px;font-family:'Futura Md BT';-inkscape-font-specification:'Futura Md BT';letter-spacing:0px;fill:#4d4d4d;stroke-width:0.740833;stroke-linecap:round;stroke-linejoin:round;stroke-dasharray:0.740833, 4.445;paint-order:stroke markers fill"
         id="path22" /><path
         d="m 14.718998,3.2127237 v 1.513086 h 0.24598 V 4.014742 h 0.598413 V 3.7987345 h -0.598413 v -0.377238 h 0.598413 V 3.2127237 Z"
         style="font-size:2.11667px;font-family:'Futura Md BT';-inkscape-font-specification:'Futura Md BT';letter-spacing:0px;fill:#4d4d4d;stroke-width:0.740833;stroke-linecap:round;stroke-linejoin:round;stroke-dasharray:0.740833, 4.445;paint-order:stroke markers fill"
         id="path21" /><path
         d="m 31.299898,3.1786173 c -0.112999,0 -0.219108,0.018948 -0.318327,0.056844 -0.09922,0.037896 -0.185691,0.093017 -0.259416,0.1653646 -0.07648,0.073725 -0.134359,0.1588188 -0.173633,0.2552815 -0.03859,0.096463 -0.05788,0.2018826 -0.05788,0.3162598 0,0.1123101 0.01895,0.21773 0.05684,0.3162597 0.03859,0.09853 0.09371,0.1843126 0.165364,0.2573487 0.07304,0.073725 0.158131,0.1288466 0.255282,0.1653646 0.09715,0.036518 0.207739,0.054777 0.331763,0.054777 0.221864,0 0.393774,-0.058911 0.515731,-0.1767334 0.121956,-0.1178224 0.182934,-0.2831868 0.182934,-0.4960938 0,-0.017225 -0.001,-0.050298 -0.0031,-0.099219 -6.66e-4,-0.018603 -0.001,-0.033073 -0.001,-0.043408 h -0.599447 v 0.2077392 h 0.363802 v 0.021704 c 0,0.1129995 -0.04031,0.2022273 -0.120922,0.267684 -0.08062,0.065457 -0.191203,0.098185 -0.331763,0.098185 -0.165365,0 -0.300068,-0.053055 -0.40411,-0.1591634 -0.10338,-0.1067976 -0.155056,-0.2456347 -0.155056,-0.4165116 0,-0.1681207 0.05168,-0.3045464 0.155029,-0.4092773 0.104042,-0.10542 0.238056,-0.1581299 0.402043,-0.1581299 0.07924,0 0.150894,0.01447 0.214974,0.043408 0.06408,0.028939 0.121612,0.073036 0.172599,0.1322917 l 0.179834,-0.1353923 c -0.07372,-0.089573 -0.157786,-0.156063 -0.252181,-0.199471 -0.09371,-0.043408 -0.20016,-0.065112 -0.31936,-0.065112 z"
         style="font-size:2.11667px;font-family:'Futura Md BT';-inkscape-font-specification:'Futura Md BT';letter-spacing:0px;fill:#4d4d4d;stroke-width:0.740833;stroke-linecap:round;stroke-linejoin:round;stroke-dasharray:0.740833, 4.445;paint-order:stroke markers fill"
         id="path20" /><path
         d="M 36.561592,3.1527791 35.82882,4.7258097 h 0.258382 l 0.1757,-0.3896403 h 0.599447 l 0.171566,0.3896403 h 0.259415 z m 0.0021,0.4619873 c 0.0096,0.03514 0.01929,0.067179 0.02894,0.096118 0.0096,0.02825 0.01894,0.053399 0.0279,0.075448 l 0.155029,0.3451986 h -0.421679 l 0.155029,-0.3451986 c 0.0096,-0.024115 0.01895,-0.050298 0.0279,-0.078548 0.0096,-0.028939 0.01861,-0.059945 0.02687,-0.093018 z"
         style="font-size:2.11667px;font-family:'Futura Md BT';-inkscape-font-specification:'Futura Md BT';letter-spacing:0px;fill:#4d4d4d;stroke-width:0.740833;stroke-linecap:round;stroke-linejoin:round;stroke-dasharray:0.740833, 4.445;paint-order:stroke markers fill"
         id="path19" /><path
         d="m 29.043705,3.1527791 -0.732772,1.5730306 h 0.258382 l 0.1757,-0.3896403 h 0.599447 l 0.171565,0.3896403 h 0.259416 z m 0.0021,0.4619873 c 0.0096,0.03514 0.01929,0.067179 0.02894,0.096118 0.0096,0.02825 0.01894,0.053399 0.02791,0.075448 l 0.155029,0.3451986 h -0.42168 l 0.15503,-0.3451986 c 0.0096,-0.024115 0.01894,-0.050298 0.0279,-0.078548 0.0096,-0.028939 0.01861,-0.059945 0.02687,-0.093018 z"
         style="font-size:2.11667px;font-family:'Futura Md BT';-inkscape-font-specification:'Futura Md BT';letter-spacing:0px;fill:#4d4d4d;stroke-width:0.740833;stroke-linecap:round;stroke-linejoin:round;stroke-dasharray:0.740833, 4.445;paint-order:stroke markers fill"
         id="path18" /><path
         d="m 23.86676,3.1527791 v 1.5730306 h 0.226343 V 3.6736775 c 0.02205,0.031006 0.04513,0.060633 0.06925,0.088883 0.02481,0.028249 0.0503,0.055121 0.07648,0.080615 l 0.980819,0.9415446 V 3.2127237 h -0.227376 v 1.0490316 c -0.02963,-0.037207 -0.05788,-0.070624 -0.08475,-0.1002523 -0.02687,-0.029628 -0.0534,-0.057533 -0.07958,-0.083716 z"
         style="font-size:2.11667px;font-family:'Futura Md BT';-inkscape-font-specification:'Futura Md BT';letter-spacing:0px;fill:#4d4d4d;stroke-width:0.740833;stroke-linecap:round;stroke-linejoin:round;stroke-dasharray:0.740833, 4.445;paint-order:stroke markers fill"
         id="path17" /></g></g></svg>
