<?xml version="1.0" encoding="UTF-8" standalone="no"?>
<!-- Created with Inkscape (http://www.inkscape.org/) -->

<svg
   width="145"
   height="30"
   viewBox="0 0 38.364582 7.9375"
   version="1.1"
   id="svg1"
   inkscape:version="1.3.2 (1:1.3.2+202311252150+091e20ef0f)"
   sodipodi:docname="navbar_logo.svg"
   xml:space="preserve"
   xmlns:inkscape="http://www.inkscape.org/namespaces/inkscape"
   xmlns:sodipodi="http://sodipodi.sourceforge.net/DTD/sodipodi-0.dtd"
   xmlns="http://www.w3.org/2000/svg"
   xmlns:svg="http://www.w3.org/2000/svg"><sodipodi:namedview
     id="namedview1"
     pagecolor="#ffffff"
     bordercolor="#000000"
     borderopacity="0.25"
     inkscape:showpageshadow="false"
     inkscape:pageopacity="0.0"
     inkscape:pagecheckerboard="0"
     inkscape:deskcolor="#d1d1d1"
     inkscape:document-units="px"
     inkscape:zoom="5.981798"
     inkscape:cx="103.22983"
     inkscape:cy="14.460535"
     inkscape:window-width="2518"
     inkscape:window-height="1392"
     inkscape:window-x="2594"
     inkscape:window-y="0"
     inkscape:window-maximized="1"
     inkscape:current-layer="layer1" /><defs
     id="defs1" /><g
     inkscape:label="Livello 1"
     inkscape:groupmode="layer"
     id="layer1"><g
       id="g12"
       transform="translate(0.08731201,-0.24623825)"><rect
         style="fill:#d40000;stroke:none;stroke-width:0.740833;stroke-linecap:round;stroke-linejoin:round;stroke-dasharray:0.740833, 4.445;paint-order:stroke markers fill"
         id="rect1"
         width="6.8791666"
         height="6.8791666"
         x="0.52916664"
         y="0.5291667"
         rx="0.79374999"
         ry="0.79374999" /><path
         d="m 32.694218,1.6695172 v 4.0718827 h 0.838879 V 1.6695172 Z"
         style="font-weight:bold;font-size:8.69663px;font-family:Roboto;-inkscape-font-specification:'Roboto Bold';letter-spacing:0px;fill:#d40000;stroke-width:2.00451;stroke-linecap:round;stroke-linejoin:round;stroke-dasharray:2.00451, 12.0271;paint-order:stroke markers fill"
         id="path8" /><path
         d="m 28.848986,1.6695172 v 0.6796114 h 1.230583 v 3.3922713 h 0.83888 V 2.3491286 h 1.244536 V 1.6695172 Z"
         style="font-weight:bold;font-size:8.69663px;font-family:Roboto;-inkscape-font-specification:'Roboto Bold';letter-spacing:0px;fill:#d40000;stroke-width:2.00451;stroke-linecap:round;stroke-linejoin:round;stroke-dasharray:2.00451, 12.0271;paint-order:stroke markers fill"
         id="path7" /><path
         d="m 22.355754,1.6695172 v 4.0718827 h 2.732058 V 5.0645111 H 23.197356 V 3.9768607 H 24.80535 V 3.3197102 H 23.197356 V 2.3491286 h 1.881948 V 1.6695172 Z"
         style="font-weight:bold;font-size:8.69663px;font-family:Roboto;-inkscape-font-specification:'Roboto Bold';letter-spacing:0px;fill:#d40000;stroke-width:2.00451;stroke-linecap:round;stroke-linejoin:round;stroke-dasharray:2.00451, 12.0271;paint-order:stroke markers fill"
         id="path6" /><path
         d="m 19.673723,1.6695172 -1.515428,4.0718827 h 0.889246 l 0.2794,-0.8388793 h 1.473909 l 0.27974,0.8388793 h 0.894691 L 20.451345,1.6695172 Z m 0.391703,1.023671 0.508773,1.529721 h -1.020608 z"
         style="font-weight:bold;font-size:8.69663px;font-family:Roboto;-inkscape-font-specification:'Roboto Bold';letter-spacing:0px;fill:#d40000;stroke-width:2.00451;stroke-linecap:round;stroke-linejoin:round;stroke-dasharray:2.00451, 12.0271;paint-order:stroke markers fill"
         id="path5" /><path
         d="m 14.752071,1.6695172 v 2.6847541 c 0,0.4735361 0.14631,0.832535 0.439008,1.0767602 0.292697,0.2442254 0.667306,0.3661802 1.124063,0.3661802 0.451165,0 0.824058,-0.1219548 1.11862,-0.3661802 0.294562,-0.2442252 0.442071,-0.6032241 0.442071,-1.0767602 V 1.6695172 h -0.841942 v 2.7211679 c -0.01119,0.4865863 -0.250805,0.7296378 -0.718749,0.7296378 -0.225582,0 -0.402595,-0.060549 -0.531233,-0.1817288 C 15.657136,4.8174136 15.593672,4.6227327 15.593672,4.3542713 V 1.6695172 Z"
         style="font-weight:bold;font-size:8.69663px;font-family:Roboto;-inkscape-font-specification:'Roboto Bold';letter-spacing:0px;fill:#d40000;stroke-width:2.00451;stroke-linecap:round;stroke-linejoin:round;stroke-dasharray:2.00451, 12.0271;paint-order:stroke markers fill"
         id="path4" /><path
         d="m 35.924159,1.6137054 c -0.510823,0 -0.927454,0.1790703 -1.249981,0.5370189 -0.322527,0.3560841 -0.48393,0.8445843 -0.48393,1.4654012 v 0.1817289 c 0,0.620817 0.162261,1.1093171 0.486652,1.4654013 0.324391,0.3560842 0.741882,0.533956 1.252704,0.533956 0.510822,0 0.926597,-0.1778718 1.247259,-0.533956 0.322527,-0.3560842 0.483929,-0.8445843 0.483929,-1.4654013 V 3.6161255 c 0,-0.6208169 -0.162261,-1.1093171 -0.486652,-1.4654012 C 36.851614,1.7927757 36.434982,1.6137054 35.924159,1.6137054 Z m 0,0.6935642 c 0.281511,0 0.49969,0.1109758 0.654428,0.3328293 0.154738,0.2218534 0.232096,0.5451774 0.232096,0.9702413 v 0.2014671 c -0.0018,0.419471 -0.07922,0.7402203 -0.232096,0.9620738 -0.15101,0.2218535 -0.367472,0.3324889 -0.648983,0.3324889 -0.283376,0 -0.502412,-0.1118339 -0.65715,-0.3355517 C 35.117716,4.545236 35.040358,4.2210539 35.040358,3.7978544 V 3.5963872 c 0.0018,-0.4213352 0.07922,-0.740886 0.232096,-0.9590109 0.152873,-0.2199891 0.370193,-0.3301067 0.651705,-0.3301067 z"
         style="font-weight:bold;font-size:8.69663px;font-family:Roboto;-inkscape-font-specification:'Roboto Bold';letter-spacing:0px;fill:#d40000;stroke-width:2.00451;stroke-linecap:round;stroke-linejoin:round;stroke-dasharray:2.00451, 12.0271;paint-order:stroke markers fill"
         id="path3" /><path
         d="m 27.036803,1.6137054 c -0.439978,0 -0.800694,0.1042875 -1.082205,0.3130908 -0.281512,0.2088034 -0.421993,0.4837566 -0.421993,0.8249263 0,0.35422 0.137048,0.6274568 0.411102,0.8194813 0.261005,0.1845672 0.570435,0.335509 0.928383,0.4529608 0.359813,0.1155875 0.586055,0.2190168 0.679271,0.3103683 0.09322,0.089487 0.13987,0.2025196 0.13987,0.3386146 0,0.1305021 -0.05214,0.239421 -0.156545,0.3270438 -0.102538,0.087623 -0.261884,0.131362 -0.478145,0.131362 -0.240496,0 -0.435177,-0.050087 -0.584323,-0.15076 -0.14728,-0.1006731 -0.221205,-0.275112 -0.221205,-0.5230659 h -0.841602 c 0,0.307612 0.08113,0.5602666 0.243326,0.757884 0.162196,0.1976174 0.369054,0.3439278 0.620737,0.4390079 0.251682,0.09508 0.512742,0.1425924 0.783067,0.1425924 0.447436,0 0.805237,-0.098798 1.073698,-0.2964153 0.268461,-0.1994818 0.402934,-0.47735 0.402934,-0.8334343 0,-0.3355767 -0.114749,-0.6058986 -0.34406,-0.8109734 C 27.961667,3.6513141 27.625307,3.4809886 27.179735,3.3448936 26.916867,3.264728 26.716356,3.1798243 26.578397,3.0903371 26.440438,3.00085 26.371485,2.889016 26.371485,2.7547854 c 0,-0.1305021 0.053,-0.2414777 0.159268,-0.3328292 0.10813,-0.093216 0.272108,-0.1398699 0.492097,-0.1398699 0.225582,0 0.393673,0.055059 0.503668,0.1650533 0.109994,0.1099946 0.164713,0.2508153 0.164713,0.4223323 h 0.839219 c 0,-0.3654057 -0.136189,-0.6655727 -0.408379,-0.9004765 -0.27219,-0.236768 -0.634104,-0.35529 -1.085268,-0.35529 z"
         style="font-weight:bold;font-size:8.69663px;font-family:Roboto;-inkscape-font-specification:'Roboto Bold';letter-spacing:0px;fill:#d40000;stroke-width:2.00451;stroke-linecap:round;stroke-linejoin:round;stroke-dasharray:2.00451, 12.0271;paint-order:stroke markers fill"
         id="path2" /><path
         d="m 11.077877,0.52916666 c -0.775675,0 -1.4083245,0.27191531 -1.8980756,0.81545414 -0.4897511,0.5407078 -0.7343221,1.282487 -0.7343221,2.2251871 v 0.2759522 c 0,0.9427001 0.2463909,1.684479 0.738973,2.2251871 0.492582,0.5407079 1.1265347,0.8108032 1.9022097,0.8108032 0.164194,0 0.322552,-0.012762 0.475423,-0.03824 L 12.874149,7.9008097 13.681335,7.183024 12.662276,6.3763549 C 12.990664,6.1215711 13.247997,5.779329 13.434839,5.3490275 13.62168,4.9187259 13.714925,4.4176082 13.714925,3.8457601 V 3.5698079 c 0,-0.9427001 -0.244571,-1.6844793 -0.734322,-2.2251871 -0.489751,-0.54353883 -1.12422,-0.81545414 -1.902726,-0.81545414 z m 0,1.05316564 c 0.427471,0 0.75877,0.1685148 0.993738,0.5053956 0.234967,0.3368807 0.352433,0.8278427 0.352433,1.473295 v 0.3059245 c -0.0028,0.6369595 -0.120297,1.1240119 -0.352433,1.4608927 -0.229306,0.3368808 -0.557482,0.5048788 -0.984953,0.5048788 -0.427471,0 -0.760074,-0.1698179 -0.997872,-0.5095296 C 9.8538224,4.9806465 9.7363565,4.4883814 9.7363565,3.8457601 V 3.5398356 C 9.7391875,2.9000451 9.8566533,2.4148127 10.08879,2.0835937 10.323757,1.7495439 10.653237,1.5823323 11.077877,1.5823323 Z"
         style="font-weight:bold;font-size:8.69663px;font-family:Roboto;-inkscape-font-specification:'Roboto Bold';letter-spacing:0px;fill:#d40000;stroke-width:3.04381;stroke-linecap:round;stroke-linejoin:round;stroke-dasharray:3.04381, 18.2629;paint-order:stroke markers fill"
         id="path1" /><g
         id="g11"
         transform="matrix(0.67537816,0,0,0.67537816,-0.34820333,7.4945932)"><path
           style="fill:#ffffff;stroke-width:0.0163834"
           d="m 6.8828306,-8.4718611 c -1.0333981,-1.033398 -2.7088609,-1.033398 -3.7422589,0 -1.0333817,1.0333817 -1.0333981,2.7088445 0,3.7422589 0.940193,0.9401767 2.4103556,1.0219953 3.4464078,0.251403 L 6.9939754,-4.0712033 7.5412458,-4.6184737 7.1342499,-5.0254696 C 7.9048422,-6.0615382 7.8230236,-7.5316844 6.8828306,-8.4718611 Z M 6.4401025,-5.2589 c -0.7888762,0.7888761 -2.0679103,0.7888761 -2.8568028,0 -0.7888761,-0.7888762 -0.7888597,-2.0679102 1.64e-5,-2.8567864 0.7888761,-0.7888761 2.0679102,-0.7888761 2.8567864,0 0.7888761,0.7888762 0.7888925,2.0679102 0,2.8567864 z"
           id="path2-4" /><path
           style="fill:#ffffff;stroke-width:0.0163834"
           d="m 7.7017046,-4.7789325 -0.868188,0.868188 c -0.042531,0.042531 -0.042531,0.111489 1.64e-5,0.1540366 l 2.5306096,2.530626 c 0.042548,0.042531 0.1115053,0.042531 0.1540529,0 L 10.386384,-2.09427 c 0.04253,-0.042548 0.04253,-0.1115052 0,-0.1540529 L 7.8557576,-4.7789325 c -0.042531,-0.042548 -0.1115053,-0.042548 -0.154053,0 z"
           id="path3-8" /><rect
           x="-8.9339771"
           y="-2.7532403"
           transform="rotate(135)"
           style="fill:#666666;stroke-width:0.0163832"
           width="1.445623"
           height="0.27748269"
           id="rect3" /></g></g></g></svg>
