<?xml version="1.0" encoding="UTF-8" standalone="no"?>
<!-- Created with Inkscape (http://www.inkscape.org/) -->

<svg
   width="32"
   height="32"
   viewBox="0 0 8.466666 8.4666667"
   version="1.1"
   id="svg1"
   inkscape:version="1.3.2 (1:1.3.2+202311252150+091e20ef0f)"
   sodipodi:docname="mar_logo.svg"
   xml:space="preserve"
   xmlns:inkscape="http://www.inkscape.org/namespaces/inkscape"
   xmlns:sodipodi="http://sodipodi.sourceforge.net/DTD/sodipodi-0.dtd"
   xmlns="http://www.w3.org/2000/svg"
   xmlns:svg="http://www.w3.org/2000/svg"><sodipodi:namedview
     id="namedview1"
     pagecolor="#ffffff"
     bordercolor="#000000"
     borderopacity="0.25"
     inkscape:showpageshadow="false"
     inkscape:pageopacity="0.0"
     inkscape:pagecheckerboard="0"
     inkscape:deskcolor="#d1d1d1"
     inkscape:document-units="px"
     inkscape:zoom="9.2734375"
     inkscape:cx="19.7877"
     inkscape:cy="41.354676"
     inkscape:window-width="2518"
     inkscape:window-height="1392"
     inkscape:window-x="2594"
     inkscape:window-y="0"
     inkscape:window-maximized="1"
     inkscape:current-layer="layer1" /><defs
     id="defs1" /><g
     inkscape:label="Livello 1"
     inkscape:groupmode="layer"
     id="layer1"><path
       d="m 0.52916621,3.1750001 v 4.4979164 c 0,0.438216 0.3555344,0.7937498 0.79374999,0.7937498 h 5.8208335 c 0.4382155,0 0.7937504,-0.3555338 0.7937504,-0.7937498 V 3.1750001 Z"
       style="fill:#999999;stroke-width:0.0165364"
       id="path55"
       sodipodi:nodetypes="csssscc" /><path
       d="M 2.6458332,0 C 2.3531381,0 2.1166665,0.23647164 2.1166665,0.52916671 V 1.0583334 H 1.3229162 c -0.43821559,0 -0.79374999,0.3555342 -0.79374999,0.7937499 V 2.6458334 H 7.9375001 V 1.8520833 c 0,-0.4382157 -0.3555349,-0.7937499 -0.7937504,-0.7937499 H 6.3499999 V 0.52916671 C 6.3499999,0.23647164 6.1135284,0 5.8208335,0 5.528138,0 5.2916666,0.23647164 5.2916666,0.52916671 V 1.0583334 H 3.1749997 V 0.52916671 C 3.1749997,0.23647164 2.9385281,0 2.6458332,0 Z"
       style="fill:#d40000;stroke-width:0.0165364"
       id="path54" /><path
       d="m 1.4432535,3.8806406 c -0.1402694,0 -0.2550357,0.1147661 -0.2550357,0.255036 v 0.5100719 c 0,0.140269 0.1147663,0.2550359 0.2550357,0.2550359 h 0.5100719 c 0.1402694,0 0.2550363,-0.1147669 0.2550363,-0.2550359 V 4.1356766 c 0,-0.1402699 -0.1147669,-0.255036 -0.2550363,-0.255036 z"
       style="fill:#ffffff;stroke-width:0.0159397"
       id="path59" /><path
       d="m 3.1332835,3.8806406 c -0.1402699,0 -0.2550359,0.1147661 -0.2550359,0.255036 v 0.5100719 c 0,0.140269 0.114766,0.2550359 0.2550359,0.2550359 h 0.5100717 c 0.1402696,0 0.255036,-0.1147669 0.255036,-0.2550359 V 4.1356766 c 0,-0.1402699 -0.1147664,-0.255036 -0.255036,-0.255036 z"
       style="fill:#ffffff;stroke-width:0.0159397"
       id="path62" /><path
       d="m 4.8233135,3.8806406 c -0.1402699,0 -0.2550362,0.1147661 -0.2550362,0.255036 v 0.5100719 c 0,0.140269 0.1147663,0.2550359 0.2550362,0.2550359 H 5.333385 c 0.1402698,0 0.2550357,-0.1147669 0.2550357,-0.2550359 V 4.1356766 c 0,-0.1402699 -0.1147659,-0.255036 -0.2550357,-0.255036 z"
       style="fill:#d40000;stroke-width:0.0159397;fill-opacity:1"
       id="path63" /><path
       d="m 6.5133423,3.8806406 c -0.1402699,0 -0.2550357,0.1147661 -0.2550357,0.255036 v 0.5100719 c 0,0.140269 0.1147658,0.2550359 0.2550357,0.2550359 h 0.5100714 c 0.1402699,0 0.2550363,-0.1147669 0.2550363,-0.2550359 V 4.1356766 c 0,-0.1402699 -0.1147664,-0.255036 -0.2550363,-0.255036 z"
       style="fill:#ffffff;stroke-width:0.0159397"
       id="path64" /><path
       d="m 1.4432535,5.2190104 c -0.1402694,0 -0.2550357,0.1147658 -0.2550357,0.2550357 v 0.510072 c 0,0.1402693 0.1147663,0.2550363 0.2550357,0.2550363 h 0.5100719 c 0.1402694,0 0.2550363,-0.114767 0.2550363,-0.2550363 v -0.510072 c 0,-0.1402699 -0.1147669,-0.2550357 -0.2550363,-0.2550357 z"
       style="fill:#ffffff;stroke-width:0.0159397"
       id="path65" /><path
       d="m 3.1332835,5.2190104 c -0.1402699,0 -0.2550359,0.1147658 -0.2550359,0.2550357 v 0.510072 c 0,0.1402693 0.114766,0.2550363 0.2550359,0.2550363 h 0.5100717 c 0.1402696,0 0.255036,-0.114767 0.255036,-0.2550363 v -0.510072 c 0,-0.1402699 -0.1147664,-0.2550357 -0.255036,-0.2550357 z"
       style="fill:#ffffff;stroke-width:0.0159397"
       id="path66" /><path
       d="m 4.8233135,5.2190104 c -0.1402698,0 -0.2550361,0.1147658 -0.2550361,0.2550357 v 0.510072 c 0,0.1402693 0.1147663,0.2550363 0.2550361,0.2550363 H 5.333385 c 0.1402698,0 0.2550357,-0.114767 0.2550357,-0.2550363 v -0.510072 c 0,-0.1402699 -0.1147659,-0.2550357 -0.2550357,-0.2550357 z"
       style="fill:#ffffff;stroke-width:0.0159397"
       id="path67" /><path
       d="m 6.5133423,5.2190104 c -0.1402699,0 -0.2550357,0.1147658 -0.2550357,0.2550357 v 0.510072 c 0,0.1402693 0.1147658,0.2550363 0.2550357,0.2550363 h 0.5100714 c 0.1402699,0 0.2550363,-0.114767 0.2550363,-0.2550363 v -0.510072 c 0,-0.1402699 -0.1147664,-0.2550357 -0.2550363,-0.2550357 z"
       style="fill:#ffffff;stroke-width:0.0159397"
       id="path68" /><path
       d="m 1.4432535,6.4521944 c -0.1402694,0 -0.2550357,0.1147653 -0.2550357,0.2550357 v 0.5100714 c 0,0.1402694 0.1147663,0.2550368 0.2550357,0.2550368 h 0.5100719 c 0.1402694,0 0.2550363,-0.1147674 0.2550363,-0.2550368 V 6.7072301 c 0,-0.1402704 -0.1147669,-0.2550357 -0.2550363,-0.2550357 z"
       style="fill:#ffffff;stroke-width:0.0159397"
       id="path69" /><path
       d="m 3.1332835,6.4521944 c -0.1402699,0 -0.2550359,0.1147653 -0.2550359,0.2550357 v 0.5100714 c 0,0.1402694 0.114766,0.2550368 0.2550359,0.2550368 h 0.5100717 c 0.1402696,0 0.255036,-0.1147674 0.255036,-0.2550368 V 6.7072301 c 0,-0.1402704 -0.1147664,-0.2550357 -0.255036,-0.2550357 z"
       style="fill:#ffffff;stroke-width:0.0159397"
       id="path70" /><path
       d="m 4.8233135,6.4521944 c -0.1402698,0 -0.2550361,0.1147653 -0.2550361,0.2550357 v 0.5100714 c 0,0.1402694 0.1147663,0.2550368 0.2550361,0.2550368 H 5.333385 c 0.1402698,0 0.2550357,-0.1147674 0.2550357,-0.2550368 V 6.7072301 c 0,-0.1402704 -0.1147659,-0.2550357 -0.2550357,-0.2550357 z"
       style="fill:#ffffff;stroke-width:0.0159397"
       id="path71" /><path
       d="m 6.5133423,6.4521944 c -0.1402699,0 -0.2550357,0.1147653 -0.2550357,0.2550357 v 0.5100714 c 0,0.1402694 0.1147658,0.2550368 0.2550357,0.2550368 h 0.5100714 c 0.1402699,0 0.2550363,-0.1147674 0.2550363,-0.2550368 V 6.7072301 c 0,-0.1402704 -0.1147664,-0.2550357 -0.2550363,-0.2550357 z"
       style="fill:#ffffff;stroke-width:0.0159397"
       id="path72" /><path
       d="M 3.2292601,1.5988688 V 1.7332275 H 3.5754922 L 3.231844,2.2277709 v 0.091467 H 3.7925332 V 2.185913 H 3.448885 L 3.7894326,1.688269 v -0.0894 z"
       style="font-weight:900;font-size:1.0131px;font-family:Roboto;-inkscape-font-specification:'Roboto Heavy';letter-spacing:0px;fill:#ffffff;stroke-width:0.354585;stroke-linecap:round;stroke-linejoin:round;stroke-dasharray:0.354585, 2.12751;paint-order:stroke markers fill"
       id="path5" /><path
       d="m 2.5926065,1.5988688 v 0.7203694 h 0.1736328 v -0.254248 h 0.093534 l 0.127124,0.254248 h 0.1860351 v -0.00723 L 3.0230712,2.021582 c 0.037925,-0.017809 0.068195,-0.042755 0.09095,-0.074414 0.023085,-0.031659 0.034623,-0.074821 0.034623,-0.1302246 0,-0.070904 -0.024946,-0.1248113 -0.074414,-0.1617472 -0.049138,-0.037266 -0.1148149,-0.056327 -0.1979207,-0.056327 z m 0.1736328,0.1343587 h 0.1126546 c 0.063978,9.893e-4 0.096118,0.033922 0.096118,0.099219 0,0.065627 -0.032745,0.098702 -0.098702,0.098702 H 2.7662393 Z"
       style="font-weight:900;font-size:1.0131px;font-family:Roboto;-inkscape-font-specification:'Roboto Heavy';letter-spacing:0px;fill:#ffffff;stroke-width:0.354585;stroke-linecap:round;stroke-linejoin:round;stroke-dasharray:0.354585, 2.12751;paint-order:stroke markers fill"
       id="path4" /><path
       d="M 2.1104654,1.5988688 1.8458821,2.3192382 h 0.1860351 l 0.041858,-0.1343587 h 0.2377115 l 0.041858,0.1343587 H 2.5404133 L 2.2742797,1.5988688 Z m 0.082166,0.2010213 0.077515,0.2506307 H 2.1151163 Z"
       style="font-weight:900;font-size:1.0131px;font-family:Roboto;-inkscape-font-specification:'Roboto Heavy';letter-spacing:0px;fill:#ffffff;stroke-width:0.354585;stroke-linecap:round;stroke-linejoin:round;stroke-dasharray:0.354585, 2.12751;paint-order:stroke markers fill"
       id="path3" /><path
       d="M 1.0056233,1.5988688 V 2.3192382 H 1.1792561 V 2.1512898 L 1.1627197,1.806608 1.3368693,2.3192382 H 1.4515909 L 1.6257405,1.806608 1.6086873,2.1512898 V 2.3192382 H 1.7828368 V 1.5988688 H 1.5549438 L 1.3942301,2.1001301 1.2329996,1.5988688 Z"
       style="font-weight:900;font-size:1.0131px;font-family:Roboto;-inkscape-font-specification:'Roboto Heavy';letter-spacing:0px;fill:#ffffff;stroke-width:0.354585;stroke-linecap:round;stroke-linejoin:round;stroke-dasharray:0.354585, 2.12751;paint-order:stroke markers fill"
       id="path2" /><path
       d="m 4.1532347,1.5890502 c -0.092669,0 -0.1681576,0.031953 -0.2268595,0.095601 -0.058372,0.063319 -0.08785,0.1503011 -0.08785,0.2604492 v 0.028939 c 0,0.1101483 0.029665,0.1971306 0.088367,0.2604492 0.059032,0.063319 0.1347068,0.094568 0.2273763,0.094568 0.09201,0 0.1676409,-0.031249 0.2263428,-0.094568 0.058702,-0.063319 0.08785,-0.1503011 0.08785,-0.2604492 v -0.028939 c 0,-0.1101482 -0.029335,-0.1971306 -0.088367,-0.2604492 C 4.3210627,1.621003 4.2452446,1.5890502 4.1532347,1.5890502 Z m 0,0.1364258 c 0.046499,0 0.081301,0.018171 0.1043864,0.054777 0.023085,0.036606 0.034623,0.091262 0.034623,0.1638143 v 0.033073 c -3.3e-4,0.069585 -0.012616,0.1231184 -0.03669,0.1607137 -0.023745,0.037266 -0.057424,0.055811 -0.1012858,0.055811 -0.04617,0 -0.080972,-0.018919 -0.1043864,-0.056844 -0.023085,-0.037925 -0.034623,-0.092207 -0.034623,-0.1627808 l 5.168e-4,-0.05581 C 4.021052,1.789613 4.0668311,1.725476 4.1532347,1.725476 Z"
       style="font-weight:900;font-size:1.0131px;font-family:Roboto;-inkscape-font-specification:'Roboto Heavy';letter-spacing:0px;fill:#ffffff;stroke-width:0.354585;stroke-linecap:round;stroke-linejoin:round;stroke-dasharray:0.354585, 2.12751;paint-order:stroke markers fill"
       id="path1" /></g></svg>
