<?xml version="1.0" encoding="UTF-8" standalone="no"?>
<!-- Created with Inkscape (http://www.inkscape.org/) -->

<svg
   width="32"
   height="32"
   viewBox="0 0 8.466666 8.4666667"
   version="1.1"
   id="svg1"
   inkscape:version="1.3.2 (1:1.3.2+202311252150+091e20ef0f)"
   sodipodi:docname="categories_logo.svg"
   xml:space="preserve"
   xmlns:inkscape="http://www.inkscape.org/namespaces/inkscape"
   xmlns:sodipodi="http://sodipodi.sourceforge.net/DTD/sodipodi-0.dtd"
   xmlns="http://www.w3.org/2000/svg"
   xmlns:svg="http://www.w3.org/2000/svg"><sodipodi:namedview
     id="namedview1"
     pagecolor="#ffffff"
     bordercolor="#000000"
     borderopacity="0.25"
     inkscape:showpageshadow="false"
     inkscape:pageopacity="0.0"
     inkscape:pagecheckerboard="0"
     inkscape:deskcolor="#d1d1d1"
     inkscape:document-units="px"
     inkscape:zoom="9.2734374"
     inkscape:cx="-11.700084"
     inkscape:cy="-8.0336985"
     inkscape:window-width="2518"
     inkscape:window-height="1392"
     inkscape:window-x="2594"
     inkscape:window-y="0"
     inkscape:window-maximized="1"
     inkscape:current-layer="layer1" /><defs
     id="defs1" /><g
     inkscape:label="Livello 1"
     inkscape:groupmode="layer"
     id="layer1"><g
       id="g5"
       transform="matrix(0.9952211,0,0,0.9952211,-0.74805099,-0.35379476)"><path
         id="rect1"
         style="fill:#d40000;fill-opacity:1;stroke-width:0.740833;stroke-linecap:round;stroke-linejoin:round;stroke-dasharray:0.740833, 4.445;paint-order:stroke markers fill"
         d="m 0.97875159,0.79374997 c -0.10260531,0 -0.18500162,0.0823963 -0.18500162,0.18500162 V 7.4879148 c 0,0.1026053 0.0823963,0.1850016 0.18500162,0.1850016 H 4.8276121 L 2.1114989,6.9453122 C 2.0258751,6.9223694 1.9753847,6.8350824 1.9983276,6.7494586 L 3.4535358,1.317749 C 3.4764787,1.2321251 3.5642824,1.1816348 3.6499063,1.2045776 L 7.6729164,2.2825479 V 0.97875159 c 0,-0.10260531 -0.082396,-0.18500162 -0.1850016,-0.18500162 z" /><path
         id="rect3"
         style="fill:#d40000;fill-opacity:1;stroke-width:0.584419;stroke-linecap:round;stroke-linejoin:round;stroke-dasharray:0.584419, 3.50651;paint-order:stroke markers fill"
         d="m 4.0517925,0.48025224 c -0.066697,0.0135792 -0.1168018,0.0722864 -0.1168018,0.14311065 l 2.538e-4,5.13426721 c 0,0.080942 0.0653,0.1464575 0.1462419,0.1464575 L 6.6735026,5.9039808 4.8037298,5.4029416 C 4.736199,5.3848468 4.6961727,5.3162908 4.7142675,5.24876 L 5.8619937,0.96461902 c 0.018095,-0.0675308 0.087284,-0.10719168 0.1548145,-0.0890969 L 9.3621006,1.7719179 9.3619573,0.62332465 c 0,-0.080942 -0.065166,-0.14595829 -0.1461081,-0.14595829 l -5.134401,-2.4538e-4 c -0.010118,0 -0.020128,0.001191 -0.029656,0.003131 z"
         transform="rotate(15)" /><rect
         style="fill:#d40000;fill-opacity:1;stroke-width:0.461253;stroke-linecap:round;stroke-linejoin:round;stroke-dasharray:0.461253, 2.76751;paint-order:stroke markers fill"
         id="rect5"
         width="4.2830658"
         height="4.2830658"
         x="6.1141443"
         y="-0.50943381"
         rx="0.11531328"
         ry="0.11531328"
         transform="rotate(30)" /></g></g></svg>
