<?xml version="1.0" encoding="UTF-8" standalone="no"?>
<!-- Created with Inkscape (http://www.inkscape.org/) -->

<svg
   xmlns:dc="http://purl.org/dc/elements/1.1/"
   xmlns:cc="http://creativecommons.org/ns#"
   xmlns:rdf="http://www.w3.org/1999/02/22-rdf-syntax-ns#"
   xmlns:svg="http://www.w3.org/2000/svg"
   xmlns="http://www.w3.org/2000/svg"
   xmlns:sodipodi="http://sodipodi.sourceforge.net/DTD/sodipodi-0.dtd"
   xmlns:inkscape="http://www.inkscape.org/namespaces/inkscape"
   width="64"
   height="64"
   viewBox="0 0 16.933333 16.933334"
   version="1.1"
   id="svg8"
   inkscape:version="0.92.5 (2060ec1f9f, 2020-04-08)"
   sodipodi:docname="Filcams.svg">
  <defs
     id="defs2" />
  <sodipodi:namedview
     id="base"
     pagecolor="#ffffff"
     bordercolor="#666666"
     borderopacity="1.0"
     inkscape:pageopacity="0.0"
     inkscape:pageshadow="2"
     inkscape:zoom="6.8828125"
     inkscape:cx="4.832803"
     inkscape:cy="28.834523"
     inkscape:document-units="px"
     inkscape:current-layer="layer1"
     showgrid="false"
     units="px"
     inkscape:showpageshadow="false"
     inkscape:window-width="2532"
     inkscape:window-height="1056"
     inkscape:window-x="28"
     inkscape:window-y="0"
     inkscape:window-maximized="1" />
  <metadata
     id="metadata5">
    <rdf:RDF>
      <cc:Work
         rdf:about="">
        <dc:format>image/svg+xml</dc:format>
        <dc:type
           rdf:resource="http://purl.org/dc/dcmitype/StillImage" />
        <dc:title></dc:title>
      </cc:Work>
    </rdf:RDF>
  </metadata>
  <g
     inkscape:label="Livello 1"
     inkscape:groupmode="layer"
     id="layer1"
     transform="translate(0,-280.06665)">
    <rect
       style="fill:#d00000;fill-opacity:1;stroke:none;stroke-width:0.26458335"
       id="rect880"
       width="16.933334"
       height="16.933334"
       x="0"
       y="280.06665" />
    <g
       id="g915"
       transform="matrix(0.8898254,0,0,0.8898254,0.93281189,38.223075)">
      <path
         d="m 0,289.79422 v -2.52181 h 1.6863742 v 0.68385 H 0.90778263 v 0.29283 H 1.6123046 v 0.64596 H 0.90778263 v 0.89917 z"
         style="font-style:normal;font-variant:normal;font-weight:normal;font-stretch:normal;font-size:3.52777767px;line-height:1.25;font-family:'Futura XBlk BT';-inkscape-font-specification:'Futura XBlk BT';letter-spacing:0px;word-spacing:0px;fill:#ffffff;fill-opacity:1;stroke:none;stroke-width:0.26458335"
         id="path886"
         inkscape:connector-curvature="0" />
      <path
         d="m 2.0668854,289.79422 v -2.52181 h 0.921563 v 2.52181 z"
         style="font-style:normal;font-variant:normal;font-weight:normal;font-stretch:normal;font-size:3.52777767px;line-height:1.25;font-family:'Futura XBlk BT';-inkscape-font-specification:'Futura XBlk BT';letter-spacing:0px;word-spacing:0px;fill:#ffffff;fill-opacity:1;stroke:none;stroke-width:0.26458335"
         id="path888"
         inkscape:connector-curvature="0" />
      <path
         d="m 3.3689595,289.79422 v -2.52181 h 0.9077827 v 1.7036 h 0.8819444 v 0.81821 z"
         style="font-style:normal;font-variant:normal;font-weight:normal;font-stretch:normal;font-size:3.52777767px;line-height:1.25;font-family:'Futura XBlk BT';-inkscape-font-specification:'Futura XBlk BT';letter-spacing:0px;word-spacing:0px;fill:#ffffff;fill-opacity:1;stroke:none;stroke-width:0.26458335"
         id="path890"
         inkscape:connector-curvature="0" />
      <path
         d="m 7.4822313,288.26981 q -0.1240234,-0.11886 -0.2532145,-0.17743 -0.1291911,-0.0586 -0.2721625,-0.0586 -0.2222087,0 -0.35829,0.1378 -0.1343587,0.13608 -0.1343587,0.36346 0,0.22221 0.1291911,0.35484 0.1291911,0.13264 0.3462321,0.13264 0.1309136,0 0.2652723,-0.0551 0.1360813,-0.0568 0.2962782,-0.17915 l -0.029283,0.94913 q -0.1481391,0.0603 -0.2962782,0.0896 -0.1481391,0.031 -0.2962782,0.031 -0.1843126,0 -0.3548448,-0.0414 -0.1705322,-0.0413 -0.308336,-0.11713 -0.3341743,-0.19292 -0.5064291,-0.48748 -0.1705322,-0.29456 -0.1705322,-0.67696 0,-0.2825 0.096463,-0.52366 0.098185,-0.24115 0.2842204,-0.42546 0.1877577,-0.18604 0.434082,-0.28078 0.2480468,-0.0965 0.5357123,-0.0965 0.1533068,0 0.3014459,0.0327 0.1498616,0.031 0.2911105,0.0947 z"
         style="font-style:normal;font-variant:normal;font-weight:normal;font-stretch:normal;font-size:3.52777767px;line-height:1.25;font-family:'Futura XBlk BT';-inkscape-font-specification:'Futura XBlk BT';letter-spacing:0px;word-spacing:0px;fill:#ffffff;fill-opacity:1;stroke:none;stroke-width:0.26458335"
         id="path892"
         inkscape:connector-curvature="0" />
      <path
         d="m 9.0840284,288.87782 h 0.377238 l -0.07752,-0.28594 q -0.05684,-0.21704 -0.07752,-0.33418 -0.02067,-0.11713 -0.02584,-0.22048 h -0.0155 q -0.0052,0.10335 -0.02584,0.22048 -0.02067,0.11714 -0.07752,0.33418 z m -1.2023379,0.9164 0.8991703,-2.52181 h 1.0094126 l 0.8819436,2.52181 H 9.6972554 l -0.08096,-0.31695 h -0.683851 l -0.07752,0.31695 z"
         style="font-style:normal;font-variant:normal;font-weight:normal;font-stretch:normal;font-size:3.52777767px;line-height:1.25;font-family:'Futura XBlk BT';-inkscape-font-specification:'Futura XBlk BT';letter-spacing:0px;word-spacing:0px;fill:#ffffff;fill-opacity:1;stroke:none;stroke-width:0.26458335"
         id="path894"
         inkscape:connector-curvature="0" />
      <path
         d="m 13.583144,289.7942 -0.110243,-0.99908 q -0.01033,-0.11541 -0.02067,-0.2291 -0.01033,-0.11541 -0.01722,-0.23082 -0.0155,0.10852 -0.04479,0.23082 -0.02756,0.12058 -0.0689,0.25838 l -0.289388,0.9698 h -0.539158 l -0.289388,-0.9698 q -0.04306,-0.1378 -0.07062,-0.25838 -0.02756,-0.1223 -0.04306,-0.23082 -0.0086,0.11713 -0.01895,0.23082 -0.0086,0.11369 -0.01895,0.2291 l -0.110243,0.99908 h -0.888835 l 0.430637,-2.52181 h 0.935344 l 0.179145,0.62356 q 0.0086,0.0293 0.02584,0.0879 0.113688,0.39446 0.139526,0.6494 h 0.0155 q 0.02067,-0.1602 0.06201,-0.34107 0.04134,-0.18086 0.110243,-0.40652 l 0.187758,-0.61322 h 0.933621 l 0.399631,2.52181 z"
         style="font-style:normal;font-variant:normal;font-weight:normal;font-stretch:normal;font-size:3.52777767px;line-height:1.25;font-family:'Futura XBlk BT';-inkscape-font-specification:'Futura XBlk BT';letter-spacing:0px;word-spacing:0px;fill:#ffffff;fill-opacity:1;stroke:none;stroke-width:0.26458335"
         id="path896"
         inkscape:connector-curvature="0" />
      <path
         d="m 14.852495,289.57377 0.289388,-0.70625 q 0.194648,0.13608 0.346232,0.19982 0.153307,0.062 0.285943,0.062 0.09302,0 0.146417,-0.0344 0.0534,-0.0362 0.0534,-0.0965 0,-0.10508 -0.266995,-0.1602 -0.08613,-0.019 -0.134359,-0.0293 -0.282498,-0.0689 -0.432359,-0.24461 -0.149862,-0.17569 -0.149862,-0.43752 0,-0.40652 0.29111,-0.66146 0.291111,-0.25494 0.763089,-0.25494 0.217041,0 0.427192,0.0568 0.210151,0.0568 0.423747,0.17225 l -0.275608,0.65974 q -0.130914,-0.0965 -0.26355,-0.14642 -0.130913,-0.0517 -0.254937,-0.0517 -0.09474,0 -0.146416,0.0327 -0.05168,0.031 -0.05168,0.0879 0,0.1068 0.377238,0.18776 0.06029,0.0138 0.09302,0.0207 0.260104,0.0586 0.409966,0.23943 0.149862,0.18087 0.149862,0.43753 0,0.41858 -0.303169,0.68385 -0.301446,0.26528 -0.785481,0.26528 -0.248047,0 -0.496094,-0.0706 -0.248047,-0.0706 -0.496094,-0.21187 z"
         style="font-style:normal;font-variant:normal;font-weight:normal;font-stretch:normal;font-size:3.52777767px;line-height:1.25;font-family:'Futura XBlk BT';-inkscape-font-specification:'Futura XBlk BT';letter-spacing:0px;word-spacing:0px;fill:#ffffff;fill-opacity:1;stroke:none;stroke-width:0.26458335"
         id="path898"
         inkscape:connector-curvature="0" />
    </g>
    <g
       id="g1306"
       transform="matrix(1.0844777,0,0,1.0844777,27.08136,-24.231481)">
      <path
         sodipodi:nodetypes="csccccc"
         inkscape:connector-curvature="0"
         id="path1297"
         d="m -21.990246,285.54277 2.289983,-2.73148 c 1.68133,-2.00548 4.450268,-0.72378 4.655021,1.69856 3.211702,0.59497 3.305042,3.07236 2.291119,4.16444 l -3.10658,2.88929 c 1.245066,-1.53778 3.067353,-4.10076 -0.829051,-5.24613 -0.791601,-3.65546 -4.009336,-2.5008 -5.300492,-0.77468 z"
         style="fill:none;stroke:#ffffff;stroke-width:0.26499999;stroke-linecap:round;stroke-linejoin:bevel;stroke-miterlimit:4;stroke-dasharray:none;stroke-opacity:1" />
      <path
         sodipodi:nodetypes="ccccc"
         inkscape:connector-curvature="0"
         id="path1299"
         d="m -18.989936,283.96843 -3.152176,3.88256 c 1.660393,-2.27999 3.508225,-1.78804 3.786455,0.21142 2.353314,0.42262 2.293181,2.35721 0.595838,3.8249 l 3.402043,-3.44049"
         style="fill:none;stroke:#ffffff;stroke-width:0.26458335px;stroke-linecap:butt;stroke-linejoin:miter;stroke-opacity:1" />
      <path
         sodipodi:nodetypes="ccccc"
         inkscape:connector-curvature="0"
         id="path1301"
         d="m -19.508892,286.42866 -2.671661,3.03686 c 0.857902,-0.78027 1.941744,-0.80763 2.210367,0.36519 1.44415,0.1794 1.119547,1.15595 0.518956,1.84517 l 2.690881,-2.614"
         style="fill:none;stroke:#ffffff;stroke-width:0.26458335px;stroke-linecap:butt;stroke-linejoin:miter;stroke-opacity:1" />
    </g>
  </g>
</svg>
