<?xml version="1.0" encoding="UTF-8" standalone="no"?>
<!-- Created with Inkscape (http://www.inkscape.org/) -->

<svg
   xmlns:dc="http://purl.org/dc/elements/1.1/"
   xmlns:cc="http://creativecommons.org/ns#"
   xmlns:rdf="http://www.w3.org/1999/02/22-rdf-syntax-ns#"
   xmlns:svg="http://www.w3.org/2000/svg"
   xmlns="http://www.w3.org/2000/svg"
   xmlns:sodipodi="http://sodipodi.sourceforge.net/DTD/sodipodi-0.dtd"
   xmlns:inkscape="http://www.inkscape.org/namespaces/inkscape"
   width="64"
   height="64"
   viewBox="0 0 16.933333 16.933334"
   version="1.1"
   id="svg8"
   inkscape:version="0.92.5 (2060ec1f9f, 2020-04-08)"
   sodipodi:docname="Filt.svg"
   inkscape:export-filename="/home/davo/Programmazione/WordPress/Template/Categorie/Png/Filt.png"
   inkscape:export-xdpi="96"
   inkscape:export-ydpi="96">
  <defs
     id="defs2" />
  <sodipodi:namedview
     id="base"
     pagecolor="#ffffff"
     bordercolor="#666666"
     borderopacity="1.0"
     inkscape:pageopacity="0.0"
     inkscape:pageshadow="2"
     inkscape:zoom="9.7337668"
     inkscape:cx="20.616591"
     inkscape:cy="30.882034"
     inkscape:document-units="px"
     inkscape:current-layer="layer1"
     showgrid="false"
     units="px"
     inkscape:showpageshadow="false"
     inkscape:window-width="2532"
     inkscape:window-height="1056"
     inkscape:window-x="28"
     inkscape:window-y="0"
     inkscape:window-maximized="1"
     inkscape:snap-global="true"
     inkscape:snap-bbox="true"
     inkscape:snap-bbox-midpoints="true" />
  <metadata
     id="metadata5">
    <rdf:RDF>
      <cc:Work
         rdf:about="">
        <dc:format>image/svg+xml</dc:format>
        <dc:type
           rdf:resource="http://purl.org/dc/dcmitype/StillImage" />
        <dc:title></dc:title>
      </cc:Work>
    </rdf:RDF>
  </metadata>
  <g
     inkscape:label="Livello 1"
     inkscape:groupmode="layer"
     id="layer1"
     transform="translate(0,-280.06665)">
    <rect
       style="fill:#d00000;fill-opacity:1;stroke:none;stroke-width:0.00209689;stroke-miterlimit:4;stroke-dasharray:none"
       id="rect978"
       width="16.933334"
       height="16.933334"
       x="-4.2529297e-07"
       y="280.06665" />
    <path
       style="fill:#ffffff;fill-opacity:1;stroke:none;stroke-width:0.46503168;stroke-miterlimit:4;stroke-dasharray:none"
       d="m 7.834201,281.91071 c -2.7240922,0 -4.9324055,2.20831 -4.9324055,4.9324 4.928e-4,2.71559 2.195971,4.91996 4.9115332,4.93144 l 0.00547,0.0138 0.010278,-0.0132 0.00516,3.2e-4 c 2.3053863,-0.002 4.3018563,-1.60072 4.8078103,-3.84991 l 0.01156,-0.006 0.733118,-3.19097 h 0.234417 v -0.24983 H 13.4442 l 0.385344,-1.67658 h -0.182717 l -1.165666,5.07371 -0.01124,0.005 c -0.485111,2.15653 -2.399263,3.68941 -4.60968,3.69127 l -0.00479,-3.2e-4 -0.00995,0.0125 -0.00516,-0.0132 c -2.6036968,-0.011 -4.7087536,-2.12445 -4.7092272,-4.72817 0,-2.61187 2.1172613,-4.72913 4.7291364,-4.72913 l 6.1247248,0.0125 0.04656,-0.20327 z m 0.052024,0.40685 c -2.4996599,0 -4.525869,2.02652 -4.525869,4.52619 4.934e-4,2.49185 2.0150903,4.51436 4.5069217,4.5249 l 0.00484,0.0128 0.00963,-0.0122 0.00447,3.2e-4 c 2.1154473,-0.002 3.9475983,-1.46876 4.4118683,-3.53264 l 0.0106,-0.005 1.155391,-5.02939 H 13.24411 l -1.143188,4.97576 -0.01,0.005 c -0.439163,1.95228 -2.1722137,3.33971 -4.1732764,3.34158 l -0.00447,-3.2e-4 -0.00899,0.0115 -0.00447,-0.0122 c -2.3570927,-0.01 -4.2627642,-1.9231 -4.2631917,-4.28021 0,-2.3645 1.9166791,-4.28149 4.2811739,-4.28149 l 5.9625602,0.0109 0.05619,-0.24406 z m 0.060693,0.47462 c -2.2379544,0 -4.0518939,1.81425 -4.0518939,4.05222 3.287e-4,2.23096 1.8039268,4.0418 4.0348736,4.05125 l 0.00447,0.0112 0.00835,-0.0107 0.00447,3.3e-4 c 1.8939703,-0.002 3.5341153,-1.31524 3.9497773,-3.16304 l 0.0093,-0.004 0.747567,-3.25263 h -0.221893 l -0.735045,3.19868 -0.009,0.004 c -0.390353,1.73529 -1.9306068,2.96817 -3.7092574,2.97003 H 7.97481 l -0.00803,0.01 -0.00416,-0.0106 c -2.0951101,-0.009 -3.7891594,-1.70952 -3.7895391,-3.80464 0,-2.1017 1.7039042,-3.80559 3.8055962,-3.80559 l 3.2795989,0.007 -0.354195,1.43316 h -0.06775 l -2.6730052,-0.002 -3.206e-4,6.1e-4 c -1.3081759,0 -2.3685819,1.06041 -2.3685819,2.36859 1.641e-4,1.30409 1.0545468,2.36274 2.3586269,2.36826 l 0.00255,0.007 0.00516,-0.007 0.00255,3.2e-4 c 1.1071033,-10e-4 2.0658848,-0.7689 2.3088548,-1.84902 l 0.0054,-0.003 c 0.20219,-0.86651 0.406056,-1.74027 0.614626,-2.63415 h 1.047493 l 0.05716,-0.24983 h -1.04621 c 0.112578,-0.48248 0.227977,-0.97716 0.334286,-1.43284 l 1.048778,0.002 0.05619,-0.24695 -1.236314,-0.002 -0.03436,-6.2e-4 v 6.2e-4 l -3.372084,-0.007 z m 4.866897,0.0102 -0.05652,0.24662 h 0.0028 l -0.09152,0.39883 h 0.221574 l 0.148357,-0.64513 z m -4.6189929,1.92222 3.206e-4,3.2e-4 2.6659413,0.006 -0.592788,2.57987 -0.0051,0.002 c -0.217668,0.96762 -1.0765399,1.65477 -2.0683364,1.65602 h -0.00223 l -0.00447,0.006 -0.00223,-0.007 c -1.1682584,-0.005 -2.1127579,-0.95338 -2.1129698,-2.12164 0,-1.17194 0.9500338,-2.12196 2.1219616,-2.12196 z"
       id="rect852"
       inkscape:connector-curvature="0" />
    <text
       xml:space="preserve"
       style="font-style:normal;font-weight:normal;font-size:4.28063631px;line-height:1.25;font-family:sans-serif;letter-spacing:0px;word-spacing:0px;fill:#ffffff;fill-opacity:1;stroke:none;stroke-width:0.32104775;"
       x="3.8714623"
       y="296.10257"
       id="text1394"><tspan
         sodipodi:role="line"
         id="tspan1392"
         x="3.8714623"
         y="296.10257"
         style="font-style:normal;font-variant:normal;font-weight:normal;font-stretch:normal;font-family:'Futura XBlk BT';-inkscape-font-specification:'Futura XBlk BT';fill:#ffffff;fill-opacity:1;stroke-width:0.32104775;">FILT</tspan></text>
  </g>
</svg>
