<?xml version="1.0" encoding="UTF-8" standalone="no"?>
<!-- Created with Inkscape (http://www.inkscape.org/) -->

<svg
   width="64"
   height="64"
   viewBox="0 0 16.933333 16.933334"
   version="1.1"
   id="svg8"
   inkscape:version="1.3.2 (1:1.3.2+202311252150+091e20ef0f)"
   sodipodi:docname="Spi.svg"
   inkscape:export-filename="/home/davo/Programmazione/WordPress/Template/Categorie/Png/Spi.png"
   inkscape:export-xdpi="96"
   inkscape:export-ydpi="96"
   xmlns:inkscape="http://www.inkscape.org/namespaces/inkscape"
   xmlns:sodipodi="http://sodipodi.sourceforge.net/DTD/sodipodi-0.dtd"
   xmlns="http://www.w3.org/2000/svg"
   xmlns:svg="http://www.w3.org/2000/svg"
   xmlns:rdf="http://www.w3.org/1999/02/22-rdf-syntax-ns#"
   xmlns:cc="http://creativecommons.org/ns#"
   xmlns:dc="http://purl.org/dc/elements/1.1/">
  <defs
     id="defs2" />
  <sodipodi:namedview
     id="base"
     pagecolor="#ffffff"
     bordercolor="#666666"
     borderopacity="1.0"
     inkscape:pageopacity="0.0"
     inkscape:pageshadow="2"
     inkscape:zoom="6.8828125"
     inkscape:cx="1.2349603"
     inkscape:cy="28.839955"
     inkscape:document-units="px"
     inkscape:current-layer="layer1"
     showgrid="false"
     units="px"
     inkscape:showpageshadow="false"
     inkscape:window-width="2518"
     inkscape:window-height="1392"
     inkscape:window-x="2594"
     inkscape:window-y="0"
     inkscape:window-maximized="1"
     inkscape:snap-global="false"
     inkscape:pagecheckerboard="0"
     inkscape:deskcolor="#d1d1d1" />
  <metadata
     id="metadata5">
    <rdf:RDF>
      <cc:Work
         rdf:about="">
        <dc:format>image/svg+xml</dc:format>
        <dc:type
           rdf:resource="http://purl.org/dc/dcmitype/StillImage" />
        <dc:title />
      </cc:Work>
    </rdf:RDF>
  </metadata>
  <g
     inkscape:label="Livello 1"
     inkscape:groupmode="layer"
     id="layer1"
     transform="translate(0,-280.06665)">
    <rect
       style="fill:#d00000;fill-opacity:1;stroke:none;stroke-width:0.00264583;stroke-miterlimit:4;stroke-dasharray:none"
       id="rect1837"
       width="16.933334"
       height="16.933334"
       x="-4.2529297e-07"
       y="280.06665" />
    <path
       style="font-size:12.247px;line-height:1.25;font-family:'Futura XBlk BT';-inkscape-font-specification:'Futura XBlk BT';letter-spacing:0px;word-spacing:0px;fill:#ffffff;stroke-width:0.918529"
       d="m 1.0865712,223.23636 1.0046367,-2.45179 q 0.6757378,0.47242 1.201976,0.69367 0.5322183,0.21528 0.9926768,0.21528 0.3229189,0 0.5082983,-0.1196 0.1853794,-0.12558 0.1853794,-0.33487 0,-0.36478 -0.926897,-0.55614 -0.298999,-0.0658 -0.4664384,-0.10166 -0.9807168,-0.2392 -1.5009751,-0.84916 -0.5202583,-0.60996 -0.5202583,-1.51891 0,-1.41128 1.0106167,-2.29632 1.0106167,-0.88503 2.6491313,-0.88503 0.7534775,0 1.4830351,0.19733 0.7295576,0.19734 1.4710752,0.598 L 7.222031,218.1175 q -0.4544785,-0.33488 -0.914937,-0.5083 -0.4544785,-0.1794 -0.8850371,-0.1794 -0.3288989,0 -0.5082983,0.11362 -0.1793994,0.10764 -0.1793994,0.30498 0,0.37076 1.3096157,0.65181 0.2092993,0.0478 0.3229189,0.0718 0.9029771,0.20332 1.4232354,0.83122 0.5202583,0.6279 0.5202583,1.51892 0,1.45313 -1.0524766,2.37405 -1.0464965,0.92092 -2.726871,0.92092 -0.8611172,0 -1.7222344,-0.24518 -0.8611171,-0.24518 -1.7222343,-0.73554 z m 8.276293,0.7475 v -8.7547 h 3.7614078 q 1.985353,0 2.90029,0.76544 0.920917,0.76544 0.920917,2.42787 0,1.54882 -0.825237,2.26642 -0.825237,0.71161 -2.619231,0.71161 h -0.986697 v 2.58336 z m 3.1634098,-6.32084 v 1.45911 h 0.490358 q 0.448499,0 0.687698,-0.18538 0.239199,-0.19136 0.239199,-0.5382 0,-0.34683 -0.245179,-0.53819 -0.245179,-0.19734 -0.681718,-0.19734 z m 5.567362,6.32084 v -8.7547 h 3.19929 v 8.7547 z"
       id="text1394"
       transform="scale(0.75664235,1.3216284)"
       aria-label="SPI" />
    <rect
       style="fill:#ffffff;fill-opacity:1;stroke:none;stroke-width:0.00214958;stroke-miterlimit:4;stroke-dasharray:none"
       id="rect1941"
       width="15.288948"
       height="1.8647884"
       x="0.82219273"
       y="280.79663" />
  </g>
</svg>
